<svg xmlns="http://www.w3.org/2000/svg" width="288" height="380"><g fill="#FFF"><path d="M4.385 2.635v24.67h219.15l.5-.5H5.385V3.135h275.81l-23.67 23.67-.5.5h1.42l24.67-24.67z"/><path d="M29.055 26.805v.5h.5v.5h192.781l.5-.5h.699l.5-.5H29.055zm0 0v.5h.5v.5h192.781l.5-.5h.699l.5-.5H29.055zm0 0v.5h.5v.5h192.781l.5-.5h.699l.5-.5H29.055zm0 0v.5h.5v.5h192.781l.5-.5h.699l.5-.5H29.055zm0 0v.5h.5v.5h192.781l.5-.5h.699l.5-.5H29.055zm0 0v.5h.5v.5h192.781l.5-.5h.699l.5-.5H29.055zm0 0v.5h.5v.5h192.781l.5-.5h.699l.5-.5H29.055zm0 0v.5h.5v.5h192.781l.5-.5h.699l.5-.5H29.055zm0 0v.5h.5v.5h192.781l.5-.5h.699l.5-.5H29.055zm0 0v.5h.5v.5h192.781l.5-.5h.699l.5-.5H29.055zm0 0v.5h.5v.5h192.781l.5-.5h.699l.5-.5H29.055zm0 0v.5h.5v.5h192.781l.5-.5h.699l.5-.5H29.055zm-23.67 0v.5h218.15l.5-.5H5.385zm-1-24.67v1h278.23l1-1H4.385zm24.67 24.67v.5h.5v.5h192.781l.5-.5h.699l.5-.5H29.055zm0 0v.5h.5v.5h192.781l.5-.5h.699l.5-.5H29.055zm0 0v.5h.5v.5h192.781l.5-.5h.699l.5-.5H29.055zm0 0v.5h.5v.5h192.781l.5-.5h.699l.5-.5H29.055zm0 0v.5h.5v.5h192.781l.5-.5h.699l.5-.5H29.055zm0 0v.5h.5v.5h192.781l.5-.5h.699l.5-.5H29.055zm0 0v.5h.5v.5h192.781l.5-.5h.699l.5-.5H29.055zm0 0v.5h.5v.5h192.781l.5-.5h.699l.5-.5H29.055zm0 0v.5h.5v.5h192.781l.5-.5h.699l.5-.5H29.055zm0 0v.5h.5v.5h192.781l.5-.5h.699l.5-.5H29.055zm0 0v.5h.5v.5h192.781l.5-.5h.699l.5-.5H29.055zm0 0v.5h.5v.5h192.781l.5-.5h.699l.5-.5H29.055zm228.47 0l-1 1h1.42l1-1h-1.42zm-253.14 0v1h218.65l1-1H4.385zm24.67 0v.5h.5v.5h192.781l.5-.5h.699l.5-.5H29.055zm169.8 25.18l-.49.5H5.385v24.18h-1v-24.68zm-169.79 24.18h25.68v.5h-25.68zm204.701-24.18l-.5.5-23.68 23.68-.5.5H78.405v-.5h129.761l24.18-24.18z"/><path d="M29.065 76.165v.5h1v.5h23.68v-.5h.5v-.5h-25.18zm0 .5h.5v-.5h-.5v.5zm-24.68-25.18v1h193.98l.49-.5.5-.5H4.385zm24.68 25.18h.5v-.5h-.5v.5zm203.781-25.18l-1 1h1.42l1-1h-1.42zM29.065 76.165v.5h1v.5h23.68v-.5h.5v-.5h-25.18zm0 0v.5h1v.5h23.68v-.5h.5v-.5h-25.18zm169.091-24.18l.5-.5H53.745v1h144.62l.49-.5h-.699zm0 0l.5-.5H53.745v1h144.62l.49-.5h-.699zm0 0l.5-.5H53.745v1h144.62l.49-.5h-.699zm0 0l.5-.5H53.745v1h144.62l.49-.5h-.699zm0 0l.5-.5H53.745v1h144.62l.49-.5h-.699zM29.065 77.165h25.68v-1h-25.68v1zm49.34-1v1h130.181l1-1H78.405zm-74.02 1h1v-1h-1v1zm193.771-25.18l.5-.5H53.745v1h144.62l.49-.5h-.699zm0 0l.5-.5H53.745v1h144.62l.49-.5h-.699zm0 0l.5-.5H53.745v1h144.62l.49-.5h-.699zm0 0l.5-.5H53.745v1h144.62l.49-.5h-.699zm0 0l.5-.5H53.745v1h144.62l.49-.5h-.699zm-65.91 128.42h.699l-.668-.033-.031.033zm-19.3-1l19.332.967.459-.467h-.711l.5-.5h-19.58zm34.9 0l-24.68 24.681h-1.411l24.681-24.681zM4.385 131.054h1.001v23.681H4.385zm24.68 0h1v23.681h-1zm24.68 0h1v23.681h-1z"/><path d="M194.775 131.055l-24.679 24.68-23.66 23.67-24.681 24.681h-92.69v114.209l25.68-25.68v-74.699h23.66v84.51l-24.16 24.16-.5.51-24.68 24.679-23.68 23.67V204.086h-1v-23.681h128.56l-20-1 23.68-23.67 1-1h-82.88v-64.73h23.66v41.05z"/><path d="M281.195 3.135l-23.67 23.67-49.359 49.36H78.405v1h-23.66v-1h-25.68v78.57H5.385V52.485h192.98l.49-.5 25.18-25.18H5.385V3.135zm-144.289 151.6l-.5.5h-.711l-.5.5h1.43l1-1zm59.289-23.68l-24.679 24.68h-1.42l24.679-24.68zm-191.81 23.68h25.681v.5H4.385z"/><path d="M53.746 154.735v.5h82.66l.5-.5zm-49.361-24.18h1.001v.5H4.385zm24.68 0h1v.5h-1zm24.68 0h1v.5h-1zm24.66 0v.5h117.79l.5-.5z"/><path d="M54.245 154.735v1h80.95l.5-.5h.711l.5-.5H54.245zm141.03-24.18l-.5.5h1.42l.5-.5h-1.42zm0 0l-.5.5h1.42l.5-.5h-1.42zm0 0l-.5.5h1.42l.5-.5h-1.42zm0 0l-.5.5h1.42l.5-.5h-1.42zm0 0l-.5.5h1.42l.5-.5h-1.42zm-141.53 24.18v1h81.45l.5-.5h.711l.5-.5H53.745zm-49.36 1h25.68v-1H4.385v1zm190.89-25.18l-.5.5h1.42l.5-.5h-1.42zm0 0l-.5.5h1.42l.5-.5h-1.42zm0 0l-.5.5h1.42l.5-.5h-1.42zm0 0l-.5.5h1.42l.5-.5h-1.42zm0 0l-.5.5h1.42l.5-.5h-1.42zm-141.03 24.18v1h80.95l.5-.5h.711l.5-.5H54.245zm0 0v1h80.95l.5-.5h.711l.5-.5H54.245zm0 0v1h80.95l.5-.5h.711l.5-.5H54.245zm0 0v1h80.95l.5-.5h.711l.5-.5H54.245zm-.5 0v1h81.45l.5-.5h.711l.5-.5H53.745zm-49.36-23.68h1v-1h-1v1zm74.02-1v1h117.79l1-1H78.405zm-24.66 1h1v-1h-1v1zm-24.68 0h1v-1h-1v1zm25.18 23.68v1h80.95l.5-.5h.711l.5-.5H54.245zm0 0v1h80.95l.5-.5h.711l.5-.5H54.245zm0 0v1h80.95l.5-.5h.711l.5-.5H54.245zm0 0v1h80.95l.5-.5h.711l.5-.5H54.245zm0 0v1h80.95l.5-.5h.711l.5-.5H54.245zm-49.86 25.17v.5h127.859l.492-.5zm0 24.181h1.001v.5H4.385zm24.68 0v.5h93.601l.5-.5z"/><path d="M78.905 204.086v.5h41.44l.5-.5h-41.94zm0 0v.5h41.44l.5-.5h-41.94zm-24.16 0v.5h-.5v.5h24.66v-.5h41.44l.5-.5h-66.1zm-24.68 0v1h24.18v-.5h.5v-.5h-24.68zm0 1h48.34v-1h-48.34v1zm0 0h48.34v-1h-48.34v1zm101.96-25.181l.5-.5H4.385v1h127.861l.5-.5h-.721zm-101.96 25.181h48.34v-1h-48.34v1zm-.5-1v.5h.5v.5h48.34v-1h-48.84zm48.84 0v.5h41.94l.5-.5h-42.44zm1-24.181v.5h52.12l.5-.5h-52.62zm-.5-.5v.5h-.5v.5h53.12l1-1h-53.62zm53.12.5l.5-.5h-53.62v.5h-.5v.5h53.841l.5-.5h-.721zm0 0l-.5.5h.721l.5-.5h-.721zm0 0l-.5.5h.721l.488-.5h-.709zM4.385 205.086h1v-1h-1v1zm24.68-1v1h93.1l1-1h-94.1zm102.96-24.181l-.5.5h.721l.488-.5h-.709zm0 0l-.5.5h.721l.5-.5h-.721zm-53.12-.5v.5h-.5v.5h53.12l1-1h-53.62zm.5.5v.5h52.12l.5-.5h-52.62zm0 0v.5h52.12l.5-.5h-52.62zm-.5 24.181v.5h41.44l.5-.5h-41.94zm0 0v.5h41.44l.5-.5h-41.94zm0 0v.5h41.44l.5-.5h-41.94z"/><path d="M29.065 351.775l.5-.5v1.42l-.5.5-23.68 23.67-.5.5V204.086h.5v171.359zm0-147.689v114.209l.499-.5V204.086zm-24.18-24.681h24.68v1H4.885zm24.18-24.67h.5v-78.07h-.5v78.07zM4.885 51.485v104.25h24.68v-79.57h-.5v78.57H5.385V52.485h24.18v-1H4.885zm24.67-49.35v1H5.385v23.67h24.17v1H4.885V2.135z"/><path d="M29.065 27.805h.5v-.5h-.5v.5zm0 24.68h1v-1h-1v1zm0 103.25h1v-79.57h-1v79.57zm0 24.67h1v-1h-1v1zm0 23.681v114.209l.5-.5v-.709l.5-.5v-112.5h-1zm0-176.281h.5v-.5h-.5v.5zm0 24.68h1v-1h-1v1zm0 103.25h1v-79.57h-1v79.57zm0 24.67h1v-1h-1v1zm0 23.681v114.209l.5-.5v-.709l.5-.5v-112.5h-1zM4.885 3.135h.5v-1h-.5v1zm0 0h.5v-1h-.5v1zm24.18 49.35h1v-1h-1v1zm0 103.25h1v-79.57h-1v79.57zm0 24.67h1v-1h-1v1zm0 171.37v1.42l1-1v-1.42l-1 1zm0-147.689v114.209l1-1V204.086h-1zm0-200.951h1v-1h-1v1zm0 24.67h1v-1h-1v1zM4.885 3.135h.5v-1h-.5v1zm0 0h.5v-1h-.5v1zm24.18 24.67h.5v-.5h-.5v.5zm0 24.68h1v-1h-1v1zm0 103.25h1v-79.57h-1v79.57zm0 24.67h1v-1h-1v1zm0 23.681v114.209l.5-.5v-.709l.5-.5v-112.5h-1zm0-176.281h.5v-.5h-.5v.5zm0 0h.49v-.5h-.49v.5zm0 0h.49v-1h-.49v1zm0 0h.49v-1h-.49v1zm0 0h.49v-1h-.49v1zm0 0h.49v-1h-.49v1zm-24.68 0h1V2.135h-1v25.67zm24.68 0h.49v-1h-.49v1zm0 0h.49v-1h-.49v1zm0 0h.49v-1h-.49v1zm0 0h.49v-1h-.49v1zm0 0h.5v-.5h-.5v.5zm0 0h.5v-.5h-.5v.5zm.5 48.86v-.5h-.5v79.57h1v-79.07h-.5zm-.5 103.74h1v-1h-1v1zm0 23.681v114.209l.5-.5v-.709l.5-.5v-112.5h-1zm0 0v114.209l.5-.5v-.709l.5-.5v-112.5h-1zm0 0v114.209l.5-.5v-.709l.5-.5v-112.5h-1zm0 0v114.209l.5-.5v-.709l.5-.5v-112.5h-1zm0 0v114.209l.5-.5v-.709l.5-.5v-112.5h-1zm0 0v114.209l.5-.5v-.709l.5-.5v-112.5h-1zm0 .5v113.709l.5-.5v-.709l.5-.5v-112h-1zm-24.68-.5v173.779l1-1V204.086h-1zm24.68.5v113.709l.5-.5v-.709l.5-.5v-112h-1zm-24.68-24.181h1v-1h-1v1zm24.68 23.681v114.209l.5-.5v-.709l.5-.5v-112.5h-1zm0 0v114.209l.5-.5v-.709l.5-.5v-112.5h-1zm0 0v114.209l.5-.5v-.709l.5-.5v-112.5h-1zm0 0v114.209l.5-.5v-.709l.5-.5v-112.5h-1zm0 0v114.209l.5-.5v-.709l.5-.5v-112.5h-1zm0-127.421v79.07h.5v-1h.5v-78.07h-1zm0 79.07h.5v-1h-.5v1zm0 0h.5v-1h-.5v1zm0 0h.5v-1h-.5v1zm0 0h.5v-1h-.5v1zm0 0h.5v-1h-.5v1zm-24.68 0h1V51.485h-1v104.25zm24.68 0h.5v-1h-.5v1zm0 0h.5v-1h-.5v1zm0 0h.5v-1h-.5v1zm0 0h.5v-1h-.5v1zm0-79.07v79.07h.5v-24.68h.5v-54.39h-1zm.5 0v-.5h-.5v79.57h.5v-1h.5v-78.07h-.5zm-.5-48.86h.5v-.5h-.5v.5zm0 24.68h1v-1h-1v1zm0 103.25h1v-79.57h-1v79.57zm0 24.67h1v-1h-1v1zm0 23.681v114.209l.5-.5v-.709l.5-.5v-112.5h-1zm0-176.281h.5v-.5h-.5v.5zm0 24.68h1v-1h-1v1zm0 103.25h1v-79.57h-1v79.57zm0 24.67h1v-1h-1v1zm0 23.681v114.209l.5-.5v-.709l.5-.5v-112.5h-1zm0-176.281h.5v-.5h-.5v.5zm0 24.68h1v-1h-1v1zm0 103.25h1v-79.57h-1v79.57zm0 24.67h1v-1h-1v1zm0 23.681v114.209l.5-.5v-.709l.5-.5v-112.5h-1zm25.18 13.83v75.199l.5-.5v-74.699zm0-13.83h24.66v1h-24.66zm24.16 13.83h.5v85.43l-.5.5-23.66 23.67-.5.5v-1.43l24.16-24.16zm-24.16-38.511h24.66v1h-24.66zm0-103.24h.5v1h-.5zm24.66 78.57v1h-24.66v-65.73h.5v64.73zm-.5-78.57h.5v1h-.5zm0 13.84h.5v41.05h-.5zm-24.16-38.52h24.66v1h-24.66zm-.01-24.68h24.67v1h-24.67zm0-24.67h24.67v1h-24.67z"/><path d="M54.245 205.086h.5v-.5h-.5v.5zm0 12.83v73.779l.5-.5v-73.279h-.5zm0 0v73.779l.5-.5v-73.279h-.5zm0 0v73.779l.5-.5v-73.279h-.5zm0 0v73.779l.5-.5v-73.279h-.5zm0 0v73.779l.5-.5v-73.279h-.5zm0 0v73.779l.5-.5v-73.279h-.5zm24.16-12.83h.5v-1h-.5v1zm0 12.83v49.609l.5-.5v-49.109h-.5zm-24.16 0v73.779l.5-.5v-73.279h-.5zm0 0v73.779l.5-.5v-73.279h-.5zm0 0v73.779l.5-.5v-73.279h-.5zm0 0v73.779l.5-.5v-73.279h-.5zm0-165.431h.5v-.5h-.5v.5zm-.5 24.68h1v-1h-1v1zm0 12.84v64.73h.5v.5h.5v-65.23h-1zm.5 115.081h.5v-.5h-.5v.5zm0 12.83v73.779l.5-.5v-73.279h-.5zm0 0v73.779l.5-.5v-73.279h-.5zm0 0v73.779l.5-.5v-73.279h-.5zm0 0v73.779l.5-.5v-73.279h-.5zm0 0v73.779l.5-.5v-73.279h-.5zm0 0v73.779l.5-.5v-73.279h-.5zm24.16-12.83h.5v-1h-.5v1zm0 12.83v49.609l.5-.5v-49.109h-.5zm-24.16 0v73.779l.5-.5v-73.279h-.5zm0 0v73.779l.5-.5v-73.279h-.5zm0 0v73.779l.5-.5v-73.279h-.5zm0 0v73.779l.5-.5v-73.279h-.5zm0-165.431h.5v-.5h-.5v.5zm-.5 24.68h1v-1h-1v1zm0 12.84v64.73h.5v.5h.5v-65.23h-1zm.5 115.081h.5v-.5h-.5v.5zm0 12.83v73.779l.5-.5v-73.279h-.5zm0 0v73.779l.5-.5v-73.279h-.5zm0 0v73.779l.5-.5v-73.279h-.5zm0 0v73.779l.5-.5v-73.279h-.5zm0 0v73.779l.5-.5v-73.279h-.5zm0 0v73.779l.5-.5v-73.279h-.5zm24.16-12.83h.5v-1h-.5v1zm0 12.83v49.609l.5-.5v-49.109h-.5zm-24.16 0v73.779l.5-.5v-73.279h-.5zm0 0v73.779l.5-.5v-73.279h-.5zm0 0v73.779l.5-.5v-73.279h-.5zm0 0v73.779l.5-.5v-73.279h-.5zm0-165.431h.5v-.5h-.5v.5zm-.5 24.68h1v-1h-1v1zm0 12.84v64.73h.5v.5h.5v-65.23h-1zm0-37.52h1v-1h-1v1zm0 24.68h1v-1h-1v1zm0 12.84v64.73h.5v1h.5v-65.73h-1zm24.66-86.87h1v-1h-1v1zm0 24.67h1v-1h-1v1zm-24.16 177.281h.5v-.5h-.5v.5zm0 12.83v73.779l.5-.5v-73.279h-.5zm0-141.751v.5h-.5v.5h1v-1h-.5zm-.5 13.84v64.73h.5v1h.5v-65.73h-1zm.5 127.911v74.479l.5-.488v-73.99h-.5zm0 0v74.479l.5-.488v-73.99h-.5zm0 0v74.479l.5-.488v-73.99h-.5zm0 0v74.479l.5-.488v-73.99h-.5zm24.16-37.511h1v-1h-1v1zm-24.16 37.511v74.479l.5-.488v-73.99h-.5zm24.16 0v85.93l1-1v-84.93h-1zm0-12.83h1v-1h-1v1zm-24.16 12.83v74.479l.5-.488v-73.99h-.5zm0 0v74.479l.5-.488v-73.99h-.5zm0 0v74.479l.5-.488v-73.99h-.5zm0 0v74.479l.5-.488v-73.99h-.5zm0-141.751v.5h-.5v.5h1v-1h-.5zm-.5 13.84v41.05h.5v23.68h.5v-64.73h-1zm24.66-37.52h1v-1h-1v1zm0 24.68h1v-1h-1v1zm0 53.89h1v-41.05h-1v41.05zm0 24.68h1v-1h-1v1zm-24.16-79.57v.5h-.5v.5h1v-1h-.5zm-.5 13.84v41.05h.5v23.68h.5v-64.73h-1zm0-37.52h1v-1h-1v1zm0 24.68h1v-1h-1v1zm0 12.84v64.73h.5v1h.5v-65.73h-1zm24.66 89.9h.5v-.5h-.5v.5zm0 122.521v1.42l.5-.5v-1.42l-.5.5zM53.745 52.485h1v-1h-1v1zm0 24.68h1v-1h-1v1zm0 78.57h1v-65.73h-1v65.73zm24.66 146.691v1.42l.5-.5v-1.42l-.5.5zm-24.66-122.021h1v-1h-1v1zm.5 146.181l-.5.51v1.42l1-1v-1.43l-.5.5zm-.5-108.67v75.699l1-1v-74.699h-1zm0-12.83h1v-1h-1v1zm24.66 97.34v1.42l.5-.5v-1.42l-.5.5zm0-122.521h.5v-.5h-.5v.5zM53.745 3.135h1v-1h-1v1zm0 24.67h1v-1h-1v1zm24.66 274.621v1.42l.5-.5v-1.42l-.5.5zm0-122.521h.5v-.5h-.5v.5zm-24.16-127.42h.5v-.5h-.5v.5zm-.5 24.68h1v-1h-1v1zm0 12.84v64.73h.5v1h.5v-65.73h-1zm.5 115.081h.5v-.5h-.5v.5zm0 12.83v73.779l.5-.5v-73.279h-.5zm0 0v73.779l.5-.5v-73.279h-.5zm0 0v73.779l.5-.5v-73.279h-.5zm0 0v73.779l.5-.5v-73.279h-.5zm0 0v73.779l.5-.5v-73.279h-.5zm0 0v73.779l.5-.5v-73.279h-.5zm24.16-12.83h.5v-1h-.5v1zm0 12.83v49.609l.5-.5v-49.109h-.5zm-24.16 0v73.779l.5-.5v-73.279h-.5zm0 0v73.779l.5-.5v-73.279h-.5zm0 0v73.779l.5-.5v-73.279h-.5zm0 0v73.779l.5-.5v-73.279h-.5zm0-165.431h.5v-.5h-.5v.5zm-.5 24.68h1v-1h-1v1zm0 12.84v64.73h.5v.5h.5v-65.23h-1zm.5 115.081h.5v-.5h-.5v.5zm0 12.83v73.779l.5-.5v-73.279h-.5zm0 0v73.779l.5-.5v-73.279h-.5zm0 0v73.779l.5-.5v-73.279h-.5zm0 0v73.779l.5-.5v-73.279h-.5zm0 0v73.779l.5-.5v-73.279h-.5zm0 0v73.779l.5-.5v-73.279h-.5zm24.16-12.83h.5v-1h-.5v1zm0 12.83v49.609l.5-.5v-49.109h-.5zm-24.16 0v73.779l.5-.5v-73.279h-.5zm0 0v73.779l.5-.5v-73.279h-.5zm0 0v73.779l.5-.5v-73.279h-.5zm0 0v73.779l.5-.5v-73.279h-.5zm0-165.431h.5v-.5h-.5v.5zm-.5 24.68h1v-1h-1v1zm0 12.84v64.73h.5v.5h.5v-65.23h-1zm.5 115.081h.5v-.5h-.5v.5zm0 12.83v73.779l.5-.5v-73.279h-.5zm0 0v73.779l.5-.5v-73.279h-.5zm0 0v73.779l.5-.5v-73.279h-.5zm0 0v73.779l.5-.5v-73.279h-.5zm0 0v73.779l.5-.5v-73.279h-.5zm0 0v73.779l.5-.5v-73.279h-.5zm24.16-12.83h.5v-1h-.5v1zm0 12.83v49.609l.5-.5v-49.109h-.5zm-24.16 0v73.779l.5-.5v-73.279h-.5zm0 0v73.779l.5-.5v-73.279h-.5zm0 0v73.779l.5-.5v-73.279h-.5zm0 0v73.779l.5-.5v-73.279h-.5zm0-165.431h.5v-.5h-.5v.5zm-.5 24.68h1v-1h-1v1zm0 12.84v64.73h.5v.5h.5v-65.23h-1z"/><path d="M136.906 154.735l-24.671 24.67 20.511.5h-.012l-.488.5h.699l-20-1 23.68-23.67 1-1h-.719zm24.68-24.68l-1 1h34.189l-24.68 24.68-23.66 23.67-24.68 24.681h-.2l-1 1h.9l75.029-75.031h-34.898zM54.245 292.395l-.5.5-23.68 23.691-1 1v.709l25.68-25.68v-.709l-.5.489zm24.16-24.159v34.189l-24.16 24.16-.5.51-24.68 24.68-23.68 23.67v-34.18l-1 1v34.889l75.02-75.02v-34.898l-1 1z"/><path d="M120.845 204.086l-1 1h1.42l1-1h-1.42zm16.061-49.351l-.5.5h-.711l-.5.5-2.67 23.67-1 1h1.42l-20-1 23.68-23.67 1-1h-.719zm-58.501 112.79v1.42l1-1v-1.42l-1 1zm-24.66 24.67l-23.68 23.689v.701l-.5.5v.709l25.18-25.18v-1.42l-1 1.001zm67.1-88.109l-1 1h1.42l1-1h-1.42zm16.061-49.351l-.5.5h-.711l-.5.5-2.67 23.67-1 1h1.42l-20-1 23.68-23.67 1-1h-.719zm-58.501 112.79v1.42l1-1v-1.42l-1 1zm-24.66 24.67l-23.68 23.689v.701l-.5.5v.709l25.18-25.18v-1.42l-1 1.001zm0 0l-23.68 23.689v.701l-.5.5v.709l25.18-25.18v-1.42l-1 1.001zm0 0l-23.68 23.689v.701l-.5.5v.709l25.18-25.18v-1.42l-1 1.001zm0 0l-23.68 23.689v.701l-.5.5v.709l25.18-25.18v-1.42l-1 1.001zm0 0l-23.68 23.689v.701l-.5.5v.709l25.18-25.18v-1.42l-1 1.001zm0 0l-23.68 23.689v.701l-.5.5v.709l25.18-25.18v-1.42l-1 1.001zm0 0l-23.68 23.689v.701l-.5.5v.709l25.18-25.18v-1.42l-1 1.001zm0 0l-23.68 23.689v.701l-.5.5v.709l25.18-25.18v-1.42l-1 1.001zm0 0l-23.68 23.689v.701l-.5.5v.709l25.18-25.18v-1.42l-1 1.001zm0 0l-23.68 23.689v.701l-.5.5v.709l25.18-25.18v-1.42l-1 1.001zm0 0l-23.68 23.689v.701l-.5.5v.709l25.18-25.18v-1.42l-1 1.001zm.5.2v-.699l-.5.5-23.68 23.689v.701l-.5.5v.709l25.18-25.18v-.709l-.5.489zm0 0v-.699l-.5.5-23.68 23.689v.701l-.5.5v.709l25.18-25.18v-.709l-.5.489zm-.5-.2l-23.68 23.689v.701l-.5.5v.709l25.18-25.18v-1.42l-1 1.001zm.5 34.391l-.5.51-24.68 24.68-23.68 23.67-1 1v1.42l1-1 23.68-23.67 25.68-25.68 23.66-23.67 1-1v-1.42l-25.16 25.16zm0-34.191v-.699l-.5.5-23.68 23.689v.701l-.5.5v.709l25.18-25.18v-.709l-.5.489zm0 0v-.699l-.5.5-23.68 23.689v.701l-.5.5v.709l25.18-25.18v-.709l-.5.489zm0 0v-.699l-.5.5-23.68 23.689v.701l-.5.5v.709l25.18-25.18v-.709l-.5.489zm-.5-.2l-23.68 23.689v.701l-.5.5v.709l25.18-25.18v-1.42l-1 1.001zm0 0l-23.68 23.689v.701l-.5.5v.709l25.18-25.18v-1.42l-1 1.001zm0 0l-23.68 23.689v.701l-.5.5v.709l25.18-25.18v-1.42l-1 1.001zm0 0l-23.68 23.689v.701l-.5.5v.709l25.18-25.18v-1.42l-1 1.001zm0 0l-23.68 23.689v.701l-.5.5v.709l25.18-25.18v-1.42l-1 1.001zm0 0l-23.68 23.689v.701l-.5.5v.709l25.18-25.18v-1.42l-1 1.001zm0 0l-23.68 23.689v.701l-.5.5v.709l25.18-25.18v-1.42l-1 1.001zm0 0l-23.68 23.689v.701l-.5.5v.709l25.18-25.18v-1.42l-1 1.001zm0 0l-23.68 23.689v.701l-.5.5v.709l25.18-25.18v-1.42l-1 1.001zm0 0l-23.68 23.689v.701l-.5.5v.709l25.18-25.18v-1.42l-1 1.001zm-49.36 84.25v.709l1-1v-.709l-1 1zm0 0v.709l1-1v-.709l-1 1zm0 0v.709l1-1v-.709l-1 1zm0 0v.709l1-1v-.709l-1 1zm132.521-221.71l-.5.5h-.711l-.5.5-2.67 23.67-1 1h1.42l-20-1 23.68-23.67 1-1h-.719zm0 0l-.5.5h-.711l-.5.5-2.67 23.67-1 1h1.42l-20-1 23.68-23.67 1-1h-.719zm0 0l-.5.5h-.711l-.5.5-2.67 23.67-1 1h1.42l-20-1 23.68-23.67 1-1h-.719zm0 0l-.5.5h-.711l-.5.5-2.67 23.67-1 1h1.42l-20-1 23.68-23.67 1-1h-.719zm0 0l-.5.5h-.711l-.5.5-2.67 23.67-.5.5h.709l-.488.5h.699l-20-1 23.68-23.67 1-1h-.719zm58.869-24.68l-25.68 25.68-23.66 23.67-25.68 25.681h1.41l25.68-25.681 23.67-23.67 25.68-25.68h-1.42zm-58.869 24.68l-.5.5h-.711l-.5.5-2.67 23.67-.5.5h.709l-.488.5h.699l-20-1 23.68-23.67 1-1h-.719zm0 0l-.5.5h-.711l-.5.5-2.67 23.67-1 1h1.42l-20-1 23.68-23.67 1-1h-.719zm0 0l-.5.5h-.711l-.5.5-2.67 23.67-1 1h1.42l-20-1 23.68-23.67 1-1h-.719zm0 0l-.5.5h-.711l-.5.5-2.67 23.67-1 1h1.42l-20-1 23.68-23.67 1-1h-.719zm0 0l-.5.5h-.711l-.5.5-2.67 23.67-1 1h1.42l-20-1 23.68-23.67 1-1h-.719zM4.385 376.445v.709l1-1v-.709l-1 1zm0 0v.709l1-1v-.709l-1 1zm0 0v.709l1-1v-.709l-1 1zm0 0v.709l1-1v-.709l-1 1zm116.46-172.359l-1 1h1.42l1-1h-1.42zm15.35-49.351l-1 1-2.67 23.67-1 1h1.42l-20-1 23.68-23.67 1-1h-1.43zm24.68-24.68l-1 1h1.42l1-1h-1.42zM4.385 376.445v.709l1-1v-.709l-1 1zm0 0v.709l1-1v-.709l-1 1zm74.02-108.92v1.42l1-1v-1.42l-1 1zm-74.02 74.02v1.42l1-1v-1.42l-1 1zm49.36-49.35l-23.68 23.689-1 1v1.41l25.68-25.68v-1.42l-1 1.001zm-49.36 84.25v.709l1-1v-.709l-1 1zm0 0v.709l1-1v-.709l-1 1zm0 0v.709l1-1v-.709l-1 1zm0 0v.709l1-1v-.709l-1 1zm0 0v.709l1-1v-.709l-1 1zm0 0v.709l1-1v-.709l-1 1zm0 0v.709l1-1v-.709l-1 1zm0 0v.709l1-1v-.709l-1 1zm0 0v.709l1-1v-.709l-1 1zm0 0v.709l1-1v-.709l-1 1zm116.46-172.359l-1 1h1.42l1-1h-1.42zm16.061-49.351l-.5.5h-.711l-.5.5-2.67 23.67-1 1h1.42l-20-1 23.68-23.67 1-1h-.719zm-58.501 112.79v1.42l1-1v-1.42l-1 1zm-24.66 24.67l-23.68 23.689v.701l-.5.5v.709l25.18-25.18v-1.42l-1 1.001zm67.1-88.109l-1 1h1.42l1-1h-1.42zm16.061-49.351l-.5.5h-.711l-.5.5-2.67 23.67-1 1h1.42l-20-1 23.68-23.67 1-1h-.719zm-58.501 112.79v1.42l1-1v-1.42l-1 1zm-24.66 24.67l-23.68 23.689v.701l-.5.5v.709l25.18-25.18v-1.42l-1 1.001zm170.29-265.39l-25.18 25.18-.49.5h-.709l25.68-25.68z"/><path d="M282.906 2.135l-75.031 75.03h-63.9l1-1h63.191l49.359-49.36 23.67-23.67h-34.189l1-1z"/><path d="M222.836 27.305l-.5.5h-.711l-23.68 23.68h.711l-.5.5h.699l24.68-24.68h-.699zm59.359-25.17l-1 1-23.67 23.67-50.359 50.36h1.42l1-1 23.68-23.68 50.35-50.35h-1.421zm-59.359 25.17l-.5.5h-.711l-23.68 23.68h.711l-.5.5h.699l24.68-24.68h-.699zm-14.67 48.86l-1 1h.709l1-1h-.709zm-63.9 0l-1 1h1.41l1-1h-1.41zm78.359-49.36l-25.68 25.68h1.42l.49-.5 25.18-25.18h-1.41zm24.67-24.67l-1 1h1.41l1-1h-1.41zm-39.129 74.03l-1 1h.709l1-1h-.709zm14.67-48.86l-.5.5h-.711l-23.68 23.68h.711l-.5.5h.699l24.68-24.68h-.699z"/></g></svg>