<?xml version="1.0" encoding="utf-8"?>
<!-- Generator: Adobe Illustrator 24.1.1, SVG Export Plug-In . SVG Version: 6.00 Build 0)  -->
<svg version="1.1" id="Layer_1" xmlns="http://www.w3.org/2000/svg" xmlns:xlink="http://www.w3.org/1999/xlink" x="0px" y="0px"
	 viewBox="0 0 1000 400" enable-background="new 0 0 1000 400" xml:space="preserve">
<g>
	<path fill="#ED1F24" d="M400.43,227.45v15.59h-64.99V159.1h63.43v15.59h-44.13v18.23h38.97v15.11h-38.97v19.43H400.43z"/>
	<path fill="#ED1F24" d="M414.58,154.07h18.71v88.97h-18.71V154.07z"/>
	<path fill="#FFFFFF" d="M505.35,174.69v22.18h38.85v15.59h-38.85v30.58h-19.43V159.1h63.43v15.59H505.35z"/>
	<path fill="#FFFFFF" d="M608.47,184.7c5.35,4.76,8.03,11.93,8.03,21.52v36.81h-17.51v-8.03c-3.52,6-10.07,8.99-19.67,8.99
		c-4.96,0-9.25-0.84-12.89-2.52c-3.64-1.68-6.42-4-8.33-6.96c-1.92-2.96-2.88-6.31-2.88-10.07c0-6,2.26-10.71,6.78-14.15
		c4.52-3.44,11.49-5.16,20.92-5.16h14.87c0-4.08-1.24-7.21-3.72-9.41c-2.48-2.2-6.2-3.3-11.15-3.3c-3.44,0-6.82,0.54-10.13,1.62
		c-3.32,1.08-6.14,2.54-8.45,4.38l-6.72-13.07c3.52-2.48,7.73-4.4,12.65-5.76c4.92-1.36,9.97-2.04,15.17-2.04
		C595.44,177.57,603.11,179.95,608.47,184.7z M592.52,229.19c2.48-1.48,4.24-3.66,5.28-6.54v-6.6h-12.83
		c-7.67,0-11.51,2.52-11.51,7.55c0,2.4,0.94,4.3,2.82,5.7c1.88,1.4,4.46,2.1,7.73,2.1C587.2,231.41,590.04,230.67,592.52,229.19z"/>
	<path fill="#FFFFFF" d="M696.24,178.53L667.1,247c-2.96,7.43-6.62,12.67-10.97,15.71c-4.36,3.04-9.61,4.56-15.77,4.56
		c-3.36,0-6.68-0.52-9.95-1.56c-3.28-1.04-5.96-2.48-8.03-4.32l6.83-13.31c1.44,1.28,3.1,2.28,4.98,3c1.88,0.72,3.74,1.08,5.58,1.08
		c2.56,0,4.64-0.62,6.24-1.86c1.6-1.24,3.04-3.3,4.32-6.18l0.24-0.6l-27.94-64.99h19.31l18.11,43.77l18.23-43.77H696.24z"/>
	<path fill="#FFFFFF" d="M764.95,216.06h-48.8c0.88,4,2.96,7.16,6.24,9.47c3.28,2.32,7.35,3.48,12.23,3.48c3.36,0,6.33-0.5,8.93-1.5
		c2.6-1,5.02-2.58,7.25-4.74l9.95,10.79c-6.08,6.96-14.95,10.43-26.62,10.43c-7.28,0-13.71-1.42-19.31-4.26
		c-5.6-2.84-9.91-6.77-12.95-11.81c-3.04-5.04-4.56-10.75-4.56-17.15c0-6.31,1.5-12.01,4.5-17.09c3-5.08,7.11-9.03,12.35-11.87
		c5.24-2.84,11.09-4.26,17.57-4.26c6.31,0,12.03,1.36,17.15,4.08c5.11,2.72,9.13,6.62,12.05,11.69c2.92,5.08,4.38,10.97,4.38,17.69
		C765.31,211.26,765.19,212.94,764.95,216.06z M721.18,195.32c-2.88,2.4-4.64,5.68-5.28,9.83h31.78c-0.64-4.08-2.4-7.33-5.28-9.77
		c-2.88-2.44-6.4-3.66-10.55-3.66C727.61,191.72,724.06,192.92,721.18,195.32z"/>
	<path fill="#FFFFFF" d="M830.3,228.65v14.39h-57.56v-11.27l32.86-38.85h-32.02v-14.39h55.64v11.27l-32.85,38.85H830.3z"/>
</g>
<g>
	<g>
		<polygon fill="#FFFFFF" points="174.94,79.29 174.94,96.82 330.67,96.82 331.02,96.46 175.65,96.46 175.65,79.64 371.64,79.64 
			354.82,96.46 354.47,96.82 355.47,96.82 373.01,79.29 		"/>
		<path fill="#FFFFFF" d="M192.47,96.46v0.36h0.36v0.36h136.99l0.36-0.36h0.5l0.36-0.36H192.47z M192.47,96.46v0.36h0.36v0.36
			h136.99l0.36-0.36h0.5l0.36-0.36H192.47z M192.47,96.46v0.36h0.36v0.36h136.99l0.36-0.36h0.5l0.36-0.36H192.47z M192.47,96.46
			v0.36h0.36v0.36h136.99l0.36-0.36h0.5l0.36-0.36H192.47z M192.47,96.46v0.36h0.36v0.36h136.99l0.36-0.36h0.5l0.36-0.36H192.47z
			 M192.47,96.46v0.36h0.36v0.36h136.99l0.36-0.36h0.5l0.36-0.36H192.47z M192.47,96.46v0.36h0.36v0.36h136.99l0.36-0.36h0.5
			l0.36-0.36H192.47z M192.47,96.46v0.36h0.36v0.36h136.99l0.36-0.36h0.5l0.36-0.36H192.47z M192.47,96.46v0.36h0.36v0.36h136.99
			l0.36-0.36h0.5l0.36-0.36H192.47z M192.47,96.46v0.36h0.36v0.36h136.99l0.36-0.36h0.5l0.36-0.36H192.47z M192.47,96.46v0.36h0.36
			v0.36h136.99l0.36-0.36h0.5l0.36-0.36H192.47z M192.47,96.46v0.36h0.36v0.36h136.99l0.36-0.36h0.5l0.36-0.36H192.47z
			 M175.65,96.46v0.36h155.02l0.36-0.36H175.65z M174.94,78.93v0.71h197.71l0.71-0.71H174.94z M192.47,96.46v0.36h0.36v0.36h136.99
			l0.36-0.36h0.5l0.36-0.36H192.47z M192.47,96.46v0.36h0.36v0.36h136.99l0.36-0.36h0.5l0.36-0.36H192.47z M192.47,96.46v0.36h0.36
			v0.36h136.99l0.36-0.36h0.5l0.36-0.36H192.47z M192.47,96.46v0.36h0.36v0.36h136.99l0.36-0.36h0.5l0.36-0.36H192.47z
			 M192.47,96.46v0.36h0.36v0.36h136.99l0.36-0.36h0.5l0.36-0.36H192.47z M192.47,96.46v0.36h0.36v0.36h136.99l0.36-0.36h0.5
			l0.36-0.36H192.47z M192.47,96.46v0.36h0.36v0.36h136.99l0.36-0.36h0.5l0.36-0.36H192.47z M192.47,96.46v0.36h0.36v0.36h136.99
			l0.36-0.36h0.5l0.36-0.36H192.47z M192.47,96.46v0.36h0.36v0.36h136.99l0.36-0.36h0.5l0.36-0.36H192.47z M192.47,96.46v0.36h0.36
			v0.36h136.99l0.36-0.36h0.5l0.36-0.36H192.47z M192.47,96.46v0.36h0.36v0.36h136.99l0.36-0.36h0.5l0.36-0.36H192.47z
			 M192.47,96.46v0.36h0.36v0.36h136.99l0.36-0.36h0.5l0.36-0.36H192.47z M354.82,96.46l-0.71,0.71h1.01l0.71-0.71H354.82z
			 M174.94,96.46v0.71h155.38l0.71-0.71H174.94z M192.47,96.46v0.36h0.36v0.36h136.99l0.36-0.36h0.5l0.36-0.36H192.47z"/>
		<polygon fill="#FFFFFF" points="313.13,114.36 312.78,114.71 175.65,114.71 175.65,131.89 174.94,131.89 174.94,114.36 		"/>
		<rect x="192.47" y="131.54" fill="#FFFFFF" width="18.25" height="0.36"/>
		<polygon fill="#FFFFFF" points="337.94,114.36 337.58,114.71 320.75,131.54 320.4,131.89 227.54,131.89 227.54,131.54 
			319.75,131.54 336.93,114.36 		"/>
		<path fill="#FFFFFF" d="M192.47,131.54v0.36h0.71v0.36h16.83v-0.36h0.36v-0.36H192.47z M192.47,131.89h0.36v-0.36h-0.36V131.89z
			 M174.94,114v0.71h137.85l0.35-0.36l0.36-0.36H174.94z M192.47,131.89h0.36v-0.36h-0.36V131.89z M337.28,114l-0.71,0.71h1.01
			l0.71-0.71H337.28z M192.47,131.54v0.36h0.71v0.36h16.83v-0.36h0.36v-0.36H192.47z M192.47,131.54v0.36h0.71v0.36h16.83v-0.36
			h0.36v-0.36H192.47z M312.63,114.36l0.36-0.36H210.01v0.71h102.77l0.35-0.36H312.63z M312.63,114.36l0.36-0.36H210.01v0.71h102.77
			l0.35-0.36H312.63z M312.63,114.36l0.36-0.36H210.01v0.71h102.77l0.35-0.36H312.63z M312.63,114.36l0.36-0.36H210.01v0.71h102.77
			l0.35-0.36H312.63z M312.63,114.36l0.36-0.36H210.01v0.71h102.77l0.35-0.36H312.63z M192.47,132.25h18.25v-0.71h-18.25V132.25z
			 M227.54,131.54v0.71h92.51l0.71-0.71H227.54z M174.94,132.25h0.71v-0.71h-0.71V132.25z M312.63,114.36l0.36-0.36H210.01v0.71
			h102.77l0.35-0.36H312.63z M312.63,114.36l0.36-0.36H210.01v0.71h102.77l0.35-0.36H312.63z M312.63,114.36l0.36-0.36H210.01v0.71
			h102.77l0.35-0.36H312.63z M312.63,114.36l0.36-0.36H210.01v0.71h102.77l0.35-0.36H312.63z M312.63,114.36l0.36-0.36H210.01v0.71
			h102.77l0.35-0.36H312.63z"/>
		<path fill="#FFFFFF" d="M265.8,205.61h0.5l-0.47-0.02L265.8,205.61z M252.08,204.9l13.74,0.69l0.33-0.33h-0.5l0.36-0.35H252.08z"
			/>
		<polygon fill="#FFFFFF" points="276.88,204.9 259.34,222.44 258.34,222.44 275.88,204.9 		"/>
		<rect x="174.94" y="170.54" fill="#FFFFFF" width="0.71" height="16.83"/>
		<rect x="192.47" y="170.54" fill="#FFFFFF" width="0.71" height="16.83"/>
		<rect x="210.01" y="170.54" fill="#FFFFFF" width="0.71" height="16.83"/>
		<polygon fill="#FFFFFF" points="310.23,170.54 292.69,188.08 275.88,204.9 258.34,222.44 192.47,222.44 192.47,303.6 
			210.72,285.35 210.72,232.27 227.54,232.27 227.54,292.32 210.37,309.49 210.01,309.85 192.47,327.39 175.65,344.21 
			175.65,222.44 174.94,222.44 174.94,205.61 266.29,205.61 252.08,204.9 268.91,188.08 269.62,187.37 210.72,187.37 210.72,141.37 
			227.54,141.37 227.54,170.54 		"/>
		<polygon fill="#FFFFFF" points="371.64,79.64 354.82,96.46 319.75,131.54 227.54,131.54 227.54,132.25 210.72,132.25 
			210.72,131.54 192.47,131.54 192.47,187.37 175.65,187.37 175.65,114.71 312.78,114.71 313.13,114.36 331.02,96.46 175.65,96.46 
			175.65,79.64 		"/>
		<polygon fill="#FFFFFF" points="269.11,187.37 268.75,187.73 268.25,187.73 267.89,188.08 268.91,188.08 269.62,187.37 		"/>
		<polygon fill="#FFFFFF" points="311.24,170.54 293.7,188.08 292.69,188.08 310.23,170.54 		"/>
		<rect x="174.94" y="187.37" fill="#FFFFFF" width="18.25" height="0.36"/>
		<polygon fill="#FFFFFF" points="210.01,187.37 210.01,187.73 268.75,187.73 269.11,187.37 		"/>
		<rect x="174.94" y="170.19" fill="#FFFFFF" width="0.71" height="0.36"/>
		<rect x="192.47" y="170.19" fill="#FFFFFF" width="0.71" height="0.36"/>
		<rect x="210.01" y="170.19" fill="#FFFFFF" width="0.71" height="0.36"/>
		<polygon fill="#FFFFFF" points="227.54,170.19 227.54,170.54 311.24,170.54 311.6,170.19 		"/>
		<path fill="#FFFFFF" d="M210.37,187.37v0.71h57.52l0.36-0.36h0.51l0.36-0.36H210.37z M310.59,170.19l-0.36,0.36h1.01l0.36-0.36
			H310.59z M310.59,170.19l-0.36,0.36h1.01l0.36-0.36H310.59z M310.59,170.19l-0.36,0.36h1.01l0.36-0.36H310.59z M310.59,170.19
			l-0.36,0.36h1.01l0.36-0.36H310.59z M310.59,170.19l-0.36,0.36h1.01l0.36-0.36H310.59z M210.01,187.37v0.71h57.88l0.36-0.36h0.51
			l0.36-0.36H210.01z M174.94,188.08h18.25v-0.71h-18.25V188.08z M310.59,170.19l-0.36,0.36h1.01l0.36-0.36H310.59z M310.59,170.19
			l-0.36,0.36h1.01l0.36-0.36H310.59z M310.59,170.19l-0.36,0.36h1.01l0.36-0.36H310.59z M310.59,170.19l-0.36,0.36h1.01l0.36-0.36
			H310.59z M310.59,170.19l-0.36,0.36h1.01l0.36-0.36H310.59z M210.37,187.37v0.71h57.52l0.36-0.36h0.51l0.36-0.36H210.37z
			 M210.37,187.37v0.71h57.52l0.36-0.36h0.51l0.36-0.36H210.37z M210.37,187.37v0.71h57.52l0.36-0.36h0.51l0.36-0.36H210.37z
			 M210.37,187.37v0.71h57.52l0.36-0.36h0.51l0.36-0.36H210.37z M210.01,187.37v0.71h57.88l0.36-0.36h0.51l0.36-0.36H210.01z
			 M174.94,170.54h0.71v-0.71h-0.71V170.54z M227.54,169.83v0.71h83.7l0.71-0.71H227.54z M210.01,170.54h0.71v-0.71h-0.71V170.54z
			 M192.47,170.54h0.71v-0.71h-0.71V170.54z M210.37,187.37v0.71h57.52l0.36-0.36h0.51l0.36-0.36H210.37z M210.37,187.37v0.71h57.52
			l0.36-0.36h0.51l0.36-0.36H210.37z M210.37,187.37v0.71h57.52l0.36-0.36h0.51l0.36-0.36H210.37z M210.37,187.37v0.71h57.52
			l0.36-0.36h0.51l0.36-0.36H210.37z M210.37,187.37v0.71h57.52l0.36-0.36h0.51l0.36-0.36H210.37z"/>
		<polygon fill="#FFFFFF" points="174.94,205.26 174.94,205.61 265.8,205.61 266.14,205.26 		"/>
		<rect x="174.94" y="222.44" fill="#FFFFFF" width="0.71" height="0.36"/>
		<polygon fill="#FFFFFF" points="192.47,222.44 192.47,222.8 258.99,222.8 259.34,222.44 		"/>
		<path fill="#FFFFFF" d="M227.89,222.44v0.36h29.45l0.36-0.36H227.89z M227.89,222.44v0.36h29.45l0.36-0.36H227.89z M210.72,222.44
			v0.36h-0.36v0.36h17.52v-0.36h29.45l0.36-0.36H210.72z M193.19,222.44v0.71h17.18v-0.36h0.36v-0.36H193.19z M193.19,223.15h34.35
			v-0.71h-34.35V223.15z M193.19,223.15h34.35v-0.71h-34.35V223.15z M265.64,205.26l0.36-0.36h-91.06v0.71h90.86l0.36-0.36H265.64z
			 M193.19,223.15h34.35v-0.71h-34.35V223.15z M192.83,222.44v0.36h0.36v0.36h34.35v-0.71H192.83z M227.54,222.44v0.36h29.8
			l0.36-0.36H227.54z M228.25,205.26v0.36h37.04l0.36-0.36H228.25z M227.89,204.9v0.36h-0.36v0.36h37.75l0.71-0.71H227.89z
			 M265.64,205.26l0.36-0.36h-38.1v0.36h-0.36v0.36h38.26l0.36-0.36H265.64z M265.64,205.26l-0.36,0.36h0.51l0.36-0.36H265.64z
			 M265.64,205.26l-0.36,0.36h0.51l0.35-0.36H265.64z M174.94,223.15h0.71v-0.71h-0.71V223.15z M192.47,222.44v0.71h66.16l0.71-0.71
			H192.47z M265.64,205.26l-0.36,0.36h0.51l0.35-0.36H265.64z M265.64,205.26l-0.36,0.36h0.51l0.36-0.36H265.64z M227.89,204.9v0.36
			h-0.36v0.36h37.75l0.71-0.71H227.89z M228.25,205.26v0.36h37.04l0.36-0.36H228.25z M228.25,205.26v0.36h37.04l0.36-0.36H228.25z
			 M227.89,222.44v0.36h29.45l0.36-0.36H227.89z M227.89,222.44v0.36h29.45l0.36-0.36H227.89z M227.89,222.44v0.36h29.45l0.36-0.36
			H227.89z"/>
		<polygon fill="#FFFFFF" points="192.47,327.39 192.83,327.04 192.83,328.04 192.47,328.4 175.65,345.22 175.29,345.58 
			175.29,222.44 175.65,222.44 175.65,344.21 		"/>
		<polygon fill="#FFFFFF" points="192.47,222.44 192.47,303.6 192.83,303.24 192.83,222.44 		"/>
		<rect x="175.29" y="204.9" fill="#FFFFFF" width="17.54" height="0.71"/>
		<path fill="#FFFFFF" d="M192.47,187.37h0.36v-55.48h-0.36V187.37z M175.29,114v74.08h17.54v-56.54h-0.36v55.83h-16.83v-72.66
			h17.18V114H175.29z"/>
		<polygon fill="#FFFFFF" points="192.82,78.93 192.82,79.64 175.65,79.64 175.65,96.46 192.82,96.46 192.82,97.17 175.29,97.17 
			175.29,78.93 		"/>
		<path fill="#FFFFFF" d="M192.47,97.17h0.36v-0.36h-0.36V97.17z M192.47,114.71h0.71V114h-0.71V114.71z M192.47,188.08h0.71v-56.54
			h-0.71V188.08z M192.47,205.61h0.71v-0.71h-0.71V205.61z M192.47,222.44v81.16l0.36-0.36v-0.5l0.36-0.36v-79.94H192.47z
			 M192.47,97.17h0.36v-0.36h-0.36V97.17z M192.47,114.71h0.71V114h-0.71V114.71z M192.47,188.08h0.71v-56.54h-0.71V188.08z
			 M192.47,205.61h0.71v-0.71h-0.71V205.61z M192.47,222.44v81.16l0.36-0.36v-0.5l0.36-0.36v-79.94H192.47z M175.29,79.64h0.36
			v-0.71h-0.36V79.64z M175.29,79.64h0.36v-0.71h-0.36V79.64z M192.47,114.71h0.71V114h-0.71V114.71z M192.47,188.08h0.71v-56.54
			h-0.71V188.08z M192.47,205.61h0.71v-0.71h-0.71V205.61z M192.47,327.39v1.01l0.71-0.71v-1.01L192.47,327.39z M192.47,222.44
			v81.16l0.71-0.71v-80.45H192.47z M192.47,79.64h0.71v-0.71h-0.71V79.64z M192.47,97.17h0.71v-0.71h-0.71V97.17z M175.29,79.64
			h0.36v-0.71h-0.36V79.64z M175.29,79.64h0.36v-0.71h-0.36V79.64z M192.47,97.17h0.36v-0.36h-0.36V97.17z M192.47,114.71h0.71V114
			h-0.71V114.71z M192.47,188.08h0.71v-56.54h-0.71V188.08z M192.47,205.61h0.71v-0.71h-0.71V205.61z M192.47,222.44v81.16
			l0.36-0.36v-0.5l0.36-0.36v-79.94H192.47z M192.47,97.17h0.36v-0.36h-0.36V97.17z M192.47,97.17h0.35v-0.36h-0.35V97.17z
			 M192.47,97.17h0.35v-0.71h-0.35V97.17z M192.47,97.17h0.35v-0.71h-0.35V97.17z M192.47,97.17h0.35v-0.71h-0.35V97.17z
			 M192.47,97.17h0.35v-0.71h-0.35V97.17z M174.94,97.17h0.71V78.93h-0.71V97.17z M192.47,97.17h0.35v-0.71h-0.35V97.17z
			 M192.47,97.17h0.35v-0.71h-0.35V97.17z M192.47,97.17h0.35v-0.71h-0.35V97.17z M192.47,97.17h0.35v-0.71h-0.35V97.17z
			 M192.47,97.17h0.36v-0.36h-0.36V97.17z M192.47,97.17h0.36v-0.36h-0.36V97.17z M192.83,131.89v-0.36h-0.36v56.54h0.71v-56.19
			H192.83z M192.47,205.61h0.71v-0.71h-0.71V205.61z M192.47,222.44v81.16l0.36-0.36v-0.5l0.36-0.36v-79.94H192.47z M192.47,222.44
			v81.16l0.36-0.36v-0.5l0.36-0.36v-79.94H192.47z M192.47,222.44v81.16l0.36-0.36v-0.5l0.36-0.36v-79.94H192.47z M192.47,222.44
			v81.16l0.36-0.36v-0.5l0.36-0.36v-79.94H192.47z M192.47,222.44v81.16l0.36-0.36v-0.5l0.36-0.36v-79.94H192.47z M192.47,222.44
			v81.16l0.36-0.36v-0.5l0.36-0.36v-79.94H192.47z M192.47,222.8v80.8l0.36-0.36v-0.5l0.36-0.36V222.8H192.47z M174.94,222.44
			v123.49l0.71-0.71V222.44H174.94z M192.47,222.8v80.8l0.36-0.36v-0.5l0.36-0.36V222.8H192.47z M174.94,205.61h0.71v-0.71h-0.71
			V205.61z M192.47,222.44v81.16l0.36-0.36v-0.5l0.36-0.36v-79.94H192.47z M192.47,222.44v81.16l0.36-0.36v-0.5l0.36-0.36v-79.94
			H192.47z M192.47,222.44v81.16l0.36-0.36v-0.5l0.36-0.36v-79.94H192.47z M192.47,222.44v81.16l0.36-0.36v-0.5l0.36-0.36v-79.94
			H192.47z M192.47,222.44v81.16l0.36-0.36v-0.5l0.36-0.36v-79.94H192.47z M192.47,131.89v56.19h0.36v-0.71h0.36v-55.48H192.47z
			 M192.47,188.08h0.36v-0.71h-0.36V188.08z M192.47,188.08h0.36v-0.71h-0.36V188.08z M192.47,188.08h0.36v-0.71h-0.36V188.08z
			 M192.47,188.08h0.36v-0.71h-0.36V188.08z M192.47,188.08h0.36v-0.71h-0.36V188.08z M174.94,188.08h0.71V114h-0.71V188.08z
			 M192.47,188.08h0.36v-0.71h-0.36V188.08z M192.47,188.08h0.36v-0.71h-0.36V188.08z M192.47,188.08h0.36v-0.71h-0.36V188.08z
			 M192.47,188.08h0.36v-0.71h-0.36V188.08z M192.47,131.89v56.19h0.36v-17.54h0.36v-38.65H192.47z M192.83,131.89v-0.36h-0.36
			v56.54h0.36v-0.71h0.36v-55.48H192.83z M192.47,97.17h0.36v-0.36h-0.36V97.17z M192.47,114.71h0.71V114h-0.71V114.71z
			 M192.47,188.08h0.71v-56.54h-0.71V188.08z M192.47,205.61h0.71v-0.71h-0.71V205.61z M192.47,222.44v81.16l0.36-0.36v-0.5
			l0.36-0.36v-79.94H192.47z M192.47,97.17h0.36v-0.36h-0.36V97.17z M192.47,114.71h0.71V114h-0.71V114.71z M192.47,188.08h0.71
			v-56.54h-0.71V188.08z M192.47,205.61h0.71v-0.71h-0.71V205.61z M192.47,222.44v81.16l0.36-0.36v-0.5l0.36-0.36v-79.94H192.47z
			 M192.47,97.17h0.36v-0.36h-0.36V97.17z M192.47,114.71h0.71V114h-0.71V114.71z M192.47,188.08h0.71v-56.54h-0.71V188.08z
			 M192.47,205.61h0.71v-0.71h-0.71V205.61z M192.47,222.44v81.16l0.36-0.36v-0.5l0.36-0.36v-79.94H192.47z"/>
		<polygon fill="#FFFFFF" points="210.37,232.27 210.37,285.71 210.72,285.35 210.72,232.27 		"/>
		<rect x="210.37" y="222.44" fill="#FFFFFF" width="17.52" height="0.71"/>
		<polygon fill="#FFFFFF" points="227.54,232.27 227.89,232.27 227.89,292.98 227.54,293.33 210.72,310.15 210.37,310.51 
			210.37,309.49 227.54,292.32 		"/>
		<rect x="210.37" y="204.9" fill="#FFFFFF" width="17.52" height="0.71"/>
		<rect x="210.37" y="131.54" fill="#FFFFFF" width="0.36" height="0.71"/>
		<polygon fill="#FFFFFF" points="227.89,187.37 227.89,188.08 210.37,188.08 210.37,141.37 210.72,141.37 210.72,187.37 		"/>
		<rect x="227.54" y="131.54" fill="#FFFFFF" width="0.36" height="0.71"/>
		<rect x="227.54" y="141.37" fill="#FFFFFF" width="0.36" height="29.17"/>
		<rect x="210.37" y="114" fill="#FFFFFF" width="17.52" height="0.71"/>
		<rect x="210.36" y="96.46" fill="#FFFFFF" width="17.53" height="0.71"/>
		<rect x="210.36" y="78.93" fill="#FFFFFF" width="17.53" height="0.71"/>
		<path fill="#FFFFFF" d="M210.37,223.15h0.36v-0.36h-0.36V223.15z M210.37,232.27v52.43l0.36-0.36v-52.07H210.37z M210.37,232.27
			v52.43l0.36-0.36v-52.07H210.37z M210.37,232.27v52.43l0.36-0.36v-52.07H210.37z M210.37,232.27v52.43l0.36-0.36v-52.07H210.37z
			 M210.37,232.27v52.43l0.36-0.36v-52.07H210.37z M210.37,232.27v52.43l0.36-0.36v-52.07H210.37z M227.54,223.15h0.36v-0.71h-0.36
			V223.15z M227.54,232.27v35.25l0.36-0.36v-34.9H227.54z M210.37,232.27v52.43l0.36-0.36v-52.07H210.37z M210.37,232.27v52.43
			l0.36-0.36v-52.07H210.37z M210.37,232.27v52.43l0.36-0.36v-52.07H210.37z M210.37,232.27v52.43l0.36-0.36v-52.07H210.37z
			 M210.37,114.71h0.36v-0.36h-0.36V114.71z M210.01,132.25h0.71v-0.71h-0.71V132.25z M210.01,141.37v46h0.36v0.36h0.36v-46.35
			H210.01z M210.37,223.15h0.36v-0.36h-0.36V223.15z M210.37,232.27v52.43l0.36-0.36v-52.07H210.37z M210.37,232.27v52.43l0.36-0.36
			v-52.07H210.37z M210.37,232.27v52.43l0.36-0.36v-52.07H210.37z M210.37,232.27v52.43l0.36-0.36v-52.07H210.37z M210.37,232.27
			v52.43l0.36-0.36v-52.07H210.37z M210.37,232.27v52.43l0.36-0.36v-52.07H210.37z M227.54,223.15h0.36v-0.71h-0.36V223.15z
			 M227.54,232.27v35.25l0.36-0.36v-34.9H227.54z M210.37,232.27v52.43l0.36-0.36v-52.07H210.37z M210.37,232.27v52.43l0.36-0.36
			v-52.07H210.37z M210.37,232.27v52.43l0.36-0.36v-52.07H210.37z M210.37,232.27v52.43l0.36-0.36v-52.07H210.37z M210.37,114.71
			h0.36v-0.36h-0.36V114.71z M210.01,132.25h0.71v-0.71h-0.71V132.25z M210.01,141.37v46h0.36v0.36h0.36v-46.35H210.01z
			 M210.37,223.15h0.36v-0.36h-0.36V223.15z M210.37,232.27v52.43l0.36-0.36v-52.07H210.37z M210.37,232.27v52.43l0.36-0.36v-52.07
			H210.37z M210.37,232.27v52.43l0.36-0.36v-52.07H210.37z M210.37,232.27v52.43l0.36-0.36v-52.07H210.37z M210.37,232.27v52.43
			l0.36-0.36v-52.07H210.37z M210.37,232.27v52.43l0.36-0.36v-52.07H210.37z M227.54,223.15h0.36v-0.71h-0.36V223.15z
			 M227.54,232.27v35.25l0.36-0.36v-34.9H227.54z M210.37,232.27v52.43l0.36-0.36v-52.07H210.37z M210.37,232.27v52.43l0.36-0.36
			v-52.07H210.37z M210.37,232.27v52.43l0.36-0.36v-52.07H210.37z M210.37,232.27v52.43l0.36-0.36v-52.07H210.37z M210.37,114.71
			h0.36v-0.36h-0.36V114.71z M210.01,132.25h0.71v-0.71h-0.71V132.25z M210.01,141.37v46h0.36v0.36h0.36v-46.35H210.01z
			 M210.01,114.71h0.71V114h-0.71V114.71z M210.01,132.25h0.71v-0.71h-0.71V132.25z M210.01,141.37v46h0.36v0.71h0.36v-46.71H210.01
			z M227.54,79.64h0.71v-0.71h-0.71V79.64z M227.54,97.17h0.71v-0.71h-0.71V97.17z M210.37,223.15h0.36v-0.36h-0.36V223.15z
			 M210.37,232.27v52.43l0.36-0.36v-52.07H210.37z M210.37,131.54v0.36h-0.36v0.36h0.71v-0.71H210.37z M210.01,141.37v46h0.36v0.71
			h0.36v-46.71H210.01z M210.37,232.27v52.93l0.36-0.35v-52.58H210.37z M210.37,232.27v52.93l0.36-0.35v-52.58H210.37z
			 M210.37,232.27v52.93l0.36-0.35v-52.58H210.37z M210.37,232.27v52.93l0.36-0.35v-52.58H210.37z M227.54,205.61h0.71v-0.71h-0.71
			V205.61z M210.37,232.27v52.93l0.36-0.35v-52.58H210.37z M227.54,232.27v61.06l0.71-0.71v-60.35H227.54z M227.54,223.15h0.71
			v-0.71h-0.71V223.15z M210.37,232.27v52.93l0.36-0.35v-52.58H210.37z M210.37,232.27v52.93l0.36-0.35v-52.58H210.37z
			 M210.37,232.27v52.93l0.36-0.35v-52.58H210.37z M210.37,232.27v52.93l0.36-0.35v-52.58H210.37z M210.37,131.54v0.36h-0.36v0.36
			h0.71v-0.71H210.37z M210.01,141.37v29.17h0.36v16.83h0.36v-46H210.01z M227.54,114.71h0.71V114h-0.71V114.71z M227.54,132.25
			h0.71v-0.71h-0.71V132.25z M227.54,170.54h0.71v-29.17h-0.71V170.54z M227.54,188.08h0.71v-0.71h-0.71V188.08z M210.37,131.54
			v0.36h-0.36v0.36h0.71v-0.71H210.37z M210.01,141.37v29.17h0.36v16.83h0.36v-46H210.01z M210.01,114.71h0.71V114h-0.71V114.71z
			 M210.01,132.25h0.71v-0.71h-0.71V132.25z M210.01,141.37v46h0.36v0.71h0.36v-46.71H210.01z M227.54,205.26h0.36v-0.36h-0.36
			V205.26z M227.54,292.32v1.01l0.36-0.36v-1.01L227.54,292.32z M210.01,114.71h0.71V114h-0.71V114.71z M210.01,132.25h0.71v-0.71
			h-0.71V132.25z M210.01,188.08h0.71v-46.71h-0.71V188.08z M227.54,292.32v1.01l0.36-0.36v-1.01L227.54,292.32z M210.01,205.61
			h0.71v-0.71h-0.71V205.61z M210.37,309.49l-0.36,0.36v1.01l0.71-0.71v-1.02L210.37,309.49z M210.01,232.27v53.79l0.71-0.71v-53.08
			H210.01z M210.01,223.15h0.71v-0.71h-0.71V223.15z M227.54,292.32v1.01l0.36-0.36v-1.01L227.54,292.32z M227.54,205.26h0.36v-0.36
			h-0.36V205.26z M210.01,79.64h0.71v-0.71h-0.71V79.64z M210.01,97.17h0.71v-0.71h-0.71V97.17z M227.54,292.32v1.01l0.36-0.36
			v-1.01L227.54,292.32z M227.54,205.26h0.36v-0.36h-0.36V205.26z M210.37,114.71h0.36v-0.36h-0.36V114.71z M210.01,132.25h0.71
			v-0.71h-0.71V132.25z M210.01,141.37v46h0.36v0.71h0.36v-46.71H210.01z M210.37,223.15h0.36v-0.36h-0.36V223.15z M210.37,232.27
			v52.43l0.36-0.36v-52.07H210.37z M210.37,232.27v52.43l0.36-0.36v-52.07H210.37z M210.37,232.27v52.43l0.36-0.36v-52.07H210.37z
			 M210.37,232.27v52.43l0.36-0.36v-52.07H210.37z M210.37,232.27v52.43l0.36-0.36v-52.07H210.37z M210.37,232.27v52.43l0.36-0.36
			v-52.07H210.37z M227.54,223.15h0.36v-0.71h-0.36V223.15z M227.54,232.27v35.25l0.36-0.36v-34.9H227.54z M210.37,232.27v52.43
			l0.36-0.36v-52.07H210.37z M210.37,232.27v52.43l0.36-0.36v-52.07H210.37z M210.37,232.27v52.43l0.36-0.36v-52.07H210.37z
			 M210.37,232.27v52.43l0.36-0.36v-52.07H210.37z M210.37,114.71h0.36v-0.36h-0.36V114.71z M210.01,132.25h0.71v-0.71h-0.71V132.25
			z M210.01,141.37v46h0.36v0.36h0.36v-46.35H210.01z M210.37,223.15h0.36v-0.36h-0.36V223.15z M210.37,232.27v52.43l0.36-0.36
			v-52.07H210.37z M210.37,232.27v52.43l0.36-0.36v-52.07H210.37z M210.37,232.27v52.43l0.36-0.36v-52.07H210.37z M210.37,232.27
			v52.43l0.36-0.36v-52.07H210.37z M210.37,232.27v52.43l0.36-0.36v-52.07H210.37z M210.37,232.27v52.43l0.36-0.36v-52.07H210.37z
			 M227.54,223.15h0.36v-0.71h-0.36V223.15z M227.54,232.27v35.25l0.36-0.36v-34.9H227.54z M210.37,232.27v52.43l0.36-0.36v-52.07
			H210.37z M210.37,232.27v52.43l0.36-0.36v-52.07H210.37z M210.37,232.27v52.43l0.36-0.36v-52.07H210.37z M210.37,232.27v52.43
			l0.36-0.36v-52.07H210.37z M210.37,114.71h0.36v-0.36h-0.36V114.71z M210.01,132.25h0.71v-0.71h-0.71V132.25z M210.01,141.37v46
			h0.36v0.36h0.36v-46.35H210.01z M210.37,223.15h0.36v-0.36h-0.36V223.15z M210.37,232.27v52.43l0.36-0.36v-52.07H210.37z
			 M210.37,232.27v52.43l0.36-0.36v-52.07H210.37z M210.37,232.27v52.43l0.36-0.36v-52.07H210.37z M210.37,232.27v52.43l0.36-0.36
			v-52.07H210.37z M210.37,232.27v52.43l0.36-0.36v-52.07H210.37z M210.37,232.27v52.43l0.36-0.36v-52.07H210.37z M227.54,223.15
			h0.36v-0.71h-0.36V223.15z M227.54,232.27v35.25l0.36-0.36v-34.9H227.54z M210.37,232.27v52.43l0.36-0.36v-52.07H210.37z
			 M210.37,232.27v52.43l0.36-0.36v-52.07H210.37z M210.37,232.27v52.43l0.36-0.36v-52.07H210.37z M210.37,232.27v52.43l0.36-0.36
			v-52.07H210.37z M210.37,114.71h0.36v-0.36h-0.36V114.71z M210.01,132.25h0.71v-0.71h-0.71V132.25z M210.01,141.37v46h0.36v0.36
			h0.36v-46.35H210.01z"/>
		<path fill="#FFFFFF" d="M269.11,187.37l-17.53,17.53l14.58,0.36h-0.01l-0.35,0.36h0.5l-14.21-0.71l16.83-16.82l0.71-0.71H269.11z
			 M286.65,169.83l-0.71,0.71h24.3l-17.54,17.54l-16.81,16.82l-17.54,17.54h-0.14l-0.71,0.71h0.64l53.32-53.32H286.65z
			 M210.37,285.19l-0.36,0.36l-16.83,16.83l-0.71,0.71v0.5l18.25-18.25v-0.5L210.37,285.19z M227.54,268.03v24.3l-17.17,17.17
			l-0.36,0.36l-17.54,17.54l-16.83,16.82v-24.29l-0.71,0.71v24.79l53.31-53.31v-24.8L227.54,268.03z"/>
		<path fill="#FFFFFF" d="M257.69,222.44l-0.71,0.71h1.01l0.71-0.71H257.69z M269.11,187.37l-0.36,0.36h-0.51l-0.36,0.36l-1.9,16.82
			l-0.71,0.71h1.01l-14.21-0.71l16.83-16.82l0.71-0.71H269.11z M227.54,267.52v1.01l0.71-0.71v-1.01L227.54,267.52z M210.01,285.05
			l-16.83,16.83v0.5l-0.36,0.36v0.5l17.89-17.89v-1.01L210.01,285.05z M257.69,222.44l-0.71,0.71h1.01l0.71-0.71H257.69z
			 M269.11,187.37l-0.36,0.36h-0.51l-0.36,0.36l-1.9,16.82l-0.71,0.71h1.01l-14.21-0.71l16.83-16.82l0.71-0.71H269.11z
			 M227.54,267.52v1.01l0.71-0.71v-1.01L227.54,267.52z M210.01,285.05l-16.83,16.83v0.5l-0.36,0.36v0.5l17.89-17.89v-1.01
			L210.01,285.05z M210.01,285.05l-16.83,16.83v0.5l-0.36,0.36v0.5l17.89-17.89v-1.01L210.01,285.05z M210.01,285.05l-16.83,16.83
			v0.5l-0.36,0.36v0.5l17.89-17.89v-1.01L210.01,285.05z M210.01,285.05l-16.83,16.83v0.5l-0.36,0.36v0.5l17.89-17.89v-1.01
			L210.01,285.05z M210.01,285.05l-16.83,16.83v0.5l-0.36,0.36v0.5l17.89-17.89v-1.01L210.01,285.05z M210.01,285.05l-16.83,16.83
			v0.5l-0.36,0.36v0.5l17.89-17.89v-1.01L210.01,285.05z M210.01,285.05l-16.83,16.83v0.5l-0.36,0.36v0.5l17.89-17.89v-1.01
			L210.01,285.05z M210.01,285.05l-16.83,16.83v0.5l-0.36,0.36v0.5l17.89-17.89v-1.01L210.01,285.05z M210.01,285.05l-16.83,16.83
			v0.5l-0.36,0.36v0.5l17.89-17.89v-1.01L210.01,285.05z M210.01,285.05l-16.83,16.83v0.5l-0.36,0.36v0.5l17.89-17.89v-1.01
			L210.01,285.05z M210.01,285.05l-16.83,16.83v0.5l-0.36,0.36v0.5l17.89-17.89v-1.01L210.01,285.05z M210.37,285.19v-0.5
			l-0.36,0.36l-16.83,16.83v0.5l-0.36,0.36v0.5l17.89-17.89v-0.5L210.37,285.19z M210.37,285.19v-0.5l-0.36,0.36l-16.83,16.83v0.5
			l-0.36,0.36v0.5l17.89-17.89v-0.5L210.37,285.19z M210.01,285.05l-16.83,16.83v0.5l-0.36,0.36v0.5l17.89-17.89v-1.01
			L210.01,285.05z M210.37,309.49l-0.36,0.36l-17.54,17.54l-16.83,16.82l-0.71,0.71v1.01l0.71-0.71l16.83-16.82l18.25-18.25
			l16.81-16.82l0.71-0.71v-1.01L210.37,309.49z M210.37,285.19v-0.5l-0.36,0.36l-16.83,16.83v0.5l-0.36,0.36v0.5l17.89-17.89v-0.5
			L210.37,285.19z M210.37,285.19v-0.5l-0.36,0.36l-16.83,16.83v0.5l-0.36,0.36v0.5l17.89-17.89v-0.5L210.37,285.19z M210.37,285.19
			v-0.5l-0.36,0.36l-16.83,16.83v0.5l-0.36,0.36v0.5l17.89-17.89v-0.5L210.37,285.19z M210.01,285.05l-16.83,16.83v0.5l-0.36,0.36
			v0.5l17.89-17.89v-1.01L210.01,285.05z M210.01,285.05l-16.83,16.83v0.5l-0.36,0.36v0.5l17.89-17.89v-1.01L210.01,285.05z
			 M210.01,285.05l-16.83,16.83v0.5l-0.36,0.36v0.5l17.89-17.89v-1.01L210.01,285.05z M210.01,285.05l-16.83,16.83v0.5l-0.36,0.36
			v0.5l17.89-17.89v-1.01L210.01,285.05z M210.01,285.05l-16.83,16.83v0.5l-0.36,0.36v0.5l17.89-17.89v-1.01L210.01,285.05z
			 M210.01,285.05l-16.83,16.83v0.5l-0.36,0.36v0.5l17.89-17.89v-1.01L210.01,285.05z M210.01,285.05l-16.83,16.83v0.5l-0.36,0.36
			v0.5l17.89-17.89v-1.01L210.01,285.05z M210.01,285.05l-16.83,16.83v0.5l-0.36,0.36v0.5l17.89-17.89v-1.01L210.01,285.05z
			 M210.01,285.05l-16.83,16.83v0.5l-0.36,0.36v0.5l17.89-17.89v-1.01L210.01,285.05z M210.01,285.05l-16.83,16.83v0.5l-0.36,0.36
			v0.5l17.89-17.89v-1.01L210.01,285.05z M174.94,344.92v0.5l0.71-0.71v-0.5L174.94,344.92z M174.94,344.92v0.5l0.71-0.71v-0.5
			L174.94,344.92z M174.94,344.92v0.5l0.71-0.71v-0.5L174.94,344.92z M174.94,344.92v0.5l0.71-0.71v-0.5L174.94,344.92z
			 M269.11,187.37l-0.36,0.36h-0.51l-0.36,0.36l-1.9,16.82l-0.71,0.71h1.01l-14.21-0.71l16.83-16.82l0.71-0.71H269.11z
			 M269.11,187.37l-0.36,0.36h-0.51l-0.36,0.36l-1.9,16.82l-0.71,0.71h1.01l-14.21-0.71l16.83-16.82l0.71-0.71H269.11z
			 M269.11,187.37l-0.36,0.36h-0.51l-0.36,0.36l-1.9,16.82l-0.71,0.71h1.01l-14.21-0.71l16.83-16.82l0.71-0.71H269.11z
			 M269.11,187.37l-0.36,0.36h-0.51l-0.36,0.36l-1.9,16.82l-0.71,0.71h1.01l-14.21-0.71l16.83-16.82l0.71-0.71H269.11z
			 M269.11,187.37l-0.36,0.36h-0.51l-0.36,0.36l-1.9,16.82l-0.36,0.36h0.5l-0.35,0.36h0.5l-14.21-0.71l16.83-16.82l0.71-0.71H269.11
			z M310.94,169.83l-18.25,18.25l-16.81,16.82l-18.25,18.25h1l18.25-18.25l16.82-16.82l18.25-18.25H310.94z M269.11,187.37
			l-0.36,0.36h-0.51l-0.36,0.36l-1.9,16.82l-0.36,0.36h0.5l-0.35,0.36h0.5l-14.21-0.71l16.83-16.82l0.71-0.71H269.11z
			 M269.11,187.37l-0.36,0.36h-0.51l-0.36,0.36l-1.9,16.82l-0.71,0.71h1.01l-14.21-0.71l16.83-16.82l0.71-0.71H269.11z
			 M269.11,187.37l-0.36,0.36h-0.51l-0.36,0.36l-1.9,16.82l-0.71,0.71h1.01l-14.21-0.71l16.83-16.82l0.71-0.71H269.11z
			 M269.11,187.37l-0.36,0.36h-0.51l-0.36,0.36l-1.9,16.82l-0.71,0.71h1.01l-14.21-0.71l16.83-16.82l0.71-0.71H269.11z
			 M269.11,187.37l-0.36,0.36h-0.51l-0.36,0.36l-1.9,16.82l-0.71,0.71h1.01l-14.21-0.71l16.83-16.82l0.71-0.71H269.11z
			 M174.94,344.92v0.5l0.71-0.71v-0.5L174.94,344.92z M174.94,344.92v0.5l0.71-0.71v-0.5L174.94,344.92z M174.94,344.92v0.5
			l0.71-0.71v-0.5L174.94,344.92z M174.94,344.92v0.5l0.71-0.71v-0.5L174.94,344.92z M257.69,222.44l-0.71,0.71h1.01l0.71-0.71
			H257.69z M268.6,187.37l-0.71,0.71l-1.9,16.82l-0.71,0.71h1.01l-14.21-0.71l16.83-16.82l0.71-0.71H268.6z M286.14,169.83
			l-0.71,0.71h1.01l0.71-0.71H286.14z M174.94,344.92v0.5l0.71-0.71v-0.5L174.94,344.92z M174.94,344.92v0.5l0.71-0.71v-0.5
			L174.94,344.92z M227.54,267.52v1.01l0.71-0.71v-1.01L227.54,267.52z M174.94,320.12v1.01l0.71-0.71v-1.01L174.94,320.12z
			 M210.01,285.05l-16.83,16.83l-0.71,0.71v1l18.25-18.25v-1.01L210.01,285.05z M174.94,344.92v0.5l0.71-0.71v-0.5L174.94,344.92z
			 M174.94,344.92v0.5l0.71-0.71v-0.5L174.94,344.92z M174.94,344.92v0.5l0.71-0.71v-0.5L174.94,344.92z M174.94,344.92v0.5
			l0.71-0.71v-0.5L174.94,344.92z M174.94,344.92v0.5l0.71-0.71v-0.5L174.94,344.92z M174.94,344.92v0.5l0.71-0.71v-0.5
			L174.94,344.92z M174.94,344.92v0.5l0.71-0.71v-0.5L174.94,344.92z M174.94,344.92v0.5l0.71-0.71v-0.5L174.94,344.92z
			 M174.94,344.92v0.5l0.71-0.71v-0.5L174.94,344.92z M174.94,344.92v0.5l0.71-0.71v-0.5L174.94,344.92z M257.69,222.44l-0.71,0.71
			h1.01l0.71-0.71H257.69z M269.11,187.37l-0.36,0.36h-0.51l-0.36,0.36l-1.9,16.82l-0.71,0.71h1.01l-14.21-0.71l16.83-16.82
			l0.71-0.71H269.11z M227.54,267.52v1.01l0.71-0.71v-1.01L227.54,267.52z M210.01,285.05l-16.83,16.83v0.5l-0.36,0.36v0.5
			l17.89-17.89v-1.01L210.01,285.05z M257.69,222.44l-0.71,0.71h1.01l0.71-0.71H257.69z M269.11,187.37l-0.36,0.36h-0.51l-0.36,0.36
			l-1.9,16.82l-0.71,0.71h1.01l-14.21-0.71l16.83-16.82l0.71-0.71H269.11z M227.54,267.52v1.01l0.71-0.71v-1.01L227.54,267.52z
			 M210.01,285.05l-16.83,16.83v0.5l-0.36,0.36v0.5l17.89-17.89v-1.01L210.01,285.05z"/>
		<polygon fill="#FFFFFF" points="331.02,96.46 313.13,114.36 312.78,114.71 312.28,114.71 330.53,96.46 		"/>
		<polygon fill="#FFFFFF" points="372.86,78.93 319.54,132.25 274.13,132.25 274.84,131.54 319.75,131.54 354.82,96.46 
			371.64,79.64 347.35,79.64 348.06,78.93 		"/>
		<path fill="#FFFFFF" d="M330.17,96.82l-0.36,0.36h-0.5L312.48,114h0.51l-0.36,0.36h0.5l17.54-17.54H330.17z M372.35,78.93
			l-0.71,0.71l-16.82,16.82l-35.79,35.79h1.01l0.71-0.71l16.83-16.83l35.78-35.78H372.35z M330.17,96.82l-0.36,0.36h-0.5L312.48,114
			h0.51l-0.36,0.36h0.5l17.54-17.54H330.17z M319.75,131.54l-0.71,0.71h0.5l0.71-0.71H319.75z M274.34,131.54l-0.71,0.71h1
			l0.71-0.71H274.34z M330.02,96.46l-18.25,18.25h1.01l0.35-0.36l17.89-17.89H330.02z M347.55,78.93l-0.71,0.71h1l0.71-0.71H347.55z
			 M319.75,131.54l-0.71,0.71h0.5l0.71-0.71H319.75z M330.17,96.82l-0.36,0.36h-0.5L312.48,114h0.51l-0.36,0.36h0.5l17.54-17.54
			H330.17z"/>
	</g>
	<g>
		<g>
			<path fill="#D2202B" d="M239.48,64.71c0,0-34.29-41.72-43.91-43.39c-6.19-1.07-42.66,2.48-48.07,6.76
				c-5.41,4.28-10.97,26.27-19.11,28.82c-18.15,5.67-16.37,32.82-16.37,32.82l5.78,4.82c0,0,8.26-17.16,20.84-20.22
				c8.64-2.1,14.32-11.29,14.32-11.29c0.68,6.16,6.55,28.8,15.98,41.15L239.48,64.71z"/>
			<g>
				<path fill="#991C1F" d="M153.25,48.4c-0.68,4.66-0.92,9.4-0.71,14.13c0.25,4.73,0.95,9.44,2.09,14.06
					c1.15,4.6,2.59,9.19,4.77,13.43c2.16,4.24,4.76,8.26,7.88,11.83l0.16-0.11c-2.22-4.18-4.38-8.31-6.26-12.56
					c-1.86-4.25-3.73-8.52-5.02-12.99c-1.31-4.47-2.2-9.07-2.63-13.72c-0.47-4.65-0.5-9.36-0.08-14.04L153.25,48.4z"/>
				<path fill="#991C1F" d="M148.57,55.41c0.16,0.78,0.39,1.54,0.64,2.29c0.26,0.75,0.57,1.49,0.91,2.21
					c0.34,0.72,0.62,1.49,1.16,2.1c0.53,0.61,1.13,1.17,1.91,1.54l0.1-0.09c-0.22-0.83-0.57-1.52-0.93-2.2
					c-0.35-0.68-0.9-1.23-1.33-1.88c-0.43-0.64-0.84-1.3-1.23-1.97c-0.4-0.67-0.76-1.36-1.11-2.06L148.57,55.41z"/>
				<path opacity="0.2" fill="#D2202B" d="M120.18,76.63c2.36-2.87,5.86-4.2,8.94-6.11c4.18-2.6,7.99-5.84,10.23-10.3
					c2.23-4.42,1.93-8.74,2.57-13.46c0.33-2.44,1.23-4.61,3.26-6.07c4.46-3.2,11.07-2.37,16.32-0.99c3.12,3.09,5.3,6.85,7.46,10.64
					c6.09,10.68,11.43,23.43,23.42,28.64c6.02,2.62,12.16,2.94,18.21,1.89l-41.63,23.3c-9.42-12.34-15.3-34.98-15.98-41.15
					c0,0-5.68,9.19-14.32,11.29c-12.58,3.06-20.84,20.22-20.84,20.22l-3.19-2.66C115.63,86.48,116.8,80.73,120.18,76.63z"/>
				<path opacity="0.2" fill="#D2202B" d="M131.52,72.48c6.26-3.35,12.44-6.23,15.51-13.09c1.21-2.69,1.58-5.51,2.59-8.24
					c0.5-1.36,1.26-2.57,2.12-3.72c1.17,0.44,2.25,1.05,3.11,1.97c2.78,2.99,5.16,8.69,6.33,12.58c2.44,8.12,2.41,17.41,9.12,23.56
					c6.15,5.63,14.3,6.69,22.29,5.41l-23.65,13.23c-9.42-12.34-15.3-34.98-15.98-41.15c0,0-5.68,9.19-14.32,11.29
					c-12.58,3.06-20.84,20.22-20.84,20.22l-1.11-0.92C119.64,85.09,122.87,77.11,131.52,72.48z"/>
			</g>
		</g>
		<g>
			<path fill="#F3F3F3" d="M172.31,123.48c0.39,0.15,1.31-1.3,2.89-1.9c0.82-0.31,2.59,1.17,3.68,0.68c0.87-0.39,1.29-2.02,2.31-2.5
				c0.89-0.42,2.06-0.4,3.05-0.89c0.89-0.44,2.17-0.25,3.13-0.74c0.9-0.46,1.29-1.98,2.25-2.48c0.9-0.47,1.52-1.54,2.46-2.03
				c0.9-0.48,2.47,0.24,3.4-0.26c0.9-0.48,1.01-2.48,1.94-2.99c0.91-0.49,2.62,0.49,3.55-0.02c0.91-0.49,1.13-2.26,2.05-2.76
				c0.91-0.5,1.7-1.21,2.62-1.72c0.91-0.5,2.53,0.27,3.44-0.25c0.91-0.51,1.79-1.07,2.7-1.59c0.91-0.51,1.2-2.11,2.11-2.62
				c0.91-0.52,2.44,0.06,3.34-0.46c0.91-0.52,2.05-0.63,2.95-1.15c0.91-0.52,0.64-3.08,1.53-3.6c0.91-0.53,2.36-0.12,3.25-0.64
				c0.91-0.53,1.68-1.28,2.57-1.8c0.91-0.54,2.02-0.72,2.9-1.24c0.91-0.54,2.31-0.25,3.18-0.78c0.92-0.55,0.82-2.72,1.69-3.25
				c0.92-0.56,1.71-1.25,2.57-1.78c0.92-0.57,1.89-0.98,2.73-1.51c0.93-0.59,1.49-1.63,2.31-2.16c0.95-0.61,1.87-1.06,2.66-1.59
				c1-0.67,1.81-1.23,2.52-1.75c1.42-1.04,4.52-0.21,4.58-0.53c0.1-0.5-3.17-1.11-3.75-2.51c-0.34-0.81,2.19-3.11,1.67-4.14
				c-0.43-0.85-0.95-1.8-1.48-2.75c-0.48-0.86-0.91-1.85-1.45-2.76c-0.51-0.86-2.87-0.62-3.43-1.5c-0.54-0.86,0.06-2.48-0.51-3.34
				c-0.57-0.85-2.85-0.52-3.44-1.35c-0.6-0.85-0.7-2.02-1.31-2.82c-0.64-0.84-0.09-2.6-0.72-3.36c-0.69-0.83-2.25-0.85-2.91-1.56
				c-0.76-0.81-1.8-1.14-2.51-1.75c-0.91-0.78-2.03-0.35-2.8-0.7c-0.62-0.29-1.16-2.31-2.56-1.83c-0.85,0.29-1.33,1.89-2.42,2.41
				c-0.87,0.42-2.25,0.01-3.25,0.56c-0.87,0.48-1.48,1.53-2.43,2.1c-0.86,0.52-2.45-0.03-3.37,0.55c-0.86,0.54-0.86,2.49-1.77,3.09
				c-0.86,0.56-2.93-0.64-3.82-0.04c-0.85,0.58-1.63,1.34-2.51,1.94c-0.85,0.59,0.06,3.73-0.81,4.34c-0.85,0.6-2.21,0.48-3.08,1.1
				c-0.85,0.61-1.36,1.68-2.21,2.31c-0.84,0.62-2.37,0.3-3.22,0.93c-0.84,0.62-1.92,0.94-2.77,1.57c-0.84,0.63-1.11,2.02-1.95,2.66
				c-0.84,0.64-2.13,0.68-2.97,1.32c-0.84,0.64-2.85-0.24-3.68,0.41c-0.84,0.65-1.63,1.36-2.45,2.01c-0.83,0.65,0.33,3.84-0.49,4.48
				c-0.83,0.66-2.19,0.64-3,1.29c-0.83,0.67-2.9-0.21-3.7,0.45c-0.83,0.68,0.29,3.72-0.51,4.38c-0.83,0.68-3.02-0.32-3.81,0.34
				c-0.83,0.69-1.46,1.6-2.23,2.26c-0.84,0.71-0.47,2.75-1.23,3.41c-0.84,0.72-2.67,0.22-3.41,0.88c-0.85,0.75-2.24,0.8-2.95,1.45
				c-0.89,0.81-1.24,2.02-1.87,2.65c-1.17,1.16-1.74,2.16-1.89,2.56c-0.26,0.68,1.42,1.35,1.72,2.59c0.2,0.86-0.88,2.13-0.47,3.15
				c0.34,0.88-0.81,2.54-0.36,3.48c0.42,0.87,3.7,0.31,4.19,1.21c0.48,0.87,0.2,2.13,0.72,2.98c0.53,0.87,1.31,1.51,1.86,2.32
				c0.59,0.86-0.88,3.19-0.3,3.94c0.67,0.87,1.3,1.89,1.92,2.53C169.82,123.31,171.66,123.23,172.31,123.48z"/>
			<path opacity="0.2" fill="#CECECD" d="M160.54,109.41c-0.46-0.94,0.7-2.6,0.36-3.48c-0.4-1.03,0.68-2.29,0.47-3.15
				c-0.3-1.24-1.98-1.91-1.72-2.59c0.15-0.4,0.72-1.4,1.89-2.56c0.63-0.63,0.98-1.83,1.87-2.65c0.71-0.65,2.1-0.7,2.95-1.45
				c0.74-0.66,2.57-0.15,3.41-0.88c0.76-0.66,0.4-2.7,1.23-3.41c0.18-0.15,0.34-0.31,0.51-0.48c4.12,6.45,11.93,10.84,19.18,12.66
				c3.92,0.98,8.43,1.22,12.35,0.16c4.68-1.26,7.38-4.66,10.04-8.42c0.04-0.06,0.08-0.12,0.12-0.17c0.59-0.12,1.23-0.08,1.82-0.12
				c2.18-0.18,4.43-0.19,6.56-0.7c4.31-1.03,8.4-3.32,12.46-5.06c5.97-2.56,11.44-5.24,16.04-9.36c1.15,0.67,2.67,1.06,2.61,1.41
				c-0.06,0.31-3.15-0.51-4.58,0.53c-0.71,0.52-1.52,1.08-2.52,1.75c-0.79,0.53-1.71,0.98-2.66,1.59c-0.83,0.53-1.38,1.58-2.31,2.16
				c-0.85,0.53-1.81,0.94-2.73,1.51c-0.86,0.53-1.65,1.22-2.57,1.78c-0.87,0.53-0.78,2.7-1.69,3.25c-0.88,0.53-2.27,0.24-3.18,0.78
				c-0.88,0.53-1.99,0.7-2.9,1.24c-0.89,0.52-1.66,1.27-2.57,1.8c-0.89,0.52-2.34,0.11-3.25,0.64c-0.9,0.52-0.62,3.08-1.53,3.6
				c-0.9,0.52-2.04,0.63-2.95,1.15c-0.9,0.52-2.43-0.06-3.34,0.46c-0.91,0.52-1.2,2.11-2.11,2.62c-0.91,0.51-1.79,1.08-2.7,1.59
				c-0.91,0.51-2.54-0.26-3.44,0.25c-0.92,0.51-1.71,1.22-2.62,1.72c-0.92,0.51-1.14,2.27-2.05,2.76c-0.93,0.51-2.64-0.47-3.55,0.02
				c-0.93,0.5-1.04,2.5-1.94,2.99c-0.94,0.5-2.5-0.22-3.4,0.26c-0.94,0.5-1.56,1.57-2.46,2.03c-0.95,0.49-1.35,2.02-2.25,2.48
				c-0.97,0.49-2.24,0.3-3.13,0.74c-0.99,0.49-2.16,0.47-3.05,0.89c-1.02,0.49-1.44,2.11-2.31,2.5c-1.09,0.49-2.86-1-3.68-0.68
				c-1.57,0.6-2.5,2.05-2.89,1.9c-0.64-0.25-2.49-0.17-3.39-1.1c-0.61-0.64-1.24-1.66-1.92-2.53c-0.58-0.75,0.89-3.08,0.3-3.94
				c-0.55-0.81-1.33-1.45-1.86-2.32c-0.52-0.85-0.24-2.11-0.72-2.98C164.24,109.72,160.96,110.28,160.54,109.41z"/>
			<path opacity="0.2" fill="#CECECD" d="M160.54,109.41c-0.46-0.94,0.7-2.6,0.36-3.48c-0.4-1.03,0.68-2.29,0.47-3.15
				c-0.3-1.24-1.98-1.91-1.72-2.59c0.15-0.4,0.72-1.4,1.89-2.56c0.56-0.55,0.89-1.55,1.57-2.33c2.93,8.11,10.07,12.87,18.74,14.73
				c3.97,0.85,7.82,1.49,11.7,2.72c0.69,0.22,1.37,0.39,2.04,0.53c-0.04,0.03-0.07,0.07-0.11,0.09c-0.94,0.5-2.5-0.22-3.4,0.26
				c-0.94,0.5-1.56,1.57-2.46,2.03c-0.95,0.49-1.35,2.02-2.25,2.48c-0.97,0.49-2.24,0.3-3.13,0.74c-0.99,0.49-2.16,0.47-3.05,0.89
				c-1.02,0.49-1.44,2.11-2.31,2.5c-1.09,0.49-2.86-1-3.68-0.68c-1.57,0.6-2.5,2.05-2.89,1.9c-0.64-0.25-2.49-0.17-3.39-1.1
				c-0.61-0.64-1.24-1.66-1.92-2.53c-0.58-0.75,0.89-3.08,0.3-3.94c-0.55-0.81-1.33-1.45-1.86-2.32c-0.52-0.85-0.24-2.11-0.72-2.98
				C164.24,109.72,160.96,110.28,160.54,109.41z"/>
		</g>
		<g>
			<path fill="#F3F3F3" d="M98.79,81.16c-0.16,0.27-1.47-0.1-1.61,0.17c-0.14,0.28,0.17,0.8,0.05,1.08
				c-0.13,0.28-0.49,0.5-0.59,0.78c-0.11,0.29-0.53,0.52-0.62,0.81c-0.09,0.3,0.84,0.89,0.76,1.19c-0.07,0.3-0.76,0.48-0.81,0.78
				c-0.05,0.31-0.31,0.61-0.35,0.92c-0.04,0.31-0.22,0.64-0.24,0.95c-0.02,0.31,0.88,0.66,0.88,0.97c0,0.31-0.47,0.64-0.45,0.95
				c0.02,0.31,0.38,0.6,0.42,0.9c0.04,0.31-0.01,0.63,0.05,0.94c0.06,0.3-0.01,0.65,0.06,0.95c0.08,0.3,0.97,0.36,1.07,0.65
				c0.09,0.29,0.12,0.58,0.23,0.87c0.11,0.29-0.96,1.08-0.83,1.37c0.13,0.28,0.63,0.42,0.77,0.69c0.15,0.27-0.13,0.83,0.03,1.1
				c0.16,0.26,1.1,0.05,1.28,0.31c0.18,0.25,0.66,0.27,0.85,0.51c0.19,0.24,0.51,0.34,0.72,0.57c0.21,0.23,0.01,0.82,0.23,1.04
				c0.22,0.22,0.68,0.16,0.91,0.37c0.23,0.2,0.44,0.41,0.69,0.6c0.24,0.19,0.43,0.44,0.68,0.61c0.25,0.17,0.27,0.73,0.53,0.89
				c0.27,0.16,0.67,0.08,0.95,0.22c0.28,0.14,0.23,1.01,0.51,1.13c0.28,0.13,1.18-1.26,1.47-1.16c0.29,0.11,0.45,0.46,0.75,0.55
				c0.3,0.09,0.35,1.04,0.65,1.11c0.3,0.07,0.77-0.71,1.08-0.66c0.31,0.05,0.47,1.1,0.77,1.14c0.31,0.04,0.64,0.26,0.94,0.27
				c0.31,0.02,0.65-1.11,0.96-1.11c0.31,0,0.67,1.17,0.98,1.14c0.31-0.02,0.55-0.91,0.86-0.95c0.31-0.04,0.67,0.26,0.97,0.2
				c0.3-0.06,0.53-0.48,0.83-0.56c0.3-0.08,0.42-0.68,0.72-0.77c0.29-0.09,0.78,0.43,1.07,0.32c0.29-0.11,0.81,0.28,1.09,0.16
				c0.28-0.13,0.1-1.2,0.37-1.35c0.27-0.15,0.71,0.04,0.98-0.12c0.26-0.16,0.9,0.22,1.16,0.05c0.25-0.18,0.43-0.51,0.67-0.7
				c0.24-0.19,0.26-0.67,0.49-0.88c0.23-0.21,0.66-0.21,0.88-0.43c0.22-0.22,0.29-0.59,0.5-0.82c0.2-0.23-0.35-1.06-0.16-1.31
				c0.19-0.24,1.21,0.14,1.38-0.12c0.17-0.25,0.39-0.5,0.55-0.77c0.16-0.27-0.48-0.97-0.34-1.24c0.14-0.28,1.26-0.08,1.39-0.36
				c0.13-0.28,0.35-0.56,0.46-0.85c0.11-0.29-0.78-0.92-0.69-1.22c0.09-0.3,0.15-0.57,0.22-0.87c0.07-0.3,1.07-0.41,1.13-0.71
				c0.05-0.31-0.81-0.74-0.77-1.05c0.04-0.31,1.13-0.53,1.15-0.84c0.02-0.31-1.15-0.65-1.15-0.96c0-0.31,0.25-0.6,0.23-0.91
				c-0.02-0.31,0.46-0.67,0.42-0.97c-0.04-0.31,0.28-0.7,0.22-1c-0.06-0.3-1.15-0.38-1.23-0.68c-0.08-0.3,0.17-0.68,0.07-0.97
				c-0.09-0.29,0.71-0.93,0.59-1.22c-0.11-0.29-0.36-0.57-0.49-0.86c-0.13-0.28-1.74,0.18-1.89-0.1c-0.15-0.27,0.45-0.94,0.29-1.2
				c-0.16-0.26-1.01-0.05-1.19-0.3c-0.18-0.25-0.29-0.49-0.48-0.74c-0.19-0.24-0.38-0.42-0.58-0.65c-0.21-0.23-0.1-0.71-0.32-0.93
				c-0.22-0.22,0.07-0.98-0.17-1.18c-0.23-0.2-0.26-0.71-0.5-0.9c-0.24-0.19-1.05,0.38-1.31,0.2c-0.25-0.17-0.23-0.79-0.5-0.95
				c-0.27-0.16-0.59-0.26-0.86-0.4c-0.28-0.14-0.88,0.42-1.16,0.3c-0.28-0.13-0.55-0.2-0.84-0.31c-0.29-0.11-0.56-0.16-0.86-0.25
				c-0.3-0.09-0.62,0.09-0.92,0.02c-0.3-0.07-0.38-1.11-0.68-1.16c-0.31-0.05-0.58-0.42-0.89-0.46c-0.31-0.04-0.68,0.68-0.99,0.66
				c-0.31-0.02-0.6,0.36-0.91,0.36c-0.31,0-0.63-0.68-0.93-0.66c-0.31,0.02-0.7-0.55-1-0.51c-0.31,0.04-0.47,1.02-0.78,1.07
				c-0.3,0.06-0.77-0.59-1.07-0.52c-0.3,0.08-0.42,0.8-0.71,0.9c-0.29,0.09-0.88-0.61-1.17-0.5c-0.29,0.11-0.15,1.24-0.43,1.37
				c-0.28,0.13-0.69-0.04-0.96,0.1c-0.27,0.15-0.55,0.26-0.82,0.43c-0.26,0.16-0.6,0.21-0.86,0.38c-0.25,0.18-0.64,0.19-0.88,0.38
				c-0.24,0.19-0.28,0.64-0.51,0.85c-0.23,0.21-0.04,0.82-0.26,1.04c-0.22,0.22-1.32-0.39-1.53-0.15c-0.2,0.23,0.77,1.42,0.58,1.67
				c-0.19,0.24-0.81,0.13-0.98,0.39C98.88,80.51,98.95,80.89,98.79,81.16z"/>
			<path opacity="0.2" fill="#CECECD" d="M97.57,96.13c-0.15-0.27-0.64-0.41-0.77-0.69c-0.11-0.25,0.69-0.88,0.82-1.23
				c1.84,1.4,4,2.27,6.4,2.33c5.1,0.13,10.16-3.19,14.02-6.26c3.34-2.66,5.03-6.71,4.74-10.72c0.03,0.04,0.06,0.07,0.09,0.11
				c0.19,0.24,0.3,0.48,0.48,0.74c0.18,0.25,1.02,0.04,1.19,0.3c0.16,0.26-0.44,0.93-0.29,1.2c0.15,0.27,1.76-0.18,1.89,0.1
				c0.13,0.28,0.37,0.57,0.49,0.86c0.11,0.29-0.69,0.92-0.59,1.22c0.09,0.29-0.15,0.67-0.07,0.97c0.08,0.3,1.17,0.38,1.23,0.68
				c0.06,0.3-0.26,0.69-0.22,1c0.04,0.31-0.44,0.66-0.42,0.97c0.02,0.31-0.24,0.6-0.23,0.91c0,0.31,1.16,0.65,1.15,0.96
				c-0.02,0.31-1.11,0.53-1.15,0.84c-0.03,0.31,0.83,0.74,0.77,1.05c-0.05,0.3-1.05,0.41-1.13,0.71c-0.07,0.3-0.13,0.57-0.22,0.87
				c-0.09,0.29,0.8,0.93,0.69,1.22c-0.11,0.29-0.33,0.57-0.46,0.85c-0.12,0.28-1.25,0.08-1.39,0.36c-0.14,0.27,0.5,0.97,0.34,1.24
				c-0.16,0.27-0.37,0.52-0.55,0.77c-0.17,0.26-1.2-0.12-1.38,0.12c-0.19,0.25,0.37,1.07,0.16,1.31c-0.2,0.23-0.28,0.6-0.5,0.82
				c-0.22,0.22-0.65,0.23-0.88,0.43c-0.23,0.21-0.25,0.69-0.49,0.88c-0.24,0.19-0.42,0.52-0.67,0.7c-0.25,0.18-0.89-0.21-1.16-0.05
				c-0.26,0.16-0.71-0.02-0.98,0.12c-0.27,0.15-0.09,1.22-0.37,1.35c-0.28,0.13-0.8-0.27-1.09-0.16c-0.29,0.11-0.78-0.41-1.07-0.32
				c-0.29,0.09-0.42,0.69-0.72,0.77c-0.3,0.08-0.53,0.5-0.83,0.56c-0.3,0.06-0.67-0.24-0.97-0.2c-0.31,0.04-0.55,0.93-0.86,0.95
				c-0.31,0.02-0.67-1.15-0.98-1.14c-0.31,0-0.65,1.13-0.96,1.11c-0.31-0.02-0.64-0.24-0.94-0.27c-0.31-0.03-0.47-1.08-0.77-1.14
				c-0.3-0.05-0.78,0.73-1.08,0.66c-0.3-0.07-0.36-1.02-0.65-1.11c-0.29-0.09-0.46-0.44-0.75-0.55c-0.29-0.11-1.19,1.28-1.47,1.16
				c-0.28-0.12-0.24-0.99-0.51-1.13c-0.27-0.14-0.68-0.06-0.95-0.22c-0.27-0.16-0.28-0.72-0.53-0.89c-0.26-0.17-0.44-0.42-0.68-0.61
				c-0.25-0.19-0.45-0.39-0.69-0.6c-0.23-0.2-0.69-0.15-0.91-0.37c-0.22-0.22-0.03-0.81-0.23-1.04c-0.21-0.23-0.53-0.33-0.72-0.57
				c-0.19-0.24-0.68-0.26-0.85-0.51c-0.18-0.25-1.11-0.04-1.28-0.31C97.44,96.97,97.72,96.41,97.57,96.13z"/>
			<path opacity="0.2" fill="#CECECD" d="M102.28,100.62c-0.24-0.18-0.44-0.38-0.66-0.57c0.34,0.06,0.69,0.12,1.04,0.15
				c6.11,0.51,12.87-1.41,17.52-5.45c3.9-3.38,5.47-8.1,4.96-12.79c0.45-0.05,0.92-0.1,0.98,0.05c0.13,0.28,0.37,0.57,0.49,0.86
				c0.11,0.29-0.69,0.92-0.59,1.22c0.09,0.29-0.15,0.67-0.07,0.97c0.08,0.3,1.17,0.38,1.23,0.68c0.06,0.3-0.26,0.69-0.22,1
				c0.04,0.31-0.44,0.66-0.42,0.97c0.02,0.31-0.24,0.6-0.23,0.91c0,0.31,1.16,0.65,1.15,0.96c-0.02,0.31-1.11,0.53-1.15,0.84
				c-0.03,0.31,0.83,0.74,0.77,1.05c-0.05,0.3-1.05,0.41-1.13,0.71c-0.07,0.3-0.13,0.57-0.22,0.87c-0.09,0.29,0.8,0.93,0.69,1.22
				c-0.11,0.29-0.33,0.57-0.46,0.85c-0.12,0.28-1.25,0.08-1.39,0.36c-0.14,0.27,0.5,0.97,0.34,1.24c-0.16,0.27-0.37,0.52-0.55,0.77
				c-0.17,0.26-1.2-0.12-1.38,0.12c-0.19,0.25,0.37,1.07,0.16,1.31c-0.2,0.23-0.28,0.6-0.5,0.82c-0.22,0.22-0.65,0.23-0.88,0.43
				c-0.23,0.21-0.25,0.69-0.49,0.88c-0.24,0.19-0.42,0.52-0.67,0.7c-0.25,0.18-0.89-0.21-1.16-0.05c-0.26,0.16-0.71-0.02-0.98,0.12
				c-0.27,0.15-0.09,1.22-0.37,1.35c-0.28,0.13-0.8-0.27-1.09-0.16c-0.29,0.11-0.78-0.41-1.07-0.32c-0.29,0.09-0.42,0.69-0.72,0.77
				c-0.3,0.08-0.53,0.5-0.83,0.56c-0.3,0.06-0.67-0.24-0.97-0.2c-0.31,0.04-0.55,0.93-0.86,0.95c-0.31,0.02-0.67-1.15-0.98-1.14
				c-0.31,0-0.65,1.13-0.96,1.11c-0.31-0.02-0.64-0.24-0.94-0.27c-0.31-0.03-0.47-1.08-0.77-1.14c-0.3-0.05-0.78,0.73-1.08,0.66
				c-0.3-0.07-0.36-1.02-0.65-1.11c-0.29-0.09-0.46-0.44-0.75-0.55c-0.29-0.11-1.19,1.28-1.47,1.16c-0.28-0.12-0.24-0.99-0.51-1.13
				c-0.27-0.14-0.68-0.06-0.95-0.22c-0.27-0.16-0.28-0.72-0.53-0.89C102.7,101.05,102.52,100.81,102.28,100.62z"/>
		</g>
	</g>
</g>
</svg>
