<?xml version="1.0" encoding="utf-8"?>
<!-- Generator: Adobe Illustrator 24.1.1, SVG Export Plug-In . SVG Version: 6.00 Build 0)  -->
<svg version="1.1" id="Layer_1" xmlns="http://www.w3.org/2000/svg" xmlns:xlink="http://www.w3.org/1999/xlink" x="0px" y="0px"
	 viewBox="0 0 612 792" enable-background="new 0 0 612 792" xml:space="preserve">
<g>
	<polygon fill="#FFFFFF" points="208.21,172.76 208.21,197.43 427.36,197.43 427.86,196.93 209.21,196.93 209.21,173.26 
		485.02,173.26 461.35,196.93 460.85,197.43 462.27,197.43 486.94,172.76 	"/>
	<path fill="#FFFFFF" d="M232.88,196.93v0.5h0.5v0.5h192.78l0.5-0.5h0.7l0.5-0.5H232.88z M232.88,196.93v0.5h0.5v0.5h192.78l0.5-0.5
		h0.7l0.5-0.5H232.88z M232.88,196.93v0.5h0.5v0.5h192.78l0.5-0.5h0.7l0.5-0.5H232.88z M232.88,196.93v0.5h0.5v0.5h192.78l0.5-0.5
		h0.7l0.5-0.5H232.88z M232.88,196.93v0.5h0.5v0.5h192.78l0.5-0.5h0.7l0.5-0.5H232.88z M232.88,196.93v0.5h0.5v0.5h192.78l0.5-0.5
		h0.7l0.5-0.5H232.88z M232.88,196.93v0.5h0.5v0.5h192.78l0.5-0.5h0.7l0.5-0.5H232.88z M232.88,196.93v0.5h0.5v0.5h192.78l0.5-0.5
		h0.7l0.5-0.5H232.88z M232.88,196.93v0.5h0.5v0.5h192.78l0.5-0.5h0.7l0.5-0.5H232.88z M232.88,196.93v0.5h0.5v0.5h192.78l0.5-0.5
		h0.7l0.5-0.5H232.88z M232.88,196.93v0.5h0.5v0.5h192.78l0.5-0.5h0.7l0.5-0.5H232.88z M232.88,196.93v0.5h0.5v0.5h192.78l0.5-0.5
		h0.7l0.5-0.5H232.88z M209.21,196.93v0.5h218.15l0.5-0.5H209.21z M208.21,172.26v1h278.23l1-1H208.21z M232.88,196.93v0.5h0.5v0.5
		h192.78l0.5-0.5h0.7l0.5-0.5H232.88z M232.88,196.93v0.5h0.5v0.5h192.78l0.5-0.5h0.7l0.5-0.5H232.88z M232.88,196.93v0.5h0.5v0.5
		h192.78l0.5-0.5h0.7l0.5-0.5H232.88z M232.88,196.93v0.5h0.5v0.5h192.78l0.5-0.5h0.7l0.5-0.5H232.88z M232.88,196.93v0.5h0.5v0.5
		h192.78l0.5-0.5h0.7l0.5-0.5H232.88z M232.88,196.93v0.5h0.5v0.5h192.78l0.5-0.5h0.7l0.5-0.5H232.88z M232.88,196.93v0.5h0.5v0.5
		h192.78l0.5-0.5h0.7l0.5-0.5H232.88z M232.88,196.93v0.5h0.5v0.5h192.78l0.5-0.5h0.7l0.5-0.5H232.88z M232.88,196.93v0.5h0.5v0.5
		h192.78l0.5-0.5h0.7l0.5-0.5H232.88z M232.88,196.93v0.5h0.5v0.5h192.78l0.5-0.5h0.7l0.5-0.5H232.88z M232.88,196.93v0.5h0.5v0.5
		h192.78l0.5-0.5h0.7l0.5-0.5H232.88z M232.88,196.93v0.5h0.5v0.5h192.78l0.5-0.5h0.7l0.5-0.5H232.88z M461.35,196.93l-1,1h1.42l1-1
		H461.35z M208.21,196.93v1h218.65l1-1H208.21z M232.88,196.93v0.5h0.5v0.5h192.78l0.5-0.5h0.7l0.5-0.5H232.88z"/>
	<polygon fill="#FFFFFF" points="402.68,222.11 402.19,222.61 209.21,222.61 209.21,246.79 208.21,246.79 208.21,222.11 	"/>
	<rect x="232.89" y="246.29" fill="#FFFFFF" width="25.68" height="0.5"/>
	<polygon fill="#FFFFFF" points="437.59,222.11 437.09,222.61 413.41,246.29 412.91,246.79 282.23,246.79 282.23,246.29 
		411.99,246.29 436.17,222.11 	"/>
	<path fill="#FFFFFF" d="M232.89,246.29v0.5h1v0.5h23.68v-0.5h0.5v-0.5H232.89z M232.89,246.79h0.5v-0.5h-0.5V246.79z
		 M208.21,221.61v1h193.98l0.49-0.5l0.5-0.5H208.21z M232.89,246.79h0.5v-0.5h-0.5V246.79z M436.67,221.61l-1,1h1.42l1-1H436.67z
		 M232.89,246.29v0.5h1v0.5h23.68v-0.5h0.5v-0.5H232.89z M232.89,246.29v0.5h1v0.5h23.68v-0.5h0.5v-0.5H232.89z M401.98,222.11
		l0.5-0.5H257.57v1h144.62l0.49-0.5H401.98z M401.98,222.11l0.5-0.5H257.57v1h144.62l0.49-0.5H401.98z M401.98,222.11l0.5-0.5
		H257.57v1h144.62l0.49-0.5H401.98z M401.98,222.11l0.5-0.5H257.57v1h144.62l0.49-0.5H401.98z M401.98,222.11l0.5-0.5H257.57v1
		h144.62l0.49-0.5H401.98z M232.89,247.29h25.68v-1h-25.68V247.29z M282.23,246.29v1h130.18l1-1H282.23z M208.21,247.29h1v-1h-1
		V247.29z M401.98,222.11l0.5-0.5H257.57v1h144.62l0.49-0.5H401.98z M401.98,222.11l0.5-0.5H257.57v1h144.62l0.49-0.5H401.98z
		 M401.98,222.11l0.5-0.5H257.57v1h144.62l0.49-0.5H401.98z M401.98,222.11l0.5-0.5H257.57v1h144.62l0.49-0.5H401.98z
		 M401.98,222.11l0.5-0.5H257.57v1h144.62l0.49-0.5H401.98z"/>
	<path fill="#FFFFFF" d="M336.07,350.53h0.7l-0.67-0.03L336.07,350.53z M316.77,349.53l19.33,0.97l0.46-0.47h-0.71l0.5-0.5H316.77z"
		/>
	<polygon fill="#FFFFFF" points="351.67,349.53 326.99,374.21 325.58,374.21 350.26,349.53 	"/>
	<rect x="208.21" y="301.18" fill="#FFFFFF" width="1" height="23.68"/>
	<rect x="232.89" y="301.18" fill="#FFFFFF" width="1" height="23.68"/>
	<rect x="257.57" y="301.18" fill="#FFFFFF" width="1" height="23.68"/>
	<polygon fill="#FFFFFF" points="398.6,301.18 373.92,325.86 350.26,349.53 325.58,374.21 232.89,374.21 232.89,488.42 
		258.57,462.74 258.57,388.04 282.23,388.04 282.23,472.55 258.07,496.71 257.57,497.22 232.89,521.9 209.21,545.57 209.21,374.21 
		208.21,374.21 208.21,350.53 336.77,350.53 316.77,349.53 340.45,325.86 341.45,324.86 258.57,324.86 258.57,260.13 282.23,260.13 
		282.23,301.18 	"/>
	<polygon fill="#FFFFFF" points="485.02,173.26 461.35,196.93 411.99,246.29 282.23,246.29 282.23,247.29 258.57,247.29 
		258.57,246.29 232.89,246.29 232.89,324.86 209.21,324.86 209.21,222.61 402.19,222.61 402.68,222.11 427.86,196.93 209.21,196.93 
		209.21,173.26 	"/>
	<polygon fill="#FFFFFF" points="340.73,324.86 340.23,325.36 339.52,325.36 339.02,325.86 340.45,325.86 341.45,324.86 	"/>
	<polygon fill="#FFFFFF" points="400.02,301.18 375.34,325.86 373.92,325.86 398.6,301.18 	"/>
	<rect x="208.21" y="324.86" fill="#FFFFFF" width="25.68" height="0.5"/>
	<polygon fill="#FFFFFF" points="257.57,324.86 257.57,325.36 340.23,325.36 340.73,324.86 	"/>
	<rect x="208.21" y="300.68" fill="#FFFFFF" width="1" height="0.5"/>
	<rect x="232.89" y="300.68" fill="#FFFFFF" width="1" height="0.5"/>
	<rect x="257.57" y="300.68" fill="#FFFFFF" width="1" height="0.5"/>
	<polygon fill="#FFFFFF" points="282.23,300.68 282.23,301.18 400.02,301.18 400.52,300.68 	"/>
	<path fill="#FFFFFF" d="M258.07,324.86v1h80.95l0.5-0.5h0.71l0.5-0.5H258.07z M399.1,300.68l-0.5,0.5h1.42l0.5-0.5H399.1z
		 M399.1,300.68l-0.5,0.5h1.42l0.5-0.5H399.1z M399.1,300.68l-0.5,0.5h1.42l0.5-0.5H399.1z M399.1,300.68l-0.5,0.5h1.42l0.5-0.5
		H399.1z M399.1,300.68l-0.5,0.5h1.42l0.5-0.5H399.1z M257.57,324.86v1h81.45l0.5-0.5h0.71l0.5-0.5H257.57z M208.21,325.86h25.68v-1
		h-25.68V325.86z M399.1,300.68l-0.5,0.5h1.42l0.5-0.5H399.1z M399.1,300.68l-0.5,0.5h1.42l0.5-0.5H399.1z M399.1,300.68l-0.5,0.5
		h1.42l0.5-0.5H399.1z M399.1,300.68l-0.5,0.5h1.42l0.5-0.5H399.1z M399.1,300.68l-0.5,0.5h1.42l0.5-0.5H399.1z M258.07,324.86v1
		h80.95l0.5-0.5h0.71l0.5-0.5H258.07z M258.07,324.86v1h80.95l0.5-0.5h0.71l0.5-0.5H258.07z M258.07,324.86v1h80.95l0.5-0.5h0.71
		l0.5-0.5H258.07z M258.07,324.86v1h80.95l0.5-0.5h0.71l0.5-0.5H258.07z M257.57,324.86v1h81.45l0.5-0.5h0.71l0.5-0.5H257.57z
		 M208.21,301.18h1v-1h-1V301.18z M282.23,300.18v1h117.79l1-1H282.23z M257.57,301.18h1v-1h-1V301.18z M232.89,301.18h1v-1h-1
		V301.18z M258.07,324.86v1h80.95l0.5-0.5h0.71l0.5-0.5H258.07z M258.07,324.86v1h80.95l0.5-0.5h0.71l0.5-0.5H258.07z
		 M258.07,324.86v1h80.95l0.5-0.5h0.71l0.5-0.5H258.07z M258.07,324.86v1h80.95l0.5-0.5h0.71l0.5-0.5H258.07z M258.07,324.86v1
		h80.95l0.5-0.5h0.71l0.5-0.5H258.07z"/>
	<polygon fill="#FFFFFF" points="208.21,350.03 208.21,350.53 336.07,350.53 336.56,350.03 	"/>
	<rect x="208.21" y="374.21" fill="#FFFFFF" width="1" height="0.5"/>
	<polygon fill="#FFFFFF" points="232.89,374.21 232.89,374.71 326.49,374.71 326.99,374.21 	"/>
	<path fill="#FFFFFF" d="M282.73,374.21v0.5h41.44l0.5-0.5H282.73z M282.73,374.21v0.5h41.44l0.5-0.5H282.73z M258.57,374.21v0.5
		h-0.5v0.5h24.66v-0.5h41.44l0.5-0.5H258.57z M233.89,374.21v1h24.18v-0.5h0.5v-0.5H233.89z M233.89,375.21h48.34v-1h-48.34V375.21z
		 M233.89,375.21h48.34v-1h-48.34V375.21z M335.85,350.03l0.5-0.5H208.21v1h127.86l0.5-0.5H335.85z M233.89,375.21h48.34v-1h-48.34
		V375.21z M233.39,374.21v0.5h0.5v0.5h48.34v-1H233.39z M282.23,374.21v0.5h41.94l0.5-0.5H282.23z M283.23,350.03v0.5h52.12l0.5-0.5
		H283.23z M282.73,349.53v0.5h-0.5v0.5h53.12l1-1H282.73z M335.85,350.03l0.5-0.5h-53.62v0.5h-0.5v0.5h53.84l0.5-0.5H335.85z
		 M335.85,350.03l-0.5,0.5h0.72l0.5-0.5H335.85z M335.85,350.03l-0.5,0.5h0.72l0.49-0.5H335.85z M208.21,375.21h1v-1h-1V375.21z
		 M232.89,374.21v1h93.1l1-1H232.89z M335.85,350.03l-0.5,0.5h0.72l0.49-0.5H335.85z M335.85,350.03l-0.5,0.5h0.72l0.5-0.5H335.85z
		 M282.73,349.53v0.5h-0.5v0.5h53.12l1-1H282.73z M283.23,350.03v0.5h52.12l0.5-0.5H283.23z M283.23,350.03v0.5h52.12l0.5-0.5
		H283.23z M282.73,374.21v0.5h41.44l0.5-0.5H282.73z M282.73,374.21v0.5h41.44l0.5-0.5H282.73z M282.73,374.21v0.5h41.44l0.5-0.5
		H282.73z"/>
	<polygon fill="#FFFFFF" points="232.89,521.9 233.39,521.4 233.39,522.82 232.89,523.32 209.21,546.99 208.71,547.49 
		208.71,374.21 209.21,374.21 209.21,545.57 	"/>
	<polygon fill="#FFFFFF" points="232.89,374.21 232.89,488.42 233.39,487.92 233.39,374.21 	"/>
	<rect x="208.71" y="349.53" fill="#FFFFFF" width="24.68" height="1"/>
	<path fill="#FFFFFF" d="M232.89,324.86h0.5v-78.07h-0.5V324.86z M208.71,221.61v104.25h24.68v-79.57h-0.5v78.57h-23.68V222.61
		h24.18v-1H208.71z"/>
	<polygon fill="#FFFFFF" points="233.38,172.26 233.38,173.26 209.21,173.26 209.21,196.93 233.38,196.93 233.38,197.93 
		208.71,197.93 208.71,172.26 	"/>
	<path fill="#FFFFFF" d="M232.89,197.93h0.5v-0.5h-0.5V197.93z M232.89,222.61h1v-1h-1V222.61z M232.89,325.86h1v-79.57h-1V325.86z
		 M232.89,350.53h1v-1h-1V350.53z M232.89,374.21v114.21l0.5-0.5v-0.71l0.5-0.5v-112.5H232.89z M232.89,197.93h0.5v-0.5h-0.5V197.93
		z M232.89,222.61h1v-1h-1V222.61z M232.89,325.86h1v-79.57h-1V325.86z M232.89,350.53h1v-1h-1V350.53z M232.89,374.21v114.21
		l0.5-0.5v-0.71l0.5-0.5v-112.5H232.89z M208.71,173.26h0.5v-1h-0.5V173.26z M208.71,173.26h0.5v-1h-0.5V173.26z M232.89,222.61h1
		v-1h-1V222.61z M232.89,325.86h1v-79.57h-1V325.86z M232.89,350.53h1v-1h-1V350.53z M232.89,521.9v1.42l1-1v-1.42L232.89,521.9z
		 M232.89,374.21v114.21l1-1V374.21H232.89z M232.89,173.26h1v-1h-1V173.26z M232.89,197.93h1v-1h-1V197.93z M208.71,173.26h0.5v-1
		h-0.5V173.26z M208.71,173.26h0.5v-1h-0.5V173.26z M232.89,197.93h0.5v-0.5h-0.5V197.93z M232.89,222.61h1v-1h-1V222.61z
		 M232.89,325.86h1v-79.57h-1V325.86z M232.89,350.53h1v-1h-1V350.53z M232.89,374.21v114.21l0.5-0.5v-0.71l0.5-0.5v-112.5H232.89z
		 M232.89,197.93h0.5v-0.5h-0.5V197.93z M232.89,197.93h0.49v-0.5h-0.49V197.93z M232.89,197.93h0.49v-1h-0.49V197.93z
		 M232.89,197.93h0.49v-1h-0.49V197.93z M232.89,197.93h0.49v-1h-0.49V197.93z M232.89,197.93h0.49v-1h-0.49V197.93z M208.21,197.93
		h1v-25.67h-1V197.93z M232.89,197.93h0.49v-1h-0.49V197.93z M232.89,197.93h0.49v-1h-0.49V197.93z M232.89,197.93h0.49v-1h-0.49
		V197.93z M232.89,197.93h0.49v-1h-0.49V197.93z M232.89,197.93h0.5v-0.5h-0.5V197.93z M232.89,197.93h0.5v-0.5h-0.5V197.93z
		 M233.39,246.79v-0.5h-0.5v79.57h1v-79.07H233.39z M232.89,350.53h1v-1h-1V350.53z M232.89,374.21v114.21l0.5-0.5v-0.71l0.5-0.5
		v-112.5H232.89z M232.89,374.21v114.21l0.5-0.5v-0.71l0.5-0.5v-112.5H232.89z M232.89,374.21v114.21l0.5-0.5v-0.71l0.5-0.5v-112.5
		H232.89z M232.89,374.21v114.21l0.5-0.5v-0.71l0.5-0.5v-112.5H232.89z M232.89,374.21v114.21l0.5-0.5v-0.71l0.5-0.5v-112.5H232.89z
		 M232.89,374.21v114.21l0.5-0.5v-0.71l0.5-0.5v-112.5H232.89z M232.89,374.71v113.71l0.5-0.5v-0.71l0.5-0.5v-112H232.89z
		 M208.21,374.21v173.78l1-1V374.21H208.21z M232.89,374.71v113.71l0.5-0.5v-0.71l0.5-0.5v-112H232.89z M208.21,350.53h1v-1h-1
		V350.53z M232.89,374.21v114.21l0.5-0.5v-0.71l0.5-0.5v-112.5H232.89z M232.89,374.21v114.21l0.5-0.5v-0.71l0.5-0.5v-112.5H232.89z
		 M232.89,374.21v114.21l0.5-0.5v-0.71l0.5-0.5v-112.5H232.89z M232.89,374.21v114.21l0.5-0.5v-0.71l0.5-0.5v-112.5H232.89z
		 M232.89,374.21v114.21l0.5-0.5v-0.71l0.5-0.5v-112.5H232.89z M232.89,246.79v79.07h0.5v-1h0.5v-78.07H232.89z M232.89,325.86h0.5
		v-1h-0.5V325.86z M232.89,325.86h0.5v-1h-0.5V325.86z M232.89,325.86h0.5v-1h-0.5V325.86z M232.89,325.86h0.5v-1h-0.5V325.86z
		 M232.89,325.86h0.5v-1h-0.5V325.86z M208.21,325.86h1V221.61h-1V325.86z M232.89,325.86h0.5v-1h-0.5V325.86z M232.89,325.86h0.5
		v-1h-0.5V325.86z M232.89,325.86h0.5v-1h-0.5V325.86z M232.89,325.86h0.5v-1h-0.5V325.86z M232.89,246.79v79.07h0.5v-24.68h0.5
		v-54.39H232.89z M233.39,246.79v-0.5h-0.5v79.57h0.5v-1h0.5v-78.07H233.39z M232.89,197.93h0.5v-0.5h-0.5V197.93z M232.89,222.61h1
		v-1h-1V222.61z M232.89,325.86h1v-79.57h-1V325.86z M232.89,350.53h1v-1h-1V350.53z M232.89,374.21v114.21l0.5-0.5v-0.71l0.5-0.5
		v-112.5H232.89z M232.89,197.93h0.5v-0.5h-0.5V197.93z M232.89,222.61h1v-1h-1V222.61z M232.89,325.86h1v-79.57h-1V325.86z
		 M232.89,350.53h1v-1h-1V350.53z M232.89,374.21v114.21l0.5-0.5v-0.71l0.5-0.5v-112.5H232.89z M232.89,197.93h0.5v-0.5h-0.5V197.93
		z M232.89,222.61h1v-1h-1V222.61z M232.89,325.86h1v-79.57h-1V325.86z M232.89,350.53h1v-1h-1V350.53z M232.89,374.21v114.21
		l0.5-0.5v-0.71l0.5-0.5v-112.5H232.89z"/>
	<polygon fill="#FFFFFF" points="258.07,388.04 258.07,463.24 258.57,462.74 258.57,388.04 	"/>
	<rect x="258.07" y="374.21" fill="#FFFFFF" width="24.66" height="1"/>
	<polygon fill="#FFFFFF" points="282.23,388.04 282.73,388.04 282.73,473.47 282.23,473.97 258.57,497.64 258.07,498.14 
		258.07,496.71 282.23,472.55 	"/>
	<rect x="258.07" y="349.53" fill="#FFFFFF" width="24.66" height="1"/>
	<rect x="258.07" y="246.29" fill="#FFFFFF" width="0.5" height="1"/>
	<polygon fill="#FFFFFF" points="282.73,324.86 282.73,325.86 258.07,325.86 258.07,260.13 258.57,260.13 258.57,324.86 	"/>
	<rect x="282.23" y="246.29" fill="#FFFFFF" width="0.5" height="1"/>
	<rect x="282.23" y="260.13" fill="#FFFFFF" width="0.5" height="41.05"/>
	<rect x="258.07" y="221.61" fill="#FFFFFF" width="24.66" height="1"/>
	<rect x="258.06" y="196.93" fill="#FFFFFF" width="24.67" height="1"/>
	<rect x="258.06" y="172.26" fill="#FFFFFF" width="24.67" height="1"/>
	<path fill="#FFFFFF" d="M258.07,375.21h0.5v-0.5h-0.5V375.21z M258.07,388.04v73.78l0.5-0.5v-73.28H258.07z M258.07,388.04v73.78
		l0.5-0.5v-73.28H258.07z M258.07,388.04v73.78l0.5-0.5v-73.28H258.07z M258.07,388.04v73.78l0.5-0.5v-73.28H258.07z M258.07,388.04
		v73.78l0.5-0.5v-73.28H258.07z M258.07,388.04v73.78l0.5-0.5v-73.28H258.07z M282.23,375.21h0.5v-1h-0.5V375.21z M282.23,388.04
		v49.61l0.5-0.5v-49.11H282.23z M258.07,388.04v73.78l0.5-0.5v-73.28H258.07z M258.07,388.04v73.78l0.5-0.5v-73.28H258.07z
		 M258.07,388.04v73.78l0.5-0.5v-73.28H258.07z M258.07,388.04v73.78l0.5-0.5v-73.28H258.07z M258.07,222.61h0.5v-0.5h-0.5V222.61z
		 M257.57,247.29h1v-1h-1V247.29z M257.57,260.13v64.73h0.5v0.5h0.5v-65.23H257.57z M258.07,375.21h0.5v-0.5h-0.5V375.21z
		 M258.07,388.04v73.78l0.5-0.5v-73.28H258.07z M258.07,388.04v73.78l0.5-0.5v-73.28H258.07z M258.07,388.04v73.78l0.5-0.5v-73.28
		H258.07z M258.07,388.04v73.78l0.5-0.5v-73.28H258.07z M258.07,388.04v73.78l0.5-0.5v-73.28H258.07z M258.07,388.04v73.78l0.5-0.5
		v-73.28H258.07z M282.23,375.21h0.5v-1h-0.5V375.21z M282.23,388.04v49.61l0.5-0.5v-49.11H282.23z M258.07,388.04v73.78l0.5-0.5
		v-73.28H258.07z M258.07,388.04v73.78l0.5-0.5v-73.28H258.07z M258.07,388.04v73.78l0.5-0.5v-73.28H258.07z M258.07,388.04v73.78
		l0.5-0.5v-73.28H258.07z M258.07,222.61h0.5v-0.5h-0.5V222.61z M257.57,247.29h1v-1h-1V247.29z M257.57,260.13v64.73h0.5v0.5h0.5
		v-65.23H257.57z M258.07,375.21h0.5v-0.5h-0.5V375.21z M258.07,388.04v73.78l0.5-0.5v-73.28H258.07z M258.07,388.04v73.78l0.5-0.5
		v-73.28H258.07z M258.07,388.04v73.78l0.5-0.5v-73.28H258.07z M258.07,388.04v73.78l0.5-0.5v-73.28H258.07z M258.07,388.04v73.78
		l0.5-0.5v-73.28H258.07z M258.07,388.04v73.78l0.5-0.5v-73.28H258.07z M282.23,375.21h0.5v-1h-0.5V375.21z M282.23,388.04v49.61
		l0.5-0.5v-49.11H282.23z M258.07,388.04v73.78l0.5-0.5v-73.28H258.07z M258.07,388.04v73.78l0.5-0.5v-73.28H258.07z M258.07,388.04
		v73.78l0.5-0.5v-73.28H258.07z M258.07,388.04v73.78l0.5-0.5v-73.28H258.07z M258.07,222.61h0.5v-0.5h-0.5V222.61z M257.57,247.29
		h1v-1h-1V247.29z M257.57,260.13v64.73h0.5v0.5h0.5v-65.23H257.57z M257.57,222.61h1v-1h-1V222.61z M257.57,247.29h1v-1h-1V247.29z
		 M257.57,260.13v64.73h0.5v1h0.5v-65.73H257.57z M282.23,173.26h1v-1h-1V173.26z M282.23,197.93h1v-1h-1V197.93z M258.07,375.21
		h0.5v-0.5h-0.5V375.21z M258.07,388.04v73.78l0.5-0.5v-73.28H258.07z M258.07,246.29v0.5h-0.5v0.5h1v-1H258.07z M257.57,260.13
		v64.73h0.5v1h0.5v-65.73H257.57z M258.07,388.04v74.48l0.5-0.49v-73.99H258.07z M258.07,388.04v74.48l0.5-0.49v-73.99H258.07z
		 M258.07,388.04v74.48l0.5-0.49v-73.99H258.07z M258.07,388.04v74.48l0.5-0.49v-73.99H258.07z M282.23,350.53h1v-1h-1V350.53z
		 M258.07,388.04v74.48l0.5-0.49v-73.99H258.07z M282.23,388.04v85.93l1-1v-84.93H282.23z M282.23,375.21h1v-1h-1V375.21z
		 M258.07,388.04v74.48l0.5-0.49v-73.99H258.07z M258.07,388.04v74.48l0.5-0.49v-73.99H258.07z M258.07,388.04v74.48l0.5-0.49
		v-73.99H258.07z M258.07,388.04v74.48l0.5-0.49v-73.99H258.07z M258.07,246.29v0.5h-0.5v0.5h1v-1H258.07z M257.57,260.13v41.05h0.5
		v23.68h0.5v-64.73H257.57z M282.23,222.61h1v-1h-1V222.61z M282.23,247.29h1v-1h-1V247.29z M282.23,301.18h1v-41.05h-1V301.18z
		 M282.23,325.86h1v-1h-1V325.86z M258.07,246.29v0.5h-0.5v0.5h1v-1H258.07z M257.57,260.13v41.05h0.5v23.68h0.5v-64.73H257.57z
		 M257.57,222.61h1v-1h-1V222.61z M257.57,247.29h1v-1h-1V247.29z M257.57,260.13v64.73h0.5v1h0.5v-65.73H257.57z M282.23,350.03
		h0.5v-0.5h-0.5V350.03z M282.23,472.55v1.42l0.5-0.5v-1.42L282.23,472.55z M257.57,222.61h1v-1h-1V222.61z M257.57,247.29h1v-1h-1
		V247.29z M257.57,325.86h1v-65.73h-1V325.86z M282.23,472.55v1.42l0.5-0.5v-1.42L282.23,472.55z M257.57,350.53h1v-1h-1V350.53z
		 M258.07,496.71l-0.5,0.51v1.42l1-1v-1.43L258.07,496.71z M257.57,388.04v75.7l1-1v-74.7H257.57z M257.57,375.21h1v-1h-1V375.21z
		 M282.23,472.55v1.42l0.5-0.5v-1.42L282.23,472.55z M282.23,350.03h0.5v-0.5h-0.5V350.03z M257.57,173.26h1v-1h-1V173.26z
		 M257.57,197.93h1v-1h-1V197.93z M282.23,472.55v1.42l0.5-0.5v-1.42L282.23,472.55z M282.23,350.03h0.5v-0.5h-0.5V350.03z
		 M258.07,222.61h0.5v-0.5h-0.5V222.61z M257.57,247.29h1v-1h-1V247.29z M257.57,260.13v64.73h0.5v1h0.5v-65.73H257.57z
		 M258.07,375.21h0.5v-0.5h-0.5V375.21z M258.07,388.04v73.78l0.5-0.5v-73.28H258.07z M258.07,388.04v73.78l0.5-0.5v-73.28H258.07z
		 M258.07,388.04v73.78l0.5-0.5v-73.28H258.07z M258.07,388.04v73.78l0.5-0.5v-73.28H258.07z M258.07,388.04v73.78l0.5-0.5v-73.28
		H258.07z M258.07,388.04v73.78l0.5-0.5v-73.28H258.07z M282.23,375.21h0.5v-1h-0.5V375.21z M282.23,388.04v49.61l0.5-0.5v-49.11
		H282.23z M258.07,388.04v73.78l0.5-0.5v-73.28H258.07z M258.07,388.04v73.78l0.5-0.5v-73.28H258.07z M258.07,388.04v73.78l0.5-0.5
		v-73.28H258.07z M258.07,388.04v73.78l0.5-0.5v-73.28H258.07z M258.07,222.61h0.5v-0.5h-0.5V222.61z M257.57,247.29h1v-1h-1V247.29
		z M257.57,260.13v64.73h0.5v0.5h0.5v-65.23H257.57z M258.07,375.21h0.5v-0.5h-0.5V375.21z M258.07,388.04v73.78l0.5-0.5v-73.28
		H258.07z M258.07,388.04v73.78l0.5-0.5v-73.28H258.07z M258.07,388.04v73.78l0.5-0.5v-73.28H258.07z M258.07,388.04v73.78l0.5-0.5
		v-73.28H258.07z M258.07,388.04v73.78l0.5-0.5v-73.28H258.07z M258.07,388.04v73.78l0.5-0.5v-73.28H258.07z M282.23,375.21h0.5v-1
		h-0.5V375.21z M282.23,388.04v49.61l0.5-0.5v-49.11H282.23z M258.07,388.04v73.78l0.5-0.5v-73.28H258.07z M258.07,388.04v73.78
		l0.5-0.5v-73.28H258.07z M258.07,388.04v73.78l0.5-0.5v-73.28H258.07z M258.07,388.04v73.78l0.5-0.5v-73.28H258.07z M258.07,222.61
		h0.5v-0.5h-0.5V222.61z M257.57,247.29h1v-1h-1V247.29z M257.57,260.13v64.73h0.5v0.5h0.5v-65.23H257.57z M258.07,375.21h0.5v-0.5
		h-0.5V375.21z M258.07,388.04v73.78l0.5-0.5v-73.28H258.07z M258.07,388.04v73.78l0.5-0.5v-73.28H258.07z M258.07,388.04v73.78
		l0.5-0.5v-73.28H258.07z M258.07,388.04v73.78l0.5-0.5v-73.28H258.07z M258.07,388.04v73.78l0.5-0.5v-73.28H258.07z M258.07,388.04
		v73.78l0.5-0.5v-73.28H258.07z M282.23,375.21h0.5v-1h-0.5V375.21z M282.23,388.04v49.61l0.5-0.5v-49.11H282.23z M258.07,388.04
		v73.78l0.5-0.5v-73.28H258.07z M258.07,388.04v73.78l0.5-0.5v-73.28H258.07z M258.07,388.04v73.78l0.5-0.5v-73.28H258.07z
		 M258.07,388.04v73.78l0.5-0.5v-73.28H258.07z M258.07,222.61h0.5v-0.5h-0.5V222.61z M257.57,247.29h1v-1h-1V247.29z
		 M257.57,260.13v64.73h0.5v0.5h0.5v-65.23H257.57z"/>
	<path fill="#FFFFFF" d="M340.73,324.86l-24.67,24.67l20.51,0.5h-0.01l-0.49,0.5h0.7l-20-1l23.68-23.67l1-1H340.73z M365.41,300.18
		l-1,1h34.19l-24.68,24.68l-23.66,23.67l-24.68,24.68h-0.2l-1,1h0.9l75.03-75.03H365.41z M258.07,462.52l-0.5,0.5l-23.68,23.69l-1,1
		v0.71l25.68-25.68v-0.71L258.07,462.52z M282.23,438.36v34.19l-24.16,24.16l-0.5,0.51l-24.68,24.68l-23.68,23.67v-34.18l-1,1v34.89
		l75.02-75.02v-34.9L282.23,438.36z"/>
	<path fill="#FFFFFF" d="M324.67,374.21l-1,1h1.42l1-1H324.67z M340.73,324.86l-0.5,0.5h-0.71l-0.5,0.5l-2.67,23.67l-1,1h1.42l-20-1
		l23.68-23.67l1-1H340.73z M282.23,437.65v1.42l1-1v-1.42L282.23,437.65z M257.57,462.32l-23.68,23.69v0.7l-0.5,0.5v0.71
		l25.18-25.18v-1.42L257.57,462.32z M324.67,374.21l-1,1h1.42l1-1H324.67z M340.73,324.86l-0.5,0.5h-0.71l-0.5,0.5l-2.67,23.67l-1,1
		h1.42l-20-1l23.68-23.67l1-1H340.73z M282.23,437.65v1.42l1-1v-1.42L282.23,437.65z M257.57,462.32l-23.68,23.69v0.7l-0.5,0.5v0.71
		l25.18-25.18v-1.42L257.57,462.32z M257.57,462.32l-23.68,23.69v0.7l-0.5,0.5v0.71l25.18-25.18v-1.42L257.57,462.32z
		 M257.57,462.32l-23.68,23.69v0.7l-0.5,0.5v0.71l25.18-25.18v-1.42L257.57,462.32z M257.57,462.32l-23.68,23.69v0.7l-0.5,0.5v0.71
		l25.18-25.18v-1.42L257.57,462.32z M257.57,462.32l-23.68,23.69v0.7l-0.5,0.5v0.71l25.18-25.18v-1.42L257.57,462.32z
		 M257.57,462.32l-23.68,23.69v0.7l-0.5,0.5v0.71l25.18-25.18v-1.42L257.57,462.32z M257.57,462.32l-23.68,23.69v0.7l-0.5,0.5v0.71
		l25.18-25.18v-1.42L257.57,462.32z M257.57,462.32l-23.68,23.69v0.7l-0.5,0.5v0.71l25.18-25.18v-1.42L257.57,462.32z
		 M257.57,462.32l-23.68,23.69v0.7l-0.5,0.5v0.71l25.18-25.18v-1.42L257.57,462.32z M257.57,462.32l-23.68,23.69v0.7l-0.5,0.5v0.71
		l25.18-25.18v-1.42L257.57,462.32z M257.57,462.32l-23.68,23.69v0.7l-0.5,0.5v0.71l25.18-25.18v-1.42L257.57,462.32z
		 M258.07,462.52v-0.7l-0.5,0.5l-23.68,23.69v0.7l-0.5,0.5v0.71l25.18-25.18v-0.71L258.07,462.52z M258.07,462.52v-0.7l-0.5,0.5
		l-23.68,23.69v0.7l-0.5,0.5v0.71l25.18-25.18v-0.71L258.07,462.52z M257.57,462.32l-23.68,23.69v0.7l-0.5,0.5v0.71l25.18-25.18
		v-1.42L257.57,462.32z M258.07,496.71l-0.5,0.51l-24.68,24.68l-23.68,23.67l-1,1v1.42l1-1l23.68-23.67l25.68-25.68l23.66-23.67l1-1
		v-1.42L258.07,496.71z M258.07,462.52v-0.7l-0.5,0.5l-23.68,23.69v0.7l-0.5,0.5v0.71l25.18-25.18v-0.71L258.07,462.52z
		 M258.07,462.52v-0.7l-0.5,0.5l-23.68,23.69v0.7l-0.5,0.5v0.71l25.18-25.18v-0.71L258.07,462.52z M258.07,462.52v-0.7l-0.5,0.5
		l-23.68,23.69v0.7l-0.5,0.5v0.71l25.18-25.18v-0.71L258.07,462.52z M257.57,462.32l-23.68,23.69v0.7l-0.5,0.5v0.71l25.18-25.18
		v-1.42L257.57,462.32z M257.57,462.32l-23.68,23.69v0.7l-0.5,0.5v0.71l25.18-25.18v-1.42L257.57,462.32z M257.57,462.32
		l-23.68,23.69v0.7l-0.5,0.5v0.71l25.18-25.18v-1.42L257.57,462.32z M257.57,462.32l-23.68,23.69v0.7l-0.5,0.5v0.71l25.18-25.18
		v-1.42L257.57,462.32z M257.57,462.32l-23.68,23.69v0.7l-0.5,0.5v0.71l25.18-25.18v-1.42L257.57,462.32z M257.57,462.32
		l-23.68,23.69v0.7l-0.5,0.5v0.71l25.18-25.18v-1.42L257.57,462.32z M257.57,462.32l-23.68,23.69v0.7l-0.5,0.5v0.71l25.18-25.18
		v-1.42L257.57,462.32z M257.57,462.32l-23.68,23.69v0.7l-0.5,0.5v0.71l25.18-25.18v-1.42L257.57,462.32z M257.57,462.32
		l-23.68,23.69v0.7l-0.5,0.5v0.71l25.18-25.18v-1.42L257.57,462.32z M257.57,462.32l-23.68,23.69v0.7l-0.5,0.5v0.71l25.18-25.18
		v-1.42L257.57,462.32z M208.21,546.57v0.71l1-1v-0.71L208.21,546.57z M208.21,546.57v0.71l1-1v-0.71L208.21,546.57z M208.21,546.57
		v0.71l1-1v-0.71L208.21,546.57z M208.21,546.57v0.71l1-1v-0.71L208.21,546.57z M340.73,324.86l-0.5,0.5h-0.71l-0.5,0.5l-2.67,23.67
		l-1,1h1.42l-20-1l23.68-23.67l1-1H340.73z M340.73,324.86l-0.5,0.5h-0.71l-0.5,0.5l-2.67,23.67l-1,1h1.42l-20-1l23.68-23.67l1-1
		H340.73z M340.73,324.86l-0.5,0.5h-0.71l-0.5,0.5l-2.67,23.67l-1,1h1.42l-20-1l23.68-23.67l1-1H340.73z M340.73,324.86l-0.5,0.5
		h-0.71l-0.5,0.5l-2.67,23.67l-1,1h1.42l-20-1l23.68-23.67l1-1H340.73z M340.73,324.86l-0.5,0.5h-0.71l-0.5,0.5l-2.67,23.67
		l-0.5,0.5h0.71l-0.49,0.5h0.7l-20-1l23.68-23.67l1-1H340.73z M399.6,300.18l-25.68,25.68l-23.66,23.67l-25.68,25.68h1.41
		l25.68-25.68l23.67-23.67l25.68-25.68H399.6z M340.73,324.86l-0.5,0.5h-0.71l-0.5,0.5l-2.67,23.67l-0.5,0.5h0.71l-0.49,0.5h0.7
		l-20-1l23.68-23.67l1-1H340.73z M340.73,324.86l-0.5,0.5h-0.71l-0.5,0.5l-2.67,23.67l-1,1h1.42l-20-1l23.68-23.67l1-1H340.73z
		 M340.73,324.86l-0.5,0.5h-0.71l-0.5,0.5l-2.67,23.67l-1,1h1.42l-20-1l23.68-23.67l1-1H340.73z M340.73,324.86l-0.5,0.5h-0.71
		l-0.5,0.5l-2.67,23.67l-1,1h1.42l-20-1l23.68-23.67l1-1H340.73z M340.73,324.86l-0.5,0.5h-0.71l-0.5,0.5l-2.67,23.67l-1,1h1.42
		l-20-1l23.68-23.67l1-1H340.73z M208.21,546.57v0.71l1-1v-0.71L208.21,546.57z M208.21,546.57v0.71l1-1v-0.71L208.21,546.57z
		 M208.21,546.57v0.71l1-1v-0.71L208.21,546.57z M208.21,546.57v0.71l1-1v-0.71L208.21,546.57z M324.67,374.21l-1,1h1.42l1-1H324.67
		z M340.02,324.86l-1,1l-2.67,23.67l-1,1h1.42l-20-1l23.68-23.67l1-1H340.02z M364.7,300.18l-1,1h1.42l1-1H364.7z M208.21,546.57
		v0.71l1-1v-0.71L208.21,546.57z M208.21,546.57v0.71l1-1v-0.71L208.21,546.57z M282.23,437.65v1.42l1-1v-1.42L282.23,437.65z
		 M208.21,511.67v1.42l1-1v-1.42L208.21,511.67z M257.57,462.32l-23.68,23.69l-1,1v1.41l25.68-25.68v-1.42L257.57,462.32z
		 M208.21,546.57v0.71l1-1v-0.71L208.21,546.57z M208.21,546.57v0.71l1-1v-0.71L208.21,546.57z M208.21,546.57v0.71l1-1v-0.71
		L208.21,546.57z M208.21,546.57v0.71l1-1v-0.71L208.21,546.57z M208.21,546.57v0.71l1-1v-0.71L208.21,546.57z M208.21,546.57v0.71
		l1-1v-0.71L208.21,546.57z M208.21,546.57v0.71l1-1v-0.71L208.21,546.57z M208.21,546.57v0.71l1-1v-0.71L208.21,546.57z
		 M208.21,546.57v0.71l1-1v-0.71L208.21,546.57z M208.21,546.57v0.71l1-1v-0.71L208.21,546.57z M324.67,374.21l-1,1h1.42l1-1H324.67
		z M340.73,324.86l-0.5,0.5h-0.71l-0.5,0.5l-2.67,23.67l-1,1h1.42l-20-1l23.68-23.67l1-1H340.73z M282.23,437.65v1.42l1-1v-1.42
		L282.23,437.65z M257.57,462.32l-23.68,23.69v0.7l-0.5,0.5v0.71l25.18-25.18v-1.42L257.57,462.32z M324.67,374.21l-1,1h1.42l1-1
		H324.67z M340.73,324.86l-0.5,0.5h-0.71l-0.5,0.5l-2.67,23.67l-1,1h1.42l-20-1l23.68-23.67l1-1H340.73z M282.23,437.65v1.42l1-1
		v-1.42L282.23,437.65z M257.57,462.32l-23.68,23.69v0.7l-0.5,0.5v0.71l25.18-25.18v-1.42L257.57,462.32z"/>
	<polygon fill="#FFFFFF" points="427.86,196.93 402.68,222.11 402.19,222.61 401.48,222.61 427.16,196.93 	"/>
	<polygon fill="#FFFFFF" points="486.73,172.26 411.7,247.29 347.8,247.29 348.8,246.29 411.99,246.29 461.35,196.93 485.02,173.26 
		450.83,173.26 451.83,172.26 	"/>
	<path fill="#FFFFFF" d="M426.66,197.43l-0.5,0.5h-0.71l-23.68,23.68h0.71l-0.5,0.5h0.7l24.68-24.68H426.66z M486.02,172.26l-1,1
		l-23.67,23.67l-50.36,50.36h1.42l1-1l23.68-23.68l50.35-50.35H486.02z M426.66,197.43l-0.5,0.5h-0.71l-23.68,23.68h0.71l-0.5,0.5
		h0.7l24.68-24.68H426.66z M411.99,246.29l-1,1h0.71l1-1H411.99z M348.09,246.29l-1,1h1.41l1-1H348.09z M426.45,196.93l-25.68,25.68
		h1.42l0.49-0.5l25.18-25.18H426.45z M451.12,172.26l-1,1h1.41l1-1H451.12z M411.99,246.29l-1,1h0.71l1-1H411.99z M426.66,197.43
		l-0.5,0.5h-0.71l-23.68,23.68h0.71l-0.5,0.5h0.7l24.68-24.68H426.66z"/>
</g>
<g>
	<g>
		<path fill="#D2202B" d="M299.04,152.24c0,0-48.26-58.71-61.79-61.05c-8.71-1.51-60.03,3.49-67.64,9.52
			c-7.61,6.03-15.44,36.97-26.89,40.55c-25.54,7.98-23.03,46.18-23.03,46.18l8.13,6.78c0,0,11.62-24.15,29.33-28.45
			c12.16-2.96,20.16-15.88,20.16-15.88c0.96,8.67,9.22,40.53,22.48,57.9L299.04,152.24z"/>
		<g>
			<path fill="#991C1F" d="M177.69,129.29c-0.96,6.56-1.3,13.23-1,19.89c0.35,6.66,1.34,13.29,2.95,19.78
				c1.62,6.48,3.64,12.93,6.71,18.9c3.04,5.97,6.7,11.62,11.09,16.64l0.23-0.16c-3.12-5.88-6.17-11.69-8.81-17.68
				c-2.62-5.98-5.25-11.98-7.07-18.29c-1.84-6.29-3.09-12.76-3.71-19.31c-0.67-6.54-0.7-13.17-0.11-19.76L177.69,129.29z"/>
			<path fill="#991C1F" d="M171.1,139.16c0.22,1.09,0.55,2.16,0.9,3.23c0.37,1.06,0.8,2.1,1.28,3.11c0.48,1.01,0.88,2.1,1.63,2.96
				c0.74,0.86,1.59,1.65,2.69,2.16l0.14-0.12c-0.32-1.17-0.8-2.14-1.3-3.09c-0.49-0.96-1.27-1.74-1.87-2.64
				c-0.6-0.9-1.18-1.82-1.73-2.77c-0.57-0.94-1.07-1.91-1.57-2.9L171.1,139.16z"/>
			<path opacity="0.2" fill="#D2202B" d="M131.15,169.02c3.32-4.04,8.25-5.91,12.57-8.6c5.89-3.66,11.24-8.22,14.4-14.49
				c3.13-6.22,2.72-12.29,3.62-18.94c0.46-3.44,1.73-6.49,4.59-8.53c6.28-4.5,15.58-3.34,22.97-1.39c4.38,4.34,7.45,9.64,10.5,14.98
				c8.57,15.02,16.08,32.98,32.96,40.3c8.47,3.68,17.11,4.13,25.62,2.66l-58.59,32.79c-13.26-17.37-21.53-49.23-22.48-57.9
				c0,0-8,12.93-20.16,15.88c-17.7,4.3-29.33,28.45-29.33,28.45l-4.49-3.74C124.75,182.89,126.39,174.8,131.15,169.02z"/>
			<path opacity="0.2" fill="#D2202B" d="M147.12,163.18c8.81-4.71,17.51-8.77,21.83-18.42c1.7-3.79,2.23-7.75,3.64-11.6
				c0.7-1.91,1.77-3.61,2.98-5.23c1.65,0.62,3.16,1.47,4.37,2.77c3.91,4.21,7.27,12.23,8.91,17.7c3.44,11.43,3.39,24.5,12.83,33.15
				c8.66,7.93,20.12,9.42,31.37,7.61l-33.28,18.62c-13.26-17.37-21.53-49.23-22.48-57.9c0,0-8,12.93-20.16,15.88
				c-17.7,4.3-29.33,28.45-29.33,28.45l-1.56-1.3C130.39,180.93,134.94,169.69,147.12,163.18z"/>
		</g>
	</g>
	<g>
		<path fill="#F3F3F3" d="M204.51,234.95c0.54,0.21,1.85-1.82,4.06-2.67c1.16-0.44,3.64,1.65,5.18,0.96
			c1.22-0.55,1.81-2.84,3.25-3.52c1.25-0.59,2.9-0.56,4.29-1.25c1.26-0.62,3.05-0.35,4.41-1.04c1.26-0.64,1.82-2.79,3.16-3.48
			c1.27-0.66,2.14-2.16,3.46-2.86c1.27-0.67,3.47,0.34,4.79-0.37c1.27-0.68,1.43-3.5,2.74-4.2c1.27-0.69,3.69,0.68,4.99-0.03
			c1.27-0.7,1.59-3.17,2.89-3.89c1.28-0.7,2.39-1.71,3.68-2.42c1.28-0.71,3.56,0.37,4.85-0.35c1.28-0.71,2.52-1.51,3.8-2.23
			c1.28-0.72,1.69-2.97,2.97-3.69c1.28-0.73,3.43,0.08,4.7-0.65c1.28-0.73,2.89-0.89,4.15-1.62c1.28-0.74,0.9-4.34,2.16-5.07
			c1.28-0.74,3.32-0.16,4.57-0.9c1.28-0.75,2.36-1.8,3.61-2.54c1.28-0.76,2.84-1.01,4.08-1.75c1.29-0.77,3.25-0.36,4.48-1.1
			c1.29-0.77,1.16-3.83,2.38-4.57c1.29-0.79,2.41-1.76,3.62-2.51c1.3-0.8,2.66-1.38,3.85-2.12c1.31-0.82,2.09-2.29,3.26-3.04
			c1.34-0.86,2.63-1.49,3.75-2.24c1.4-0.94,2.54-1.73,3.55-2.46c2-1.46,6.35-0.3,6.44-0.74c0.13-0.71-4.46-1.56-5.28-3.53
			c-0.48-1.15,3.08-4.38,2.34-5.83c-0.61-1.19-1.34-2.54-2.09-3.87c-0.67-1.2-1.28-2.6-2.05-3.88c-0.72-1.21-4.04-0.88-4.83-2.11
			c-0.77-1.2,0.09-3.5-0.72-4.7c-0.81-1.2-4.01-0.73-4.84-1.9c-0.85-1.19-0.98-2.84-1.84-3.97c-0.9-1.18-0.13-3.66-1.02-4.73
			c-0.97-1.16-3.16-1.2-4.1-2.19c-1.07-1.14-2.54-1.61-3.53-2.46c-1.27-1.1-2.86-0.49-3.93-0.99c-0.88-0.41-1.63-3.24-3.6-2.58
			c-1.19,0.4-1.88,2.66-3.4,3.39c-1.22,0.59-3.17,0.01-4.58,0.79c-1.22,0.68-2.08,2.16-3.42,2.96c-1.21,0.73-3.44-0.04-4.75,0.78
			c-1.21,0.76-1.21,3.51-2.49,4.34c-1.21,0.79-4.12-0.9-5.38-0.05c-1.2,0.81-2.29,1.88-3.54,2.74c-1.2,0.83,0.08,5.25-1.14,6.11
			c-1.19,0.84-3.11,0.67-4.33,1.55c-1.19,0.86-1.91,2.36-3.12,3.24c-1.19,0.87-3.34,0.43-4.54,1.31c-1.19,0.88-2.7,1.32-3.89,2.21
			c-1.18,0.89-1.56,2.84-2.74,3.74c-1.18,0.9-3,0.95-4.17,1.85c-1.18,0.9-4.02-0.33-5.18,0.57c-1.18,0.91-2.29,1.92-3.45,2.82
			c-1.17,0.92,0.47,5.4-0.69,6.31c-1.17,0.93-3.09,0.9-4.23,1.81c-1.17,0.94-4.07-0.29-5.21,0.63c-1.17,0.95,0.41,5.24-0.71,6.16
			c-1.17,0.96-4.25-0.45-5.36,0.47c-1.17,0.98-2.05,2.25-3.14,3.17c-1.18,0.99-0.66,3.87-1.73,4.8c-1.18,1.02-3.75,0.31-4.8,1.23
			c-1.2,1.06-3.16,1.12-4.16,2.04c-1.25,1.15-1.74,2.84-2.63,3.73c-1.64,1.64-2.44,3.04-2.66,3.61c-0.36,0.96,2,1.9,2.42,3.65
			c0.29,1.21-1.23,2.99-0.67,4.43c0.49,1.23-1.14,3.57-0.5,4.9c0.59,1.23,5.21,0.44,5.9,1.7c0.67,1.23,0.28,3,1.02,4.2
			c0.75,1.22,1.84,2.13,2.61,3.26c0.83,1.22-1.24,4.49-0.43,5.55c0.95,1.22,1.83,2.65,2.7,3.55
			C201,234.72,203.61,234.61,204.51,234.95z"/>
		<path opacity="0.2" fill="#CECECD" d="M187.95,215.15c-0.64-1.33,0.99-3.66,0.5-4.9c-0.57-1.44,0.95-3.23,0.67-4.43
			c-0.42-1.75-2.78-2.69-2.42-3.65c0.21-0.57,1.01-1.97,2.66-3.61c0.89-0.89,1.38-2.58,2.63-3.73c1-0.92,2.96-0.98,4.16-2.04
			c1.05-0.92,3.62-0.21,4.8-1.23c1.08-0.93,0.56-3.81,1.73-4.8c0.25-0.21,0.49-0.44,0.72-0.68c5.8,9.08,16.79,15.26,26.99,17.82
			c5.51,1.38,11.87,1.71,17.38,0.23c6.58-1.77,10.38-6.56,14.13-11.85c0.06-0.09,0.12-0.16,0.17-0.23c0.83-0.16,1.74-0.11,2.56-0.17
			c3.07-0.25,6.23-0.26,9.24-0.98c6.07-1.45,11.82-4.67,17.53-7.12c8.4-3.6,16.09-7.37,22.57-13.17c1.62,0.94,3.76,1.49,3.67,1.98
			c-0.08,0.44-4.44-0.72-6.44,0.74c-1,0.73-2.14,1.52-3.54,2.46c-1.11,0.75-2.41,1.38-3.75,2.24c-1.16,0.75-1.94,2.22-3.26,3.04
			c-1.19,0.75-2.55,1.32-3.85,2.12c-1.21,0.75-2.32,1.72-3.62,2.51c-1.22,0.74-1.09,3.8-2.38,4.57c-1.23,0.74-3.19,0.33-4.48,1.1
			c-1.24,0.74-2.8,0.99-4.08,1.75c-1.25,0.74-2.33,1.79-3.61,2.54c-1.26,0.73-3.29,0.15-4.57,0.9c-1.26,0.73-0.88,4.33-2.16,5.07
			c-1.27,0.73-2.87,0.89-4.15,1.62c-1.27,0.73-3.42-0.08-4.7,0.65c-1.28,0.72-1.69,2.97-2.97,3.69c-1.28,0.72-2.52,1.52-3.8,2.23
			c-1.29,0.72-3.57-0.36-4.85,0.35c-1.29,0.72-2.41,1.72-3.68,2.42c-1.3,0.71-1.61,3.19-2.89,3.89c-1.3,0.71-3.72-0.66-4.99,0.03
			c-1.31,0.71-1.46,3.52-2.74,4.2c-1.32,0.7-3.52-0.31-4.79,0.37c-1.33,0.7-2.2,2.2-3.46,2.86c-1.34,0.7-1.9,2.84-3.16,3.48
			c-1.36,0.69-3.15,0.42-4.41,1.04c-1.39,0.69-3.04,0.66-4.29,1.25c-1.43,0.68-2.02,2.98-3.25,3.52c-1.54,0.69-4.02-1.4-5.18-0.96
			c-2.21,0.85-3.52,2.88-4.06,2.67c-0.9-0.35-3.5-0.24-4.76-1.55c-0.86-0.9-1.75-2.33-2.7-3.55c-0.81-1.05,1.25-4.33,0.43-5.55
			c-0.77-1.13-1.87-2.04-2.61-3.26c-0.73-1.2-0.34-2.97-1.02-4.2C193.16,215.59,188.54,216.38,187.95,215.15z"/>
		<path opacity="0.2" fill="#CECECD" d="M187.95,215.15c-0.64-1.33,0.99-3.66,0.5-4.9c-0.57-1.44,0.95-3.23,0.67-4.43
			c-0.42-1.75-2.78-2.69-2.42-3.65c0.21-0.57,1.01-1.97,2.66-3.61c0.78-0.78,1.26-2.18,2.21-3.28c4.13,11.42,14.16,18.1,26.37,20.72
			c5.59,1.2,11.01,2.1,16.46,3.83c0.97,0.31,1.93,0.55,2.87,0.75c-0.05,0.04-0.1,0.09-0.15,0.12c-1.32,0.7-3.52-0.31-4.79,0.37
			c-1.33,0.7-2.2,2.2-3.46,2.86c-1.34,0.7-1.9,2.84-3.16,3.48c-1.36,0.69-3.15,0.42-4.41,1.04c-1.39,0.69-3.04,0.66-4.29,1.25
			c-1.43,0.68-2.02,2.98-3.25,3.52c-1.54,0.69-4.02-1.4-5.18-0.96c-2.21,0.85-3.52,2.88-4.06,2.67c-0.9-0.35-3.5-0.24-4.76-1.55
			c-0.86-0.9-1.75-2.33-2.7-3.55c-0.81-1.05,1.25-4.33,0.43-5.55c-0.77-1.13-1.87-2.04-2.61-3.26c-0.73-1.2-0.34-2.97-1.02-4.2
			C193.16,215.59,188.54,216.38,187.95,215.15z"/>
	</g>
	<g>
		<path fill="#F3F3F3" d="M101.05,175.39c-0.22,0.38-2.06-0.14-2.26,0.24c-0.2,0.39,0.24,1.13,0.06,1.52
			c-0.18,0.4-0.68,0.7-0.83,1.1c-0.15,0.41-0.75,0.73-0.87,1.14c-0.13,0.42,1.18,1.25,1.07,1.67c-0.1,0.42-1.07,0.68-1.14,1.1
			c-0.08,0.43-0.44,0.86-0.49,1.29c-0.05,0.43-0.31,0.91-0.34,1.34c-0.02,0.44,1.23,0.93,1.24,1.36c0,0.44-0.67,0.91-0.64,1.34
			c0.03,0.43,0.54,0.84,0.59,1.27c0.06,0.43-0.01,0.89,0.07,1.32c0.08,0.43-0.02,0.91,0.09,1.33c0.11,0.42,1.37,0.5,1.5,0.91
			c0.13,0.41,0.16,0.82,0.32,1.22c0.16,0.41-1.35,1.52-1.17,1.92c0.18,0.4,0.88,0.59,1.09,0.98c0.2,0.38-0.18,1.17,0.05,1.54
			c0.23,0.37,1.55,0.07,1.8,0.43c0.25,0.36,0.93,0.37,1.2,0.72c0.27,0.34,0.72,0.48,1.01,0.8c0.29,0.32,0.02,1.16,0.33,1.46
			c0.31,0.3,0.95,0.23,1.28,0.51c0.33,0.28,0.62,0.57,0.96,0.84c0.34,0.26,0.6,0.61,0.96,0.86c0.36,0.24,0.37,1.03,0.75,1.25
			c0.38,0.22,0.95,0.12,1.33,0.31c0.39,0.2,0.32,1.42,0.72,1.59c0.4,0.18,1.67-1.78,2.07-1.63c0.41,0.15,0.64,0.65,1.05,0.77
			c0.42,0.13,0.5,1.46,0.92,1.56c0.42,0.1,1.09-1,1.52-0.93c0.43,0.08,0.65,1.55,1.09,1.6c0.43,0.05,0.89,0.36,1.33,0.39
			c0.44,0.02,0.92-1.56,1.35-1.56c0.44,0,0.95,1.64,1.38,1.61c0.43-0.03,0.77-1.28,1.21-1.33c0.43-0.06,0.94,0.36,1.37,0.28
			c0.43-0.08,0.74-0.68,1.17-0.78c0.42-0.11,0.6-0.95,1.01-1.08c0.41-0.13,1.1,0.6,1.51,0.45c0.41-0.16,1.14,0.4,1.53,0.22
			c0.4-0.18,0.14-1.69,0.52-1.89c0.38-0.2,1,0.06,1.38-0.17c0.37-0.23,1.27,0.32,1.63,0.07c0.36-0.25,0.6-0.71,0.94-0.99
			c0.34-0.27,0.36-0.94,0.69-1.24c0.32-0.29,0.94-0.3,1.24-0.61c0.3-0.31,0.41-0.83,0.7-1.16c0.28-0.33-0.5-1.49-0.23-1.84
			c0.26-0.34,1.7,0.19,1.95-0.17c0.24-0.36,0.54-0.71,0.77-1.08c0.22-0.38-0.68-1.36-0.48-1.74c0.2-0.39,1.78-0.11,1.95-0.5
			c0.18-0.4,0.49-0.79,0.64-1.2c0.15-0.41-1.1-1.3-0.97-1.71c0.13-0.42,0.21-0.8,0.31-1.23c0.1-0.42,1.51-0.58,1.58-1
			c0.08-0.43-1.14-1.05-1.09-1.48c0.05-0.43,1.59-0.75,1.62-1.18c0.02-0.44-1.61-0.91-1.62-1.35c0-0.44,0.36-0.85,0.33-1.28
			c-0.03-0.43,0.65-0.94,0.59-1.37c-0.06-0.43,0.39-0.98,0.31-1.41c-0.08-0.43-1.62-0.54-1.73-0.96c-0.11-0.42,0.24-0.95,0.1-1.36
			c-0.13-0.41,0.99-1.31,0.84-1.71c-0.16-0.41-0.5-0.81-0.68-1.2c-0.18-0.4-2.45,0.25-2.65-0.14c-0.2-0.38,0.64-1.32,0.41-1.69
			c-0.23-0.37-1.42-0.06-1.67-0.42c-0.25-0.36-0.4-0.69-0.67-1.04c-0.27-0.34-0.53-0.6-0.82-0.92c-0.29-0.32-0.14-1-0.45-1.3
			c-0.31-0.3,0.1-1.38-0.23-1.66c-0.33-0.28-0.36-1-0.71-1.26c-0.34-0.26-1.48,0.53-1.84,0.28c-0.36-0.24-0.32-1.12-0.7-1.34
			c-0.38-0.22-0.83-0.36-1.21-0.56c-0.39-0.2-1.24,0.59-1.64,0.42c-0.4-0.18-0.78-0.28-1.18-0.43c-0.41-0.15-0.79-0.22-1.21-0.35
			c-0.42-0.13-0.87,0.13-1.3,0.03c-0.42-0.1-0.53-1.56-0.96-1.64c-0.43-0.08-0.82-0.59-1.25-0.64c-0.43-0.05-0.96,0.96-1.4,0.93
			c-0.44-0.02-0.84,0.51-1.28,0.51c-0.44,0-0.88-0.96-1.31-0.93c-0.43,0.03-0.98-0.78-1.41-0.72c-0.43,0.06-0.67,1.43-1.09,1.51
			c-0.43,0.08-1.08-0.83-1.5-0.73c-0.42,0.11-0.59,1.13-1.01,1.26c-0.41,0.13-1.24-0.86-1.65-0.7c-0.41,0.16-0.22,1.75-0.61,1.93
			c-0.4,0.18-0.97-0.06-1.36,0.14c-0.38,0.2-0.78,0.37-1.15,0.6c-0.37,0.23-0.85,0.29-1.2,0.54c-0.36,0.25-0.9,0.27-1.24,0.54
			c-0.34,0.27-0.39,0.9-0.72,1.19c-0.32,0.29-0.06,1.15-0.37,1.46c-0.3,0.31-1.86-0.54-2.15-0.21c-0.28,0.33,1.09,2,0.82,2.35
			c-0.26,0.34-1.13,0.19-1.38,0.55C101.18,174.49,101.27,175.02,101.05,175.39z"/>
		<path opacity="0.2" fill="#CECECD" d="M99.34,196.47c-0.2-0.38-0.91-0.58-1.09-0.98c-0.16-0.35,0.97-1.25,1.15-1.74
			c2.59,1.96,5.63,3.19,9.01,3.28c7.18,0.19,14.3-4.49,19.73-8.8c4.7-3.74,7.08-9.45,6.67-15.09c0.04,0.05,0.09,0.1,0.13,0.15
			c0.27,0.34,0.43,0.68,0.67,1.04c0.25,0.36,1.44,0.05,1.67,0.42c0.23,0.37-0.61,1.31-0.41,1.69c0.2,0.38,2.47-0.26,2.65,0.14
			c0.18,0.4,0.53,0.8,0.68,1.2c0.16,0.41-0.97,1.3-0.84,1.71c0.13,0.41-0.21,0.94-0.1,1.36c0.11,0.42,1.64,0.53,1.73,0.96
			c0.08,0.43-0.37,0.98-0.31,1.41c0.06,0.43-0.62,0.93-0.59,1.37c0.03,0.43-0.33,0.85-0.33,1.28c0,0.43,1.64,0.91,1.62,1.35
			c-0.02,0.43-1.57,0.75-1.62,1.18c-0.05,0.43,1.16,1.05,1.09,1.48c-0.08,0.43-1.48,0.58-1.58,1c-0.1,0.42-0.18,0.81-0.31,1.23
			c-0.13,0.41,1.12,1.3,0.97,1.71c-0.15,0.41-0.47,0.8-0.64,1.2c-0.18,0.4-1.75,0.11-1.95,0.5c-0.2,0.38,0.7,1.37,0.48,1.74
			s-0.53,0.73-0.77,1.08c-0.25,0.36-1.68-0.17-1.95,0.17c-0.27,0.35,0.51,1.51,0.23,1.84c-0.29,0.33-0.39,0.85-0.7,1.16
			c-0.31,0.31-0.92,0.32-1.24,0.61c-0.32,0.29-0.35,0.97-0.69,1.24c-0.34,0.27-0.59,0.74-0.94,0.99c-0.36,0.25-1.26-0.29-1.63-0.07
			c-0.37,0.23-0.99-0.04-1.38,0.17c-0.38,0.2-0.13,1.71-0.52,1.89c-0.4,0.18-1.13-0.38-1.53-0.22c-0.41,0.16-1.09-0.58-1.51-0.45
			c-0.41,0.13-0.59,0.98-1.01,1.08c-0.42,0.11-0.74,0.7-1.17,0.78c-0.43,0.08-0.94-0.33-1.37-0.28c-0.43,0.06-0.77,1.3-1.21,1.33
			c-0.43,0.03-0.94-1.61-1.38-1.61c-0.43,0-0.92,1.59-1.35,1.56c-0.43-0.02-0.89-0.34-1.33-0.39c-0.43-0.05-0.66-1.52-1.09-1.6
			c-0.43-0.08-1.09,1.03-1.52,0.93c-0.42-0.1-0.5-1.43-0.92-1.56c-0.41-0.13-0.64-0.62-1.05-0.77c-0.41-0.15-1.67,1.81-2.07,1.63
			c-0.4-0.18-0.33-1.39-0.72-1.59c-0.38-0.2-0.95-0.09-1.33-0.31c-0.38-0.22-0.39-1.01-0.75-1.25c-0.36-0.25-0.62-0.6-0.96-0.86
			c-0.35-0.27-0.64-0.55-0.96-0.84c-0.33-0.29-0.98-0.21-1.28-0.51c-0.31-0.31-0.04-1.14-0.33-1.46c-0.29-0.32-0.74-0.47-1.01-0.8
			c-0.27-0.34-0.95-0.36-1.2-0.72c-0.25-0.36-1.57-0.06-1.8-0.43C99.16,197.64,99.54,196.85,99.34,196.47z"/>
		<path opacity="0.2" fill="#CECECD" d="M105.96,202.78c-0.33-0.26-0.62-0.53-0.93-0.81c0.48,0.09,0.97,0.16,1.47,0.2
			c8.59,0.71,18.11-1.98,24.66-7.66c5.48-4.76,7.7-11.4,6.98-18c0.64-0.06,1.29-0.14,1.38,0.07c0.18,0.4,0.53,0.8,0.68,1.2
			c0.16,0.41-0.97,1.3-0.84,1.71c0.13,0.41-0.21,0.94-0.1,1.36c0.11,0.42,1.64,0.53,1.73,0.96c0.08,0.43-0.37,0.98-0.31,1.41
			c0.06,0.43-0.62,0.93-0.59,1.37c0.03,0.43-0.33,0.85-0.33,1.28c0,0.43,1.64,0.91,1.62,1.35c-0.02,0.43-1.57,0.75-1.62,1.18
			c-0.05,0.43,1.16,1.05,1.09,1.48c-0.08,0.43-1.48,0.58-1.58,1c-0.1,0.42-0.18,0.81-0.31,1.23c-0.13,0.41,1.12,1.3,0.97,1.71
			c-0.15,0.41-0.47,0.8-0.64,1.2c-0.18,0.4-1.75,0.11-1.95,0.5c-0.2,0.38,0.7,1.37,0.48,1.74s-0.53,0.73-0.77,1.08
			c-0.25,0.36-1.68-0.17-1.95,0.17c-0.27,0.35,0.51,1.51,0.23,1.84c-0.29,0.33-0.39,0.85-0.7,1.16c-0.31,0.31-0.92,0.32-1.24,0.61
			c-0.32,0.29-0.35,0.97-0.69,1.24c-0.34,0.27-0.59,0.74-0.94,0.99c-0.36,0.25-1.26-0.29-1.63-0.07c-0.37,0.23-0.99-0.04-1.38,0.17
			c-0.38,0.2-0.13,1.71-0.52,1.89c-0.4,0.18-1.13-0.38-1.53-0.22c-0.41,0.16-1.09-0.58-1.51-0.45c-0.41,0.13-0.59,0.98-1.01,1.08
			c-0.42,0.11-0.74,0.7-1.17,0.78c-0.43,0.08-0.94-0.33-1.37-0.28c-0.43,0.06-0.77,1.3-1.21,1.33c-0.43,0.03-0.94-1.61-1.38-1.61
			c-0.43,0-0.92,1.59-1.35,1.56c-0.43-0.02-0.89-0.34-1.33-0.39c-0.43-0.05-0.66-1.52-1.09-1.6c-0.43-0.08-1.09,1.03-1.52,0.93
			c-0.42-0.1-0.5-1.43-0.92-1.56c-0.41-0.13-0.64-0.62-1.05-0.77c-0.41-0.15-1.67,1.81-2.07,1.63c-0.4-0.18-0.33-1.39-0.72-1.59
			c-0.38-0.2-0.95-0.09-1.33-0.31c-0.38-0.22-0.39-1.01-0.75-1.25C106.56,203.39,106.31,203.04,105.96,202.78z"/>
	</g>
</g>
</svg>
