<svg xmlns="http://www.w3.org/2000/svg" width="1000" height="400"><g fill="#FFF"><path d="M21.083 12.634v24.671h219.15l.5-.5H22.083V13.134h275.81l-23.67 23.671-.5.5h1.42l24.67-24.671z"/><path d="M45.753 36.805v.5h.5v.5h192.78l.5-.5h.7l.5-.5H45.753zm0 0v.5h.5v.5h192.78l.5-.5h.7l.5-.5H45.753zm0 0v.5h.5v.5h192.78l.5-.5h.7l.5-.5H45.753zm0 0v.5h.5v.5h192.78l.5-.5h.7l.5-.5H45.753zm0 0v.5h.5v.5h192.78l.5-.5h.7l.5-.5H45.753zm0 0v.5h.5v.5h192.78l.5-.5h.7l.5-.5H45.753zm0 0v.5h.5v.5h192.78l.5-.5h.7l.5-.5H45.753zm0 0v.5h.5v.5h192.78l.5-.5h.7l.5-.5H45.753zm0 0v.5h.5v.5h192.78l.5-.5h.7l.5-.5H45.753zm0 0v.5h.5v.5h192.78l.5-.5h.7l.5-.5H45.753zm0 0v.5h.5v.5h192.78l.5-.5h.7l.5-.5H45.753zm0 0v.5h.5v.5h192.78l.5-.5h.7l.5-.5H45.753zm-23.67 0v.5h218.15l.5-.5H22.083zm-1-24.671v1h278.23l1-1H21.083zm24.67 24.671v.5h.5v.5h192.78l.5-.5h.7l.5-.5H45.753zm0 0v.5h.5v.5h192.78l.5-.5h.7l.5-.5H45.753zm0 0v.5h.5v.5h192.78l.5-.5h.7l.5-.5H45.753zm0 0v.5h.5v.5h192.78l.5-.5h.7l.5-.5H45.753zm0 0v.5h.5v.5h192.78l.5-.5h.7l.5-.5H45.753zm0 0v.5h.5v.5h192.78l.5-.5h.7l.5-.5H45.753zm0 0v.5h.5v.5h192.78l.5-.5h.7l.5-.5H45.753zm0 0v.5h.5v.5h192.78l.5-.5h.7l.5-.5H45.753zm0 0v.5h.5v.5h192.78l.5-.5h.7l.5-.5H45.753zm0 0v.5h.5v.5h192.78l.5-.5h.7l.5-.5H45.753zm0 0v.5h.5v.5h192.78l.5-.5h.7l.5-.5H45.753zm0 0v.5h.5v.5h192.78l.5-.5h.7l.5-.5H45.753zm228.47 0l-1 1h1.42l1-1h-1.42zm-253.14 0v1h218.65l1-1H21.083zm24.67 0v.5h.5v.5h192.78l.5-.5h.7l.5-.5H45.753zm169.8 25.179l-.49.5H22.083v24.18h-1v-24.68zm-169.79 24.18h25.68v.5h-25.68zm204.7-24.18l-.5.5-23.68 23.68-.5.5H95.103v-.5h129.76l24.18-24.18z"/><path d="M45.763 86.164v.5h1v.5h23.68v-.5h.5v-.5h-25.18zm0 .5h.5v-.5h-.5v.5zm-24.68-25.18v1h193.98l.489-.5.5-.5H21.083zm24.68 25.18h.5v-.5h-.5v.5zm203.78-25.18l-1 1h1.42l1-1h-1.42zm-203.78 24.68v.5h1v.5h23.68v-.5h.5v-.5h-25.18zm0 0v.5h1v.5h23.68v-.5h.5v-.5h-25.18zm169.091-24.18l.5-.5H70.443v1h144.621l.489-.5h-.699zm0 0l.5-.5H70.443v1h144.621l.489-.5h-.699zm0 0l.5-.5H70.443v1h144.621l.489-.5h-.699zm0 0l.5-.5H70.443v1h144.621l.489-.5h-.699zm0 0l.5-.5H70.443v1h144.621l.489-.5h-.699zM45.763 87.164h25.68v-1h-25.68v1zm49.34-1v1h130.18l1-1H95.103zm-74.02 1h1v-1h-1v1zm193.771-25.18l.5-.5H70.443v1h144.621l.489-.5h-.699zm0 0l.5-.5H70.443v1h144.621l.489-.5h-.699zm0 0l.5-.5H70.443v1h144.621l.489-.5h-.699zm0 0l.5-.5H70.443v1h144.621l.489-.5h-.699zm0 0l.5-.5H70.443v1h144.621l.489-.5h-.699zm-65.911 128.42h.7l-.668-.033-.032.033zm-19.299-1l19.332.967.458-.467h-.71l.5-.5h-19.58zm34.899 0l-24.68 24.68h-1.41l24.68-24.68zm-143.46-48.35h1.001v23.681h-1.001zm24.68 0h1v23.681h-1zm24.68 0h1v23.681h-1z"/><path d="M211.473 141.055l-24.68 24.679-23.66 23.67-24.68 24.68h-92.69v114.211l25.68-25.68v-74.701h23.66v84.51l-24.16 24.16-.5.51-24.68 24.681-23.68 23.67V214.084h-1v-23.68h128.56l-20-1 23.68-23.67 1-1h-82.88v-64.73h23.66v41.051z"/><path d="M297.893 13.134l-23.67 23.671-49.36 49.359H95.103v1h-23.66v-1h-25.68v78.57h-23.68V62.484h192.98l.49-.5 25.18-25.179H22.083V13.134zm-144.289 151.6l-.5.5h-.71l-.5.5h1.429l1-1zm59.289-23.679l-24.68 24.679h-1.42l24.68-24.679zm-191.81 23.679h25.681v.5H21.083z"/><path d="M70.443 164.734v.5h82.661l.5-.5zm-49.36-24.179h1.001v.5h-1.001zm24.68 0h1v.5h-1zm24.68 0h1v.5h-1zm24.66 0v.5h117.791l.5-.5z"/><path d="M70.943 164.734v1h80.95l.5-.5h.711l.5-.5H70.943zm141.03-24.179l-.5.5h1.42l.5-.5h-1.42zm0 0l-.5.5h1.42l.5-.5h-1.42zm0 0l-.5.5h1.42l.5-.5h-1.42zm0 0l-.5.5h1.42l.5-.5h-1.42zm0 0l-.5.5h1.42l.5-.5h-1.42zm-141.53 24.179v1h81.45l.5-.5h.711l.5-.5H70.443zm-49.36 1h25.68v-1h-25.68v1zm190.89-25.179l-.5.5h1.42l.5-.5h-1.42zm0 0l-.5.5h1.42l.5-.5h-1.42zm0 0l-.5.5h1.42l.5-.5h-1.42zm0 0l-.5.5h1.42l.5-.5h-1.42zm0 0l-.5.5h1.42l.5-.5h-1.42zm-141.03 24.179v1h80.95l.5-.5h.711l.5-.5H70.943zm0 0v1h80.95l.5-.5h.711l.5-.5H70.943zm0 0v1h80.95l.5-.5h.711l.5-.5H70.943zm0 0v1h80.95l.5-.5h.711l.5-.5H70.943zm-.5 0v1h81.45l.5-.5h.711l.5-.5H70.443zm-49.36-23.679h1v-1h-1v1zm74.02-1v1h117.79l1-1H95.103zm-24.66 1h1v-1h-1v1zm-24.68 0h1v-1h-1v1zm25.18 23.679v1h80.95l.5-.5h.711l.5-.5H70.943zm0 0v1h80.95l.5-.5h.711l.5-.5H70.943zm0 0v1h80.95l.5-.5h.711l.5-.5H70.943zm0 0v1h80.95l.5-.5h.711l.5-.5H70.943zm0 0v1h80.95l.5-.5h.711l.5-.5H70.943zm-49.86 25.17v.5h127.859l.492-.5zm0 24.18h1.001v.5h-1.001zm24.68 0v.5h93.6l.5-.5z"/><path d="M95.603 214.084v.5h41.44l.5-.5h-41.94zm0 0v.5h41.44l.5-.5h-41.94zm-24.16 0v.5h-.5v.5h24.66v-.5h41.44l.5-.5h-66.1zm-24.68 0v1h24.18v-.5h.5v-.5h-24.68zm0 1h48.34v-1h-48.34v1zm0 0h48.34v-1h-48.34v1zm101.96-25.18l.5-.5H21.083v1h127.86l.5-.5h-.72zm-101.96 25.18h48.34v-1h-48.34v1zm-.5-1v.5h.5v.5h48.34v-1h-48.84zm48.84 0v.5h41.94l.5-.5h-42.44zm1-24.18v.5h52.12l.5-.5h-52.62zm-.5-.5v.5h-.5v.5h53.12l1-1h-53.62zm53.12.5l.5-.5h-53.62v.5h-.5v.5h53.84l.5-.5h-.72zm0 0l-.5.5h.721l.5-.5h-.721zm0 0l-.5.5h.721l.489-.5h-.71zm-127.64 25.18h1v-1h-1v1zm24.68-1v1h93.1l1-1h-94.1zm102.96-24.18l-.5.5h.721l.489-.5h-.71zm0 0l-.5.5h.721l.5-.5h-.721zm-53.12-.5v.5h-.5v.5h53.12l1-1h-53.62zm.5.5v.5h52.12l.5-.5h-52.62zm0 0v.5h52.12l.5-.5h-52.62zm-.5 24.18v.5h41.44l.5-.5h-41.94zm0 0v.5h41.44l.5-.5h-41.94zm0 0v.5h41.44l.5-.5h-41.94z"/><path d="M45.763 361.775l.5-.5v1.42l-.5.5-23.68 23.67-.5.5V214.084h.5v171.361zm0-147.691v114.211l.499-.5V214.084zm-24.18-24.68h24.68v1h-24.68zm24.18-24.67h.5v-78.07h-.5v78.07zm-24.18-103.25v104.25h24.68v-79.57h-.5v78.57h-23.68V62.484h24.18v-1h-24.68zm24.67-49.35v1h-24.17v23.671h24.17v1h-24.67V12.134z"/><path d="M45.763 37.805h.5v-.5h-.5v.5zm0 24.679h1v-1h-1v1zm0 103.25h1v-79.57h-1v79.57zm0 24.67h1v-1h-1v1zm0 23.68v114.211l.5-.5v-.711l.5-.5v-112.5h-1zm0-176.279h.5v-.5h-.5v.5zm0 24.679h1v-1h-1v1zm0 103.25h1v-79.57h-1v79.57zm0 24.67h1v-1h-1v1zm0 23.68v114.211l.5-.5v-.711l.5-.5v-112.5h-1zm-24.18-200.95h.5v-1h-.5v1zm0 0h.5v-1h-.5v1zm24.18 49.35h1v-1h-1v1zm0 103.25h1v-79.57h-1v79.57zm0 24.67h1v-1h-1v1zm0 171.371v1.42l1-1v-1.42l-1 1zm0-147.691v114.211l1-1V214.084h-1zm0-200.95h1v-1h-1v1zm0 24.671h1v-1h-1v1zm-24.18-24.671h.5v-1h-.5v1zm0 0h.5v-1h-.5v1zm24.18 24.671h.5v-.5h-.5v.5zm0 24.679h1v-1h-1v1zm0 103.25h1v-79.57h-1v79.57zm0 24.67h1v-1h-1v1zm0 23.68v114.211l.5-.5v-.711l.5-.5v-112.5h-1zm0-176.279h.5v-.5h-.5v.5zm0 0h.49v-.5h-.49v.5zm0 0h.49v-1h-.49v1zm0 0h.49v-1h-.49v1zm0 0h.49v-1h-.49v1zm0 0h.49v-1h-.49v1zm-24.68 0h1v-25.67h-1v25.67zm24.68 0h.49v-1h-.49v1zm0 0h.49v-1h-.49v1zm0 0h.49v-1h-.49v1zm0 0h.49v-1h-.49v1zm0 0h.5v-.5h-.5v.5zm0 0h.5v-.5h-.5v.5zm.5 48.859v-.5h-.5v79.57h1v-79.07h-.5zm-.5 103.74h1v-1h-1v1zm0 23.68v114.211l.5-.5v-.711l.5-.5v-112.5h-1zm0 0v114.211l.5-.5v-.711l.5-.5v-112.5h-1zm0 0v114.211l.5-.5v-.711l.5-.5v-112.5h-1zm0 0v114.211l.5-.5v-.711l.5-.5v-112.5h-1zm0 0v114.211l.5-.5v-.711l.5-.5v-112.5h-1zm0 0v114.211l.5-.5v-.711l.5-.5v-112.5h-1zm0 .5v113.711l.5-.5v-.711l.5-.5v-112h-1zm-24.68-.5v173.781l1-1V214.084h-1zm24.68.5v113.711l.5-.5v-.711l.5-.5v-112h-1zm-24.68-24.18h1v-1h-1v1zm24.68 23.68v114.211l.5-.5v-.711l.5-.5v-112.5h-1zm0 0v114.211l.5-.5v-.711l.5-.5v-112.5h-1zm0 0v114.211l.5-.5v-.711l.5-.5v-112.5h-1zm0 0v114.211l.5-.5v-.711l.5-.5v-112.5h-1zm0 0v114.211l.5-.5v-.711l.5-.5v-112.5h-1zm0-127.42v79.07h.5v-1h.5v-78.07h-1zm0 79.07h.5v-1h-.5v1zm0 0h.5v-1h-.5v1zm0 0h.5v-1h-.5v1zm0 0h.5v-1h-.5v1zm0 0h.5v-1h-.5v1zm-24.68 0h1V61.484h-1v104.25zm24.68 0h.5v-1h-.5v1zm0 0h.5v-1h-.5v1zm0 0h.5v-1h-.5v1zm0 0h.5v-1h-.5v1zm0-79.07v79.07h.5v-24.68h.5v-54.39h-1zm.5 0v-.5h-.5v79.57h.5v-1h.5v-78.07h-.5zm-.5-48.859h.5v-.5h-.5v.5zm0 24.679h1v-1h-1v1zm0 103.25h1v-79.57h-1v79.57zm0 24.67h1v-1h-1v1zm0 23.68v114.211l.5-.5v-.711l.5-.5v-112.5h-1zm0-176.279h.5v-.5h-.5v.5zm0 24.679h1v-1h-1v1zm0 103.25h1v-79.57h-1v79.57zm0 24.67h1v-1h-1v1zm0 23.68v114.211l.5-.5v-.711l.5-.5v-112.5h-1zm0-176.279h.5v-.5h-.5v.5zm0 24.679h1v-1h-1v1zm0 103.25h1v-79.57h-1v79.57zm0 24.67h1v-1h-1v1zm0 23.68v114.211l.5-.5v-.711l.5-.5v-112.5h-1zm25.18 13.831v75.198l.5-.498v-74.7zm0-13.831h24.66v1h-24.66zm24.16 13.83h.5v85.43l-.5.5-23.66 23.67-.5.5v-1.43l24.16-24.16zm-24.16-38.51h24.66v1h-24.66zm0-103.24h.5v1h-.5zm24.66 78.57v1h-24.66v-65.73h.5v64.73zm-.5-78.57h.5v1h-.5zm0 13.84h.5v41.051h-.5zm-24.16-38.52h24.66v1h-24.66zm-.01-24.679h24.67v1h-24.67zm0-24.671h24.67v1h-24.67z"/><path d="M70.943 215.084h.5v-.5h-.5v.5zm0 12.83v73.781l.5-.5v-73.281h-.5zm0 0v73.781l.5-.5v-73.281h-.5zm0 0v73.781l.5-.5v-73.281h-.5zm0 0v73.781l.5-.5v-73.281h-.5zm0 0v73.781l.5-.5v-73.281h-.5zm0 0v73.781l.5-.5v-73.281h-.5zm24.16-12.83h.5v-1h-.5v1zm0 12.83v49.611l.5-.5v-49.111h-.5zm-24.16 0v73.781l.5-.5v-73.281h-.5zm0 0v73.781l.5-.5v-73.281h-.5zm0 0v73.781l.5-.5v-73.281h-.5zm0 0v73.781l.5-.5v-73.281h-.5zm0-165.43h.5v-.5h-.5v.5zm-.5 24.68h1v-1h-1v1zm0 12.84v64.73h.5v.5h.5v-65.23h-1zm.5 115.08h.5v-.5h-.5v.5zm0 12.83v73.781l.5-.5v-73.281h-.5zm0 0v73.781l.5-.5v-73.281h-.5zm0 0v73.781l.5-.5v-73.281h-.5zm0 0v73.781l.5-.5v-73.281h-.5zm0 0v73.781l.5-.5v-73.281h-.5zm0 0v73.781l.5-.5v-73.281h-.5zm24.16-12.83h.5v-1h-.5v1zm0 12.83v49.611l.5-.5v-49.111h-.5zm-24.16 0v73.781l.5-.5v-73.281h-.5zm0 0v73.781l.5-.5v-73.281h-.5zm0 0v73.781l.5-.5v-73.281h-.5zm0 0v73.781l.5-.5v-73.281h-.5zm0-165.43h.5v-.5h-.5v.5zm-.5 24.68h1v-1h-1v1zm0 12.84v64.73h.5v.5h.5v-65.23h-1zm.5 115.08h.5v-.5h-.5v.5zm0 12.83v73.781l.5-.5v-73.281h-.5zm0 0v73.781l.5-.5v-73.281h-.5zm0 0v73.781l.5-.5v-73.281h-.5zm0 0v73.781l.5-.5v-73.281h-.5zm0 0v73.781l.5-.5v-73.281h-.5zm0 0v73.781l.5-.5v-73.281h-.5zm24.16-12.83h.5v-1h-.5v1zm0 12.83v49.611l.5-.5v-49.111h-.5zm-24.16 0v73.781l.5-.5v-73.281h-.5zm0 0v73.781l.5-.5v-73.281h-.5zm0 0v73.781l.5-.5v-73.281h-.5zm0 0v73.781l.5-.5v-73.281h-.5zm0-165.43h.5v-.5h-.5v.5zm-.5 24.68h1v-1h-1v1zm0 12.84v64.73h.5v.5h.5v-65.23h-1zm0-37.52h1v-1h-1v1zm0 24.68h1v-1h-1v1zm0 12.84v64.73h.5v1h.5v-65.73h-1zm24.66-86.87h1v-1h-1v1zm0 24.671h1v-1h-1v1zm-24.16 177.279h.5v-.5h-.5v.5zm0 12.83v73.781l.5-.5v-73.281h-.5zm0-141.75v.5h-.5v.5h1v-1h-.5zm-.5 13.84v64.73h.5v1h.5v-65.73h-1zm.5 127.91v74.48l.5-.49v-73.99h-.5zm0 0v74.48l.5-.49v-73.99h-.5zm0 0v74.48l.5-.49v-73.99h-.5zm0 0v74.48l.5-.49v-73.99h-.5zm24.16-37.51h1v-1h-1v1zm-24.16 37.51v74.48l.5-.49v-73.99h-.5zm24.16 0v85.93l1-1v-84.93h-1zm0-12.83h1v-1h-1v1zm-24.16 12.83v74.48l.5-.49v-73.99h-.5zm0 0v74.48l.5-.49v-73.99h-.5zm0 0v74.48l.5-.49v-73.99h-.5zm0 0v74.48l.5-.49v-73.99h-.5zm0-141.75v.5h-.5v.5h1v-1h-.5zm-.5 13.84v41.051h.5v23.68h.5v-64.73h-1zm24.66-37.52h1v-1h-1v1zm0 24.68h1v-1h-1v1zm0 53.891h1v-41.051h-1v41.051zm0 24.679h1v-1h-1v1zm-24.16-79.57v.5h-.5v.5h1v-1h-.5zm-.5 13.84v41.051h.5v23.68h.5v-64.73h-1zm0-37.52h1v-1h-1v1zm0 24.68h1v-1h-1v1zm0 12.84v64.73h.5v1h.5v-65.73h-1zm24.66 89.9h.5v-.5h-.5v.5zm0 122.52v1.42l.5-.5v-1.42l-.5.5zm-24.66-249.94h1v-1h-1v1zm0 24.68h1v-1h-1v1zm0 78.57h1v-65.73h-1v65.73zm24.66 146.69v1.42l.5-.5v-1.42l-.5.5zm-24.66-122.02h1v-1h-1v1zm.5 146.18l-.5.51v1.42l1-1v-1.43l-.5.5zm-.5-108.67v75.701l1-1v-74.701h-1zm0-12.83h1v-1h-1v1zm24.66 97.34v1.42l.5-.5v-1.42l-.5.5zm0-122.52h.5v-.5h-.5v.5zm-24.66-176.77h1v-1h-1v1zm0 24.671h1v-1h-1v1zm24.66 274.619v1.42l.5-.5v-1.42l-.5.5zm0-122.52h.5v-.5h-.5v.5zm-24.16-127.42h.5v-.5h-.5v.5zm-.5 24.68h1v-1h-1v1zm0 12.84v64.73h.5v1h.5v-65.73h-1zm.5 115.08h.5v-.5h-.5v.5zm0 12.83v73.781l.5-.5v-73.281h-.5zm0 0v73.781l.5-.5v-73.281h-.5zm0 0v73.781l.5-.5v-73.281h-.5zm0 0v73.781l.5-.5v-73.281h-.5zm0 0v73.781l.5-.5v-73.281h-.5zm0 0v73.781l.5-.5v-73.281h-.5zm24.16-12.83h.5v-1h-.5v1zm0 12.83v49.611l.5-.5v-49.111h-.5zm-24.16 0v73.781l.5-.5v-73.281h-.5zm0 0v73.781l.5-.5v-73.281h-.5zm0 0v73.781l.5-.5v-73.281h-.5zm0 0v73.781l.5-.5v-73.281h-.5zm0-165.43h.5v-.5h-.5v.5zm-.5 24.68h1v-1h-1v1zm0 12.84v64.73h.5v.5h.5v-65.23h-1zm.5 115.08h.5v-.5h-.5v.5zm0 12.83v73.781l.5-.5v-73.281h-.5zm0 0v73.781l.5-.5v-73.281h-.5zm0 0v73.781l.5-.5v-73.281h-.5zm0 0v73.781l.5-.5v-73.281h-.5zm0 0v73.781l.5-.5v-73.281h-.5zm0 0v73.781l.5-.5v-73.281h-.5zm24.16-12.83h.5v-1h-.5v1zm0 12.83v49.611l.5-.5v-49.111h-.5zm-24.16 0v73.781l.5-.5v-73.281h-.5zm0 0v73.781l.5-.5v-73.281h-.5zm0 0v73.781l.5-.5v-73.281h-.5zm0 0v73.781l.5-.5v-73.281h-.5zm0-165.43h.5v-.5h-.5v.5zm-.5 24.68h1v-1h-1v1zm0 12.84v64.73h.5v.5h.5v-65.23h-1zm.5 115.08h.5v-.5h-.5v.5zm0 12.83v73.781l.5-.5v-73.281h-.5zm0 0v73.781l.5-.5v-73.281h-.5zm0 0v73.781l.5-.5v-73.281h-.5zm0 0v73.781l.5-.5v-73.281h-.5zm0 0v73.781l.5-.5v-73.281h-.5zm0 0v73.781l.5-.5v-73.281h-.5zm24.16-12.83h.5v-1h-.5v1zm0 12.83v49.611l.5-.5v-49.111h-.5zm-24.16 0v73.781l.5-.5v-73.281h-.5zm0 0v73.781l.5-.5v-73.281h-.5zm0 0v73.781l.5-.5v-73.281h-.5zm0 0v73.781l.5-.5v-73.281h-.5zm0-165.43h.5v-.5h-.5v.5zm-.5 24.68h1v-1h-1v1zm0 12.84v64.73h.5v.5h.5v-65.23h-1z"/><path d="M153.604 164.734l-24.671 24.67 20.511.5h-.011l-.489.5h.699l-20-1 23.681-23.67 1-1h-.72zm24.679-24.679l-1 1h34.189l-24.68 24.68-23.66 23.67-24.68 24.68h-.2l-1 1h.9l75.029-75.029h-34.898zm-107.34 162.34l-.5.5-23.68 23.689-1 1v.711l25.68-25.68v-.711l-.5.491zm24.16-24.161v34.189l-24.16 24.16-.5.51-24.68 24.682-23.68 23.67v-34.182l-1 1v34.891l75.02-75.02v-34.9l-1 1z"/><path d="M137.543 214.084l-1 1h1.42l1-1h-1.42zm16.061-49.35l-.5.5h-.711l-.5.5-2.67 23.67-1 1h1.42l-20-1 23.681-23.67 1-1h-.72zM95.103 277.525v1.42l1-1v-1.42l-1 1zm-24.66 24.67l-23.68 23.689v.699l-.5.5v.711l25.18-25.18v-1.42l-1 1.001zm67.1-88.111l-1 1h1.42l1-1h-1.42zm16.061-49.35l-.5.5h-.711l-.5.5-2.67 23.67-1 1h1.42l-20-1 23.681-23.67 1-1h-.72zM95.103 277.525v1.42l1-1v-1.42l-1 1zm-24.66 24.67l-23.68 23.689v.699l-.5.5v.711l25.18-25.18v-1.42l-1 1.001zm0 0l-23.68 23.689v.699l-.5.5v.711l25.18-25.18v-1.42l-1 1.001zm0 0l-23.68 23.689v.699l-.5.5v.711l25.18-25.18v-1.42l-1 1.001zm0 0l-23.68 23.689v.699l-.5.5v.711l25.18-25.18v-1.42l-1 1.001zm0 0l-23.68 23.689v.699l-.5.5v.711l25.18-25.18v-1.42l-1 1.001zm0 0l-23.68 23.689v.699l-.5.5v.711l25.18-25.18v-1.42l-1 1.001zm0 0l-23.68 23.689v.699l-.5.5v.711l25.18-25.18v-1.42l-1 1.001zm0 0l-23.68 23.689v.699l-.5.5v.711l25.18-25.18v-1.42l-1 1.001zm0 0l-23.68 23.689v.699l-.5.5v.711l25.18-25.18v-1.42l-1 1.001zm0 0l-23.68 23.689v.699l-.5.5v.711l25.18-25.18v-1.42l-1 1.001zm0 0l-23.68 23.689v.699l-.5.5v.711l25.18-25.18v-1.42l-1 1.001zm.5.2v-.699l-.5.5-23.68 23.689v.699l-.5.5v.711l25.18-25.18v-.711l-.5.491zm0 0v-.699l-.5.5-23.68 23.689v.699l-.5.5v.711l25.18-25.18v-.711l-.5.491zm-.5-.2l-23.68 23.689v.699l-.5.5v.711l25.18-25.18v-1.42l-1 1.001zm.5 34.389l-.5.51-24.68 24.682-23.68 23.67-1 1v1.42l1-1 23.68-23.67 25.68-25.682 23.66-23.67 1-1v-1.42l-25.16 25.16zm0-34.189v-.699l-.5.5-23.68 23.689v.699l-.5.5v.711l25.18-25.18v-.711l-.5.491zm0 0v-.699l-.5.5-23.68 23.689v.699l-.5.5v.711l25.18-25.18v-.711l-.5.491zm0 0v-.699l-.5.5-23.68 23.689v.699l-.5.5v.711l25.18-25.18v-.711l-.5.491zm-.5-.2l-23.68 23.689v.699l-.5.5v.711l25.18-25.18v-1.42l-1 1.001zm0 0l-23.68 23.689v.699l-.5.5v.711l25.18-25.18v-1.42l-1 1.001zm0 0l-23.68 23.689v.699l-.5.5v.711l25.18-25.18v-1.42l-1 1.001zm0 0l-23.68 23.689v.699l-.5.5v.711l25.18-25.18v-1.42l-1 1.001zm0 0l-23.68 23.689v.699l-.5.5v.711l25.18-25.18v-1.42l-1 1.001zm0 0l-23.68 23.689v.699l-.5.5v.711l25.18-25.18v-1.42l-1 1.001zm0 0l-23.68 23.689v.699l-.5.5v.711l25.18-25.18v-1.42l-1 1.001zm0 0l-23.68 23.689v.699l-.5.5v.711l25.18-25.18v-1.42l-1 1.001zm0 0l-23.68 23.689v.699l-.5.5v.711l25.18-25.18v-1.42l-1 1.001zm0 0l-23.68 23.689v.699l-.5.5v.711l25.18-25.18v-1.42l-1 1.001zm-49.36 84.25v.709l1-1v-.709l-1 1zm0 0v.709l1-1v-.709l-1 1zm0 0v.709l1-1v-.709l-1 1zm0 0v.709l1-1v-.709l-1 1zm132.521-221.711l-.5.5h-.711l-.5.5-2.67 23.67-1 1h1.42l-20-1 23.681-23.67 1-1h-.72zm0 0l-.5.5h-.711l-.5.5-2.67 23.67-1 1h1.42l-20-1 23.681-23.67 1-1h-.72zm0 0l-.5.5h-.711l-.5.5-2.67 23.67-1 1h1.42l-20-1 23.681-23.67 1-1h-.72zm0 0l-.5.5h-.711l-.5.5-2.67 23.67-1 1h1.42l-20-1 23.681-23.67 1-1h-.72zm0 0l-.5.5h-.711l-.5.5-2.67 23.67-.5.5h.71l-.489.5h.699l-20-1 23.681-23.67 1-1h-.72zm58.869-24.679l-25.68 25.68-23.66 23.67-25.68 25.68h1.41l25.68-25.68 23.67-23.67 25.68-25.68h-1.42zm-58.869 24.679l-.5.5h-.711l-.5.5-2.67 23.67-.5.5h.71l-.489.5h.699l-20-1 23.681-23.67 1-1h-.72zm0 0l-.5.5h-.711l-.5.5-2.67 23.67-1 1h1.42l-20-1 23.681-23.67 1-1h-.72zm0 0l-.5.5h-.711l-.5.5-2.67 23.67-1 1h1.42l-20-1 23.681-23.67 1-1h-.72zm0 0l-.5.5h-.711l-.5.5-2.67 23.67-1 1h1.42l-20-1 23.681-23.67 1-1h-.72zm0 0l-.5.5h-.711l-.5.5-2.67 23.67-1 1h1.42l-20-1 23.681-23.67 1-1h-.72zM21.083 386.445v.709l1-1v-.709l-1 1zm0 0v.709l1-1v-.709l-1 1zm0 0v.709l1-1v-.709l-1 1zm0 0v.709l1-1v-.709l-1 1zm116.46-172.361l-1 1h1.42l1-1h-1.42zm15.35-49.35l-1 1-2.67 23.67-1 1h1.42l-20-1 23.681-23.67 1-1h-1.431zm24.68-24.679l-1 1h1.42l1-1h-1.42zm-156.49 246.39v.709l1-1v-.709l-1 1zm0 0v.709l1-1v-.709l-1 1zm74.02-108.92v1.42l1-1v-1.42l-1 1zm-74.02 74.02v1.42l1-1v-1.42l-1 1zm49.36-49.35l-23.68 23.689-1 1v1.41l25.68-25.68v-1.42l-1 1.001zm-49.36 84.25v.709l1-1v-.709l-1 1zm0 0v.709l1-1v-.709l-1 1zm0 0v.709l1-1v-.709l-1 1zm0 0v.709l1-1v-.709l-1 1zm0 0v.709l1-1v-.709l-1 1zm0 0v.709l1-1v-.709l-1 1zm0 0v.709l1-1v-.709l-1 1zm0 0v.709l1-1v-.709l-1 1zm0 0v.709l1-1v-.709l-1 1zm0 0v.709l1-1v-.709l-1 1zm116.46-172.361l-1 1h1.42l1-1h-1.42zm16.061-49.35l-.5.5h-.711l-.5.5-2.67 23.67-1 1h1.42l-20-1 23.681-23.67 1-1h-.72zM95.103 277.525v1.42l1-1v-1.42l-1 1zm-24.66 24.67l-23.68 23.689v.699l-.5.5v.711l25.18-25.18v-1.42l-1 1.001zm67.1-88.111l-1 1h1.42l1-1h-1.42zm16.061-49.35l-.5.5h-.711l-.5.5-2.67 23.67-1 1h1.42l-20-1 23.681-23.67 1-1h-.72zM95.103 277.525v1.42l1-1v-1.42l-1 1zm-24.66 24.67l-23.68 23.689v.699l-.5.5v.711l25.18-25.18v-1.42l-1 1.001zm170.29-265.39l-25.18 25.179-.49.5h-.709l25.679-25.679z"/><path d="M299.604 12.134l-75.031 75.03h-63.9l1-1h63.19l49.36-49.359 23.67-23.671h-34.19l1-1z"/><path d="M239.533 37.305l-.5.5h-.71l-23.681 23.68h.711l-.5.5h.699l24.681-24.68h-.7zm59.36-25.171l-1 1-23.67 23.67-50.36 50.359h1.42l1-1 23.68-23.68 50.35-50.35h-1.42zm-59.36 25.171l-.5.5h-.71l-23.681 23.68h.711l-.5.5h.699l24.681-24.68h-.7zm-14.67 48.859l-1 1h.71l1-1h-.71zm-63.9 0l-1 1h1.41l1-1h-1.41zm78.36-49.359l-25.681 25.68h1.421l.489-.5 25.181-25.18h-1.41zm24.67-24.671l-1 1h1.41l1-1h-1.41zm-39.13 74.03l-1 1h.71l1-1h-.71zm14.67-48.859l-.5.5h-.71l-23.681 23.68h.711l-.5.5h.699l24.681-24.68h-.7z"/></g><path fill="#ED1F24" d="M351.358 240.522v23.01h-95.934v-123.9h93.633v23.01h-65.136v26.904h57.525v22.301h-57.525v28.675h67.437zm20.885-108.324h27.612v131.334h-27.612V132.198z"/><path fill="#FFF" d="M506.229 162.642v32.745h57.348v23.01h-57.348v45.135h-28.674v-123.9h93.633v23.01h-64.959zm152.217 14.78c7.904 7.022 11.859 17.611 11.859 31.771v54.339h-25.842v-11.858c-5.194 8.85-14.868 13.274-29.028 13.274-7.317 0-13.659-1.239-19.027-3.717-5.371-2.478-9.47-5.899-12.302-10.267-2.832-4.363-4.248-9.32-4.248-14.867 0-8.851 3.333-15.812 10.001-20.887 6.665-5.072 16.961-7.611 30.886-7.611h21.948c0-6.018-1.831-10.647-5.486-13.894-3.659-3.244-9.146-4.867-16.462-4.867a48.05 48.05 0 00-14.956 2.389c-4.897 1.593-9.058 3.748-12.479 6.46l-9.912-19.293c5.191-3.656 11.417-6.488 18.674-8.496 7.257-2.005 14.719-3.009 22.391-3.009 14.749.001 26.077 3.513 33.983 10.533zm-23.541 65.667c3.656-2.183 6.253-5.398 7.788-9.646v-9.735h-18.938c-11.328 0-16.992 3.717-16.992 11.151 0 3.54 1.386 6.345 4.159 8.407 2.771 2.066 6.577 3.098 11.417 3.098 4.718-.001 8.908-1.091 12.566-3.275zm153.105-74.783l-43.011 101.067c-4.367 10.975-9.766 18.701-16.195 23.188-6.433 4.482-14.19 6.726-23.275 6.726-4.956 0-9.854-.769-14.691-2.301-4.84-1.535-8.792-3.659-11.858-6.372l10.089-19.646c2.124 1.886 4.571 3.362 7.345 4.424 2.771 1.063 5.515 1.594 8.23 1.594 3.775 0 6.843-.916 9.204-2.744 2.359-1.83 4.483-4.867 6.372-9.115l.354-.885-41.241-95.934h28.497l26.727 64.605 26.904-64.605h26.549zm101.42 55.401h-72.039c1.297 5.902 4.364 10.563 9.204 13.983 4.837 3.424 10.854 5.133 18.054 5.133 4.956 0 9.351-.735 13.187-2.212 3.833-1.475 7.403-3.807 10.709-6.992l14.69 15.93c-8.969 10.267-22.066 15.399-39.294 15.399-10.739 0-20.239-2.094-28.497-6.284-8.261-4.187-14.633-10-19.116-17.434-4.485-7.434-6.726-15.869-6.726-25.311 0-9.32 2.213-17.729 6.638-25.223 4.425-7.492 10.501-13.333 18.23-17.523 7.728-4.188 16.373-6.284 25.931-6.284 9.32 0 17.758 2.008 25.312 6.018 7.55 4.013 13.479 9.766 17.788 17.257 4.306 7.495 6.461 16.196 6.461 26.108-.001.355-.179 2.833-.532 7.435zm-64.606-30.621c-4.248 3.54-6.845 8.38-7.788 14.513h46.905c-.945-6.018-3.54-10.824-7.788-14.425-4.248-3.598-9.441-5.398-15.576-5.398-6.256 0-11.505 1.77-15.753 5.31zm161.072 49.206v21.24h-84.96v-16.638l48.498-57.348h-47.26v-21.24h82.128v16.638l-48.497 57.348h50.091z"/></svg>